<svg xmlns="http://www.w3.org/2000/svg"><defs><font id="Montserrat-Bold" horiz-adv-x="0"><font-face font-family="Montserrat" font-weight="700" panose-1="0 0 8 0 0 0 0 0 0 0" ascent="800" descent="-200" x-height="538" cap-height="700" bbox="-882 -266 1679 1076" underline-thickness="50" underline-position="-150" unicode-range="U+000D-A78C"/><glyph glyph-name="fi" unicode="fi" horiz-adv-x="768" d="M243 526h138V406H247V0H91v406H8v120h83v24q0 92 54.5 146T299 750q35 0 66.5-7.5T418 721l-41-113q-27 19-63 19-71 0-71-78v-23zm296 12h156V0H539v538zm8 100q-27 25-27 62t27 62 70 25 70-24 27-60q0-39-27-64.5T617 613t-70 25z"/><glyph glyph-name="fl" unicode="fl" horiz-adv-x="688" d="M243 526h138V406H247V0H91v406H8v120h83v24q0 92 54.5 146T299 750q35 0 66.5-7.5T418 721l-41-113q-27 19-63 19-71 0-71-78v-23zm216 216h156V0H459v742z"/><glyph glyph-name=".notdef" horiz-adv-x="587" d="M40 700h507V0H40v700zM467 70v560H120V70h347z"/><glyph glyph-name=".null"/><glyph glyph-name="nonmarkingreturn" horiz-adv-x="283"/><glyph glyph-name="NULL"/><glyph glyph-name="NULL"/><glyph glyph-name="space" horiz-adv-x="283"/><glyph glyph-name="exclam" unicode="!" horiz-adv-x="289" d="M52 700h186l-31-457H83zM76.5 18.5Q49 45 49 83t27 63.5 69 25.5 69-25.5T241 83t-27.5-64.5T145-8 76.5 18.5z"/><glyph glyph-name="quotedbl" unicode="&quot;" horiz-adv-x="437" d="M49 700h133l-11-284H59zm206 0h133l-11-284H265z"/><glyph glyph-name="numbersign" unicode="#" horiz-adv-x="720" d="M536 269h130V160H523L503 0H390l20 160H263L243 0H131l20 160H20v109h144l21 162H54v109h144l20 160h112l-20-160h147l20 160h112l-20-160h130l1-109H556zm-113 0 21 162H297l-21-162h147z"/><glyph glyph-name="dollar" unicode="$" horiz-adv-x="638" d="M550 64.5Q490 6 377-8v-112H277v109q-74 4-141 26T28 69l55 122q38-28 89-47t105-24v167q-71 17-120 38t-82 61.5T42 494q0 83 60.5 142.5T277 709v111h100V711q123-10 203-61l-50-123q-75 43-153 52V409q70-16 118.5-36.5t81.5-61T610 205q0-82-60-140.5zM222 461q19-16 55-27v142q-38-9-56-28.5T203 502q0-25 19-41zm209-311q18 18 18 43t-18.5 41-53.5 28V124q36 8 54 26z"/><glyph glyph-name="percent" unicode="%" horiz-adv-x="877" d="M75.5 374.5Q27 427 27 515t48.5 140.5T201 708t125-52.5T374 515t-48-140.5T201 322 75.5 374.5zM618 700h119L259 0H140zM254.5 432q19.5 28 19.5 83t-19.5 83-53.5 28q-33 0-53-28.5T128 515t20-82.5 53-28.5q34 0 53.5 28zm332-416.5Q547 39 525 83t-22 102 22 102 61.5 67.5T676 378q77 0 125.5-52.5T850 185 801.5 44.5 676-8q-50 0-89.5 23.5zm143 87Q749 131 749 185t-19.5 82.5T676 296q-33 0-53-28t-20-83 20-83 53-28q34 0 53.5 28.5z"/><glyph glyph-name="ampersand" unicode="&amp;" horiz-adv-x="728" d="m621-12-84 78Q437-12 303-12q-76 0-137 24.5T70.5 81 36 180q0 65 36.5 114.5T190 389q-38 39-55 74.5T118 537q0 51 27 90t76.5 60.5T336 709q91 0 146-43.5T537 548q0-54-32.5-96T400 371l128-119q23 48 35 109l125-39q-20-93-64-159l82-76zM280.5 585Q260 567 260 539q0-21 11-39.5t43-49.5q51 27 71 48.5t20 46.5q0 26-18 42t-51 16q-35 0-55.5-18zM445 151 276 309q-47-27-67-53t-20-59q0-39 34-63t91-24q73 0 131 41z"/><glyph glyph-name="quotesingle" unicode="'" horiz-adv-x="230" d="M49 700h133l-11-284H59z"/><glyph glyph-name="parenleft" unicode="(" horiz-adv-x="357" d="M105.5 17Q73 137 73 274t32.5 257.5T198 742h149q-63-111-92-225.5T226 274t29-242.5T347-194H198q-60 91-92.5 211z"/><glyph glyph-name="parenright" unicode=")" horiz-adv-x="358" d="M10-194Q73-83 102.5 31.5T132 274t-29.5 242.5T10 742h149q61-89 93.5-209.5T285 274 253 16.5 159-194H10z"/><glyph glyph-name="asterisk" unicode="*" horiz-adv-x="434" d="m312 544 109-59-49-82-110 65 2-121h-94l1 122-110-66-48 82 109 59-109 60 48 82 110-66-1 122h94l-2-122 110 66 49-82z"/><glyph glyph-name="plus" unicode="+" horiz-adv-x="599" d="M538 289H364V119H235v170H62v122h173v170h129V411h174V289z"/><glyph glyph-name="comma" unicode="," horiz-adv-x="262" d="M201 159.5Q228 133 228 90q0-20-5-40t-22-60l-57-144H45L89 5Q64 15 49.5 37.5T35 90q0 43 27.5 69.5T132 186t69-26.5z"/><glyph glyph-name="hyphen" unicode="-" horiz-adv-x="386" d="M52 344h283V219H52v125z"/><glyph glyph-name="period" unicode="." horiz-adv-x="262" d="M62 20Q34 48 34 90q0 43 28 69.5t69 26.5 69-26.5T228 90q0-42-28-70T131-8 62 20z"/><glyph glyph-name="slash" unicode="/" horiz-adv-x="392" d="M297 842h139L106-100H-33z"/><glyph glyph-name="zero" unicode="0" horiz-adv-x="679" d="M184 31Q116 74 77.5 155.5T39 350t38.5 194.5T184 669t155 43 155-43 106.5-124.5T639 350t-38.5-194.5T494 31 339-12 184 31zm255.5 149Q476 235 476 350t-36.5 170T339 575q-63 0-99.5-55T203 350t36.5-170 99.5-55q64 0 100.5 55z"/><glyph glyph-name="one" unicode="1" horiz-adv-x="392" d="M309 700V0H147v570H7v130h302z"/><glyph glyph-name="two" unicode="2" horiz-adv-x="590" d="M562 132V0H33v105l270 255q43 41 58 70.5t15 58.5q0 42-28.5 64.5T264 576q-46 0-83-17.5T119 506L1 582q41 61 113 95.5T279 712q78 0 136.5-25.5t91-72T539 505q0-57-24-107t-93-114L261 132h301z"/><glyph glyph-name="three" unicode="3" horiz-adv-x="592" d="M507 346.5Q556 293 556 214q0-61-32-112.5T426.5 19 266-12q-74 0-145.5 19.5T-1 63l63 124q40-30 92.5-46.5T262 124q61 0 96 23.5t35 66.5q0 86-131 86h-74v107l144 163H34v130h490V595L366 415q92-15 141-68.5z"/><glyph glyph-name="four" unicode="4" horiz-adv-x="689" d="M680 147H566V0H408v147H31v109l330 444h170L225 279h188v131h153V279h114V147z"/><glyph glyph-name="five" unicode="5" horiz-adv-x="595" d="M497.5 378Q568 319 568 220q0-64-32-116.5t-97.5-84T277-12q-74 0-145.5 19.5T10 63l64 124q40-30 92-46.5T273 124q61 0 96 24t35 67q0 45-36.5 68T241 306H62l36 394h427V570H233l-11-133h57q148 0 218.5-59z"/><glyph glyph-name="six" unicode="6" horiz-adv-x="637" d="M498 412q55-27 87-76.5T617 221q0-70-35-123t-95.5-81.5T352-12q-147 0-230 90T39 335q0 119 45 204t125.5 129T396 712q56 0 107.5-12.5T591 664l-60-119q-52 35-131 35-89 0-141-52t-56-151q62 62 173 62 67 0 122-27zm-70.5-275q32.5 28 32.5 76t-32.5 76.5T341 318q-53 0-87-29.5T220 213t33-75 90-29q52 0 84.5 28z"/><glyph glyph-name="seven" unicode="7" horiz-adv-x="620" d="M587 700V595L327 0H151l251 568H170V454H26v246h561z"/><glyph glyph-name="eight" unicode="8" horiz-adv-x="660" d="M597.5 300q27.5-42 27.5-97 0-65-37-113.5t-104-75T329-12 174.5 14.5t-103 75T35 203q0 55 27.5 97t78.5 68q-39 24-60 60.5T60 512q0 61 34 106t95 69.5T329 712q80 0 141.5-24.5T566 618t34-106q0-47-21-83.5T518 368q52-26 79.5-68zm-347 269.5Q221 546 221 505q0-40 29-63t79-23 80 23 30 63q0 41-30 64.5T329 593q-49 0-78.5-23.5zm175-435Q461 162 461 208t-35.5 73-96.5 27q-60 0-95-27t-35-73q0-47 35-74t95-27q61 0 96.5 27.5z"/><glyph glyph-name="nine" unicode="9" horiz-adv-x="637" d="M515 622.5Q598 533 598 365q0-119-44.5-204T428 32 241-12Q185-12 134 .5T47 36l60 119q51-35 131-35 89 0 141 52.5T435 324q-63-63-174-63-67 0-122 27t-87 76.5T20 479q0 70 35 123t95.5 81.5T285 712q147 0 230-89.5zm-131.5-211Q417 441 417 487t-32.5 75-89.5 29q-52 0-84.5-28T178 487t32.5-76.5T297 382q53 0 86.5 29.5z"/><glyph glyph-name="colon" unicode=":" horiz-adv-x="262" d="M62 379q-28 28-28 70 0 43 28 69.5t69 26.5 69-26.5 28-69.5q0-42-28-70t-69-28-69 28zm0-359Q34 48 34 90q0 43 28 69.5t69 26.5 69-26.5T228 90q0-42-28-70T131-8 62 20z"/><glyph glyph-name="semicolon" unicode=";" horiz-adv-x="262" d="M62 379q-28 28-28 70 0 43 28 69.5t69 26.5 69-26.5 28-69.5q0-42-28-70t-69-28-69 28zm139-219.5Q228 133 228 90q0-20-5-40t-22-60l-57-144H45L89 5Q64 15 49.5 37.5T35 90q0 43 27.5 69.5T132 186t69-26.5z"/><glyph glyph-name="less" unicode="&lt;" horiz-adv-x="599" d="M538 472 205 350l333-121V104L62 285v130l476 181V472z"/><glyph glyph-name="equal" unicode="=" horiz-adv-x="599" d="M62 535h476V413H62v122zm0-248h476V165H62v122z"/><glyph glyph-name="greater" unicode="&gt;" horiz-adv-x="599" d="M538 415V285L62 104v125l333 121L62 472v124z"/><glyph glyph-name="question" unicode="?" horiz-adv-x="589" d="M240.5 329q23.5 34 68.5 75 33 30 48.5 50.5T373 501q0 37-29.5 58.5T265 581q-47 0-83.5-19.5T120 507L-1 578q42 64 113.5 99T282 712q115 0 184.5-49T536 527q0-41-13.5-72t-33-52.5T439 353q-37-33-54-55.5T368 243H217q0 52 23.5 86zm-16-310.5Q197 45 197 83t27 63.5 69 25.5 69-25.5T389 83t-27.5-64.5T293-8t-68.5 26.5z"/><glyph glyph-name="at" unicode="@" horiz-adv-x="1035" d="M768.5 653.5Q876 597 936 498t60-224q0-88-25.5-151.5T899 26 791-7q-51 0-86 22t-51 65Q600-7 483-7q-64 0-117 32t-83.5 89.5T252 246q0 73 30.5 130.5t83 89.5T483 498q99 0 154-66v59h136V167q0-64 48-64 35 0 54.5 42T895 272q0 101-46.5 178.5t-131 121T523 615t-194.5-46.5-131-128.5T151 254q0-106 46-188.5t129.5-129T519-110q108 0 197 44l32-92q-45-23-106.5-35.5T519-206q-142 0-251 59.5T99 18 39 254q0 130 60.5 234T270 651t253 59q138 0 245.5-56.5zM604 144.5Q639 181 639 246q0 64-35 100t-90 36q-56 0-90-36.5T390 246q0-64 34-101t90-37q55 0 90 36.5z"/><glyph glyph-name="A" unicode="A" horiz-adv-x="766" d="M544 150H219L157 0H-9l312 700h160L776 0H606zm-51 123L382 541 271 273h222z"/><glyph glyph-name="B" unicode="B" horiz-adv-x="765" d="M691 300.5Q725 256 725 191q0-92-71.5-141.5T445 0H83v700h342q128 0 196.5-49T690 518q0-51-24.5-91T597 364q60-19 94-63.5zM244 578V413h161q60 0 91 21t31 62-31 61.5-91 20.5H244zm285.5-435q32.5 21 32.5 65 0 87-129 87H244V122h189q64 0 96.5 21z"/><glyph glyph-name="C" unicode="C" horiz-adv-x="733" d="M224.5 34.5Q138 81 88.5 163.5T39 350t49.5 186.5 136 129T419 712q91 0 164.5-32T707 588l-104-96q-71 82-176 82-65 0-116-28.5T231.5 466 203 350t28.5-116 79.5-79.5T427 126q105 0 176 83l104-96q-50-61-124-93T418-12q-107 0-193.5 46.5z"/><glyph glyph-name="D" unicode="D" horiz-adv-x="826" d="M83 700h318q114 0 201.5-43.5t136-122.5T787 350t-48.5-184-136-122.5T401 0H83v700zm310-567q105 0 167.5 58.5T623 350t-62.5 158.5T393 567H245V133h148z"/><glyph glyph-name="E" unicode="E" horiz-adv-x="671" d="M625 130V0H83v700h529V570H244V418h325V292H244V130h381z"/><glyph glyph-name="F" unicode="F" horiz-adv-x="639" d="M245 570V385h324V255H245V0H83v700h529V570H245z"/><glyph glyph-name="G" unicode="G" horiz-adv-x="771" d="M556 361h148V77q-57-43-132-66T421-12q-109 0-196 46.5t-136.5 129T39 350t49.5 186.5 137.5 129T424 712q92 0 167-31t126-90l-104-96q-75 79-181 79-67 0-119-28t-81-79-29-117q0-65 29-116t80.5-79.5T430 126q70 0 126 30v205z"/><glyph glyph-name="H" unicode="H" horiz-adv-x="808" d="M725 700V0H563v287H245V0H83v700h162V424h318v276h162z"/><glyph glyph-name="I" unicode="I" horiz-adv-x="328" d="M83 700h162V0H83v700z"/><glyph glyph-name="J" unicode="J" horiz-adv-x="541" d="M81.5 14.5Q22 41-16 90l90 108q57-77 130-77 99 0 99 116v333H57v130h407V246q0-129-64-193.5T212-12q-71 0-130.5 26.5z"/><glyph glyph-name="K" unicode="K" horiz-adv-x="740" d="m338 275-94-98V0H83v700h161V373l310 327h180L444 388 751 0H562z"/><glyph glyph-name="L" unicode="L" horiz-adv-x="604" d="M83 700h162V132h351V0H83v700z"/><glyph glyph-name="M" unicode="M" horiz-adv-x="955" d="m720 0-1 420L513 74h-73L235 411V0H83v700h134l262-435 258 435h133l2-700H720z"/><glyph glyph-name="N" unicode="N" horiz-adv-x="808" d="M725 700V0H592L243 425V0H83v700h134l348-425v425h160z"/><glyph glyph-name="O" unicode="O" horiz-adv-x="844" d="M225.5 35Q138 82 88.5 164.5T39 350t49.5 185.5 137 129.5T422 712t196-47 137-129.5T805 350t-50-185.5T618 35 422-12 225.5 35zM534 154.5q50 28.5 78.5 79.5T641 350t-28.5 116-78.5 79.5T422 574t-112-28.5-78.5-79.5T203 350t28.5-116 78.5-79.5T422 126t112 28.5z"/><glyph glyph-name="P" unicode="P" horiz-adv-x="732" d="M547.5 669Q616 638 653 581t37-135q0-77-37-134.5t-105.5-88T386 193H245V0H83v700h303q93 0 161.5-31zM488 356.5q38 31.5 38 89.5 0 59-38 90.5T377 568H245V325h132q73 0 111 31.5z"/><glyph glyph-name="Q" unicode="Q" horiz-adv-x="844" d="M840-75q-34-42-82.5-64T651-161q-78 0-141 33.5T366-9Q271 3 196.5 52t-116 126.5T39 350q0 103 49.5 185.5t137 129.5T422 712t196-47 137-129.5T805 350q0-122-68.5-214T555 8q25-26 48.5-37.5T654-41q65 0 114 52zM231.5 234q28.5-51 78.5-79.5T422 126t112 28.5 78.5 79.5T641 350t-28.5 116-78.5 79.5T422 574t-112-28.5-78.5-79.5T203 350t28.5-116z"/><glyph glyph-name="R" unicode="R" horiz-adv-x="735" d="M529 0 394 195H245V0H83v700h303q93 0 161.5-31T653 581t37-135-37.5-134.5T546 225L703 0H529zm-41 536.5Q450 568 377 568H245V324h132q73 0 111 32t38 90q0 59-38 90.5z"/><glyph glyph-name="S" unicode="S" horiz-adv-x="638" d="M152.5 10.5Q75 33 28 69l55 122q45-33 107-53t124-20q69 0 102 20.5t33 54.5q0 25-19.5 41.5t-50 26.5-82.5 22q-80 19-131 38t-87.5 61T42 494q0 61 33 110.5t99.5 78.5T337 712q67 0 131-16t112-46l-50-123q-97 55-194 55-68 0-100.5-22T203 502t37.5-53.5T355 414q80-19 131-38t87.5-60T610 205q0-60-33.5-109.5T476 17 313-12q-83 0-160.5 22.5z"/><glyph glyph-name="T" unicode="T" horiz-adv-x="618" d="M228 568H4v132h610V568H390V0H228v568z"/><glyph glyph-name="U" unicode="U" horiz-adv-x="788" d="M160.5 71Q77 154 77 308v392h162V314q0-188 156-188 76 0 116 45.5T551 314v386h160V308q0-154-83.5-237T394-12 160.5 71z"/><glyph glyph-name="V" unicode="V" horiz-adv-x="746" d="M756 700 453 0H293L-9 700h175l213-500 216 500h161z"/><glyph glyph-name="W" unicode="W" horiz-adv-x="1163" d="M1141 700 912 0H738L584 474 425 0H252L22 700h168l158-492 165 492h150l160-496 163 496h155z"/><glyph glyph-name="X" unicode="X" horiz-adv-x="714" d="M524 0 355 243 189 0H3l259 356L16 700h184l161-227 158 227h175L450 362 711 0H524z"/><glyph glyph-name="Y" unicode="Y" horiz-adv-x="676" d="M419 248V0H257v250L-14 700h172l187-311 187 311h159z"/><glyph glyph-name="Z" unicode="Z" horiz-adv-x="671" d="M650 132V0H38v105l384 463H46v132h589V595L252 132h398z"/><glyph glyph-name="bracketleft" unicode="[" horiz-adv-x="368" d="M83 742h271V620H239V-72h115v-122H83v936z"/><glyph glyph-name="backslash" unicode="\" horiz-adv-x="392" d="M287-100-43 842H96l330-942H287z"/><glyph glyph-name="bracketright" unicode="]" horiz-adv-x="368" d="M15-194v122h114v692H15v122h270v-936H15z"/><glyph glyph-name="asciicircum" unicode="^" horiz-adv-x="600" d="M423 141 300 436 177 141H57l181 418h125l180-418H423z"/><glyph glyph-name="underscore" unicode="_" horiz-adv-x="500" d="M0 0h500v-90H0V0z"/><glyph glyph-name="grave" unicode="`" horiz-adv-x="600" d="M88 751h168l135-144H269z"/><glyph glyph-name="a" unicode="a" horiz-adv-x="617" d="M481 486.5Q548 427 548 307V0H402v67Q358-8 238-8q-62 0-107.5 21T61 71t-24 84q0 75 56.5 118T268 316h124q0 51-31 78.5T268 422q-43 0-84.5-13.5T113 372L57 481q44 31 105.5 48T289 546q125 0 192-59.5zm-133-371q31 18.5 44 54.5v55H285q-96 0-96-63 0-30 23.5-47.5T277 97q40 0 71 18.5z"/><glyph glyph-name="b" unicode="b" horiz-adv-x="690" d="M526.5 511.5q61.5-34.5 96.5-97T658 269t-35-145.5-96.5-97T390-8Q279-8 221 62V0H72v742h156V481q59 65 162 65 75 0 136.5-34.5zm-65-351Q500 201 500 269t-38.5 108.5T363 418t-98.5-40.5T226 269t38.5-108.5T363 120t98.5 40.5z"/><glyph glyph-name="c" unicode="c" horiz-adv-x="591" d="M177.5 27.5Q109 63 70.5 126T32 269t38.5 143 107 98.5T332 546q85 0 148.5-35.5T573 409l-121-65q-42 74-121 74-61 0-101-40t-40-109 40-109 101-40q80 0 121 74l121-66q-29-64-92.5-100T332-8q-86 0-154.5 35.5z"/><glyph glyph-name="d" unicode="d" horiz-adv-x="692" d="M620 742V0H471v62Q413-8 303-8q-76 0-137.5 34T69 123 34 269t35 146 96.5 97T303 546q103 0 161-65v261h156zM428 160.5Q467 201 467 269t-39 108.5-98 40.5q-60 0-99-40.5T192 269t39-108.5 99-40.5q59 0 98 40.5z"/><glyph glyph-name="e" unicode="e" horiz-adv-x="631" d="M596 225H189q11-50 52-79t102-29q42 0 74.5 12.5T478 169l83-90Q485-8 339-8q-91 0-161 35.5T70 126 32 269q0 79 37.5 142.5t103 99T319 546q79 0 143-34t100.5-97.5T599 267q0-3-3-42zM231 398q-36-30-44-82h265q-8 51-44 81.5T320 428q-53 0-89-30z"/><glyph glyph-name="f" unicode="f" horiz-adv-x="387" d="M243 526h138V406H247V0H91v406H8v120h83v24q0 92 54.5 146T299 750q35 0 66.5-7.5T418 721l-41-113q-27 19-63 19-71 0-71-78v-23z"/><glyph glyph-name="g" unicode="g" horiz-adv-x="700" d="M627 538V90q0-148-77-220t-225-72q-78 0-148 19T61-128l62 112q34-28 86-44.5T313-77q81 0 119.5 36.5T471 70v23q-61-67-170-67-74 0-135.5 32.5T68 150 32 286t36 136 97.5 91.5T301 546q117 0 178-77v69h148zM433.5 190.5Q473 227 473 286t-39.5 95.5T332 418t-102-36.5-40-95.5 40-95.5T332 154t101.5 36.5z"/><glyph glyph-name="h" unicode="h" horiz-adv-x="691" d="M560.5 486Q622 426 622 308V0H466v284q0 64-28 95.5T357 411q-59 0-94-36.5T228 266V0H72v742h156V482q31 31 75 47.5t96 16.5q100 0 161.5-60z"/><glyph glyph-name="i" unicode="i" horiz-adv-x="301" d="M72 538h156V0H72v538zm8 100q-27 25-27 62t27 62 70 25 70-24 27-60q0-39-27-64.5T150 613t-70 25z"/><glyph glyph-name="j" unicode="j" horiz-adv-x="307" d="m-93-172 42 113q27-19 66-19 30 0 47 19.5T79 0v538h156V1q0-94-53.5-148.5T32-202q-82 0-125 30zM87 638q-27 25-27 62t27 62 70 25 70-24 27-60q0-39-27-64.5T157 613t-70 25z"/><glyph glyph-name="k" unicode="k" horiz-adv-x="660" d="m303 211-75-74V0H72v742h156V322l228 216h186L418 310 662 0H473z"/><glyph glyph-name="l" unicode="l" horiz-adv-x="301" d="M72 742h156V0H72v742z"/><glyph glyph-name="m" unicode="m" horiz-adv-x="1049" d="M921.5 486.5Q981 427 981 308V0H825v284q0 64-26.5 95.5T723 411q-55 0-87-35.5T604 270V0H448v284q0 127-102 127-54 0-86-35.5T228 270V0H72v538h149v-62q30 34 73.5 52t95.5 18q57 0 103-22.5t74-65.5q33 42 83.5 65T761 546q101 0 160.5-59.5z"/><glyph glyph-name="n" unicode="n" horiz-adv-x="691" d="M560.5 486Q622 426 622 308V0H466v284q0 64-28 95.5T357 411q-59 0-94-36.5T228 266V0H72v538h149v-63q31 34 77 52.5T399 546q100 0 161.5-60z"/><glyph glyph-name="o" unicode="o" horiz-adv-x="655" d="M175.5 27.5Q108 63 70 126T32 269t38 143 105.5 98.5T328 546t152-35.5T585 412t38-143-38-143-105-98.5T328-8 175.5 27.5zm251 133Q465 201 465 269t-38.5 108.5T328 418t-99-40.5T190 269t39-108.5 99-40.5 98.5 40.5z"/><glyph glyph-name="p" unicode="p" horiz-adv-x="690" d="M526.5 511.5q61.5-34.5 96.5-97T658 269t-35-145.5-96.5-97T390-8Q287-8 228 57v-251H72v732h149v-62q58 70 169 70 75 0 136.5-34.5zm-65-351Q500 201 500 269t-38.5 108.5T363 418t-98.5-40.5T226 269t38.5-108.5T363 120t98.5 40.5z"/><glyph glyph-name="q" unicode="q" horiz-adv-x="690" d="M618 538v-732H462V57Q404-8 301-8q-76 0-137.5 34T67 123 32 269t35 146 96.5 97T301 546q110 0 168-70v62h149zM426 160.5Q465 201 465 269t-39 108.5-98 40.5q-60 0-99-40.5T190 269t39-108.5 99-40.5q59 0 98 40.5z"/><glyph glyph-name="r" unicode="r" horiz-adv-x="431" d="M296.5 526Q344 546 406 546V402q-26 2-35 2-67 0-105-37.5T228 254V0H72v538h149v-71q28 39 75.5 59z"/><glyph glyph-name="s" unicode="s" horiz-adv-x="531" d="M122 8.5Q58 25 20 50l52 112q36-23 87-37.5T259 110q99 0 99 49 0 23-27 33t-83 17q-66 10-109 23t-74.5 46T33 372q0 51 29.5 90.5t86 61.5T282 546q57 0 113.5-12.5T489 499l-52-111q-71 40-155 40-50 0-75-14t-25-36q0-25 27-35t86-19q66-11 108-23.5t73-45.5 31-92q0-50-30-89t-87.5-60.5T253-8Q186-8 122 8.5z"/><glyph glyph-name="t" unicode="t" horiz-adv-x="435" d="M419 26Q396 9 362.5.5T292-8q-96 0-148.5 49T91 185v221H8v120h83v131h156V526h134V406H247V187q0-34 17.5-52.5T314 116q37 0 63 20z"/><glyph glyph-name="u" unicode="u" horiz-adv-x="687" d="M614 538V0H466v64q-31-35-74-53.5T299-8Q193-8 131 53T69 234v304h156V257q0-130 109-130 56 0 90 36.5T458 272v266h156z"/><glyph glyph-name="v" unicode="v" horiz-adv-x="598" d="M606 538 379 0H218L-8 538h161l149-366 154 366h150z"/><glyph glyph-name="w" unicode="w" horiz-adv-x="937" d="M936 538 741 0H591L470 334 345 0H195L1 538h147l127-364 132 364h132l128-364 131 364h138z"/><glyph glyph-name="x" unicode="x" horiz-adv-x="595" d="M414 0 296 165 174 0H4l207 271L11 538h175l114-157 117 157h166L383 275 591 0H414z"/><glyph glyph-name="y" unicode="y" horiz-adv-x="598" d="M606 538 363-33q-37-93-91.5-131T140-202q-42 0-83 13t-67 36L47-42q18-16 41.5-25t46.5-9q32 0 52 15.5T223-9l2 5L-8 538h161l151-365 152 365h150z"/><glyph glyph-name="z" unicode="z" horiz-adv-x="543" d="M515 120V0H35v94l274 324H42v120h464v-94L232 120h283z"/><glyph glyph-name="braceleft" unicode="{" horiz-adv-x="391" d="M269 310q-16-25-51-36 35-11 51-36t16-76V2q0-36 18.5-55T358-72h18v-122h-58q-93 0-141 46T129-15v181q0 23-11.5 35T85 213H52v122h33q21 0 32.5 12t11.5 35v181q0 87 48 133t141 46h58V620h-18q-36 0-54.5-19T285 546V386q0-51-16-76z"/><glyph glyph-name="bar" unicode="|" horiz-adv-x="309" d="M83 742h143v-936H83v936z"/><glyph glyph-name="braceright" unicode="}" horiz-adv-x="391" d="M339 335V213h-33q-21 0-32.5-12T262 166V-15q0-87-48-133T73-194H15v122h18q36 0 54.5 19T106 2v160q0 51 16 76t51 36q-35 11-51 36t-16 76v160q0 36-18.5 55T33 620H15v122h58q93 0 141-46t48-133V382q0-23 11.5-35t32.5-12h33z"/><glyph glyph-name="asciitilde" unicode="~" horiz-adv-x="599" d="M336.5 265Q309 279 277 304q-24 18-38.5 26t-29.5 8q-27 0-44-21t-18-57H50q1 92 42 141.5T200 451q36 0 62-13.5t61-39.5q24-18 38-26t29-8q28 0 44 21t18 57h98q-2-92-43-141.5T400 251q-36 0-63.5 14z"/><glyph glyph-name="uni00A0" horiz-adv-x="283"/><glyph glyph-name="exclamdown" unicode="¡" horiz-adv-x="289" d="M213.5 519.5Q241 493 241 455q0-39-27-64.5T145 365t-69 25.5T49 455q0 38 27.5 64.5T145 546t68.5-26.5zM238-154H52l31 449h124z"/><glyph glyph-name="cent" unicode="¢" horiz-adv-x="591" d="m452 194 121-66q-25-56-77.5-91T373-6v-114H273V-3Q202 8 147.5 45.5t-85 95T32 269t30.5 128.5 85 95T273 541v117h100V544q71-8 123-43t77-92l-121-65q-29 52-79 68V126q51 17 79 68zm-239.5-11q22.5-36 60.5-52v276q-38-16-60.5-52T190 269t22.5-86z"/><glyph glyph-name="sterling" unicode="£" horiz-adv-x="668" d="M293 130h343V0H30v130h100v172H30v97h100v26q0 134 85.5 210.5T455 712q120 0 201-46l-49-128q-60 36-150 36-80 0-122-37t-42-109v-29h240v-97H293V130z"/><glyph glyph-name="currency" unicode="¤" horiz-adv-x="700" d="M573 184 674 83 587-8 481 97q-60-35-131-35-70 0-132 35L112-8 25 83l102 102q-40 60-40 136 0 72 37 132l-99 99 87 91 101-100q63 38 137 38t136-38l101 100 87-91-98-98q37-63 37-133 0-73-40-137zm-152.5 19.5Q453 222 472 253t19 68-19 68-51.5 49.5T350 457t-70.5-18.5-51-49.5-18.5-68 18.5-68 51-49.5T350 185t70.5 18.5z"/><glyph glyph-name="yen" unicode="¥" horiz-adv-x="736" d="M486 311h150v-83H449v-55h187V90H449V0H287v90H100v83h187v55H100v83h151L-14 700h173l214-313 216 313h162z"/><glyph glyph-name="brokenbar" unicode="¦" horiz-adv-x="309" d="M83 742h143V392H83v350zm0-586h143v-350H83v350z"/><glyph glyph-name="section" unicode="§" horiz-adv-x="522" d="M476.5 230.5Q460 199 429 176q45-38 45-106 0-52-27.5-92t-80-63T243-108q-61 0-123.5 16.5T21-49L67 61q35-25 83.5-40T245 6q43 0 67 16t24 43q0 29-28 42.5T221 133q-61 14-99.5 28.5t-66 46.5T28 296q0 81 64 129-43 38-43 104 0 81 66 130t187 49q49 0 107.5-13t92.5-35l-45-109q-70 43-164 43-54 0-80-15.5T187 535q0-26 25.5-38t82.5-26q60-14 100-29.5t69-50 29-93.5q0-36-16.5-67.5zm-285 31.5q28.5-14 89.5-27l29-7q22 10 35 27t13 39q0 30-28.5 44T240 367l-28 6q-23-10-36-27.5T163 307q0-31 28.5-45z"/><glyph glyph-name="dieresis" unicode="¨" horiz-adv-x="600" d="M149 631.5Q129 651 129 681t20 49.5 50 19.5 49.5-19.5T268 681t-19.5-49.5T199 612t-50 19.5zm202.5 0Q332 651 332 681t19.5 49.5T401 750t50-19.5 20-49.5-20-49.5-50-19.5-49.5 19.5z"/><glyph glyph-name="copyright" unicode="©" horiz-adv-x="785" d="M212.5 44Q132 91 85.5 172T39 350t46.5 178T213 656t180 47 179.5-46T699 530.5 745 352t-47-179.5T570 44 391-3 212.5 44zm324 56.5q65.5 38.5 103 105T677 352q0 81-36.5 146T539 600.5 393 638t-146-38-102-104-37-146 37-146 101.5-104T391 62t145.5 38.5zm-242 73.5q-48.5 26-76 72T191 350t27.5 104 76 72T404 552q59 0 104-25.5t67-69.5l-90-53q-27 47-82 47-40 0-67.5-27.5T308 350t27.5-73.5T403 249q55 0 82 47l90-52q-22-45-67-70.5T404 148q-61 0-109.5 26z"/><glyph glyph-name="ordfeminine" unicode="ª" horiz-adv-x="412" d="M317.5 714Q361 678 361 606V424H261v39q-13-21-40-32.5T156 419q-61 0-94.5 27.5T28 517q0 45 36 70.5T175 613h78q-1 59-77 59-26 0-53-8.5T77 641l-37 68q28 19 69 30t82 11q83 0 126.5-36zM253 523v33h-62q-61 0-61-35 0-17 14.5-26t39.5-9q51 0 69 37z"/><glyph glyph-name="guillemotleft" unicode="«" horiz-adv-x="568" d="m36 269 141 196h140L180 269 317 74H177zm226 0 141 196h140L406 269 543 74H403z"/><glyph glyph-name="logicalnot" unicode="¬" horiz-adv-x="599" d="M538 115H409v175H62v121h476V115z"/><glyph glyph-name="uni00AD" unicode="­" horiz-adv-x="386" d="M52 344h283V219H52v125z"/><glyph glyph-name="registered" unicode="®" horiz-adv-x="785" d="M572.5 657Q653 611 699 530.5T745 352t-47-179.5T570 44 391-3 212.5 44t-127 128T39 350t46.5 178T213 656t180 47 179.5-46zm-36-556.5q65.5 38.5 103 105T677 352q0 81-36.5 146T539 600.5 393 638t-146-38-102-104-37-146 37-146 101.5-104T391 62t145.5 38.5zm22 233Q540 303 504 286l85-130H485l-73 112h-69V156H239v388h169q79 0 124-37.5T577 406q0-42-18.5-72.5zM401 346q35 0 54.5 15.5T475 406t-19.5 45-54.5 16h-59V346h59z"/><glyph glyph-name="macron" unicode="¯" horiz-adv-x="600" d="M115 723h370v-88H115v88z"/><glyph glyph-name="degree" unicode="°" horiz-adv-x="418" d="M120.5 388.5q-40.5 22.5-64 62T33 537t23.5 86.5 64 62.5 88.5 23 88-23 63.5-62.5T384 537t-23.5-86.5-63.5-62-88-22.5-88.5 22.5zm155 81.5q26.5 27 26.5 67t-26.5 67-66.5 27-66.5-27-26.5-67 26.5-67 66.5-27 66.5 27z"/><glyph glyph-name="plusminus" unicode="±" horiz-adv-x="599" d="M538 490V372H364V208H235v164H62v118h173v164h129V490h174zM62 122h476V0H62v122z"/><glyph glyph-name="uni00B2" unicode="²" horiz-adv-x="430" d="M390 411v-84H41v67l173 150q28 24 38.5 40.5T263 616q0 21-18 34t-54 13q-30 0-54.5-11.5T98 620l-80 48q25 38 71 60t111 22q81 0 127.5-35t46.5-91q0-32-16.5-60.5T295 495l-96-84h191z"/><glyph glyph-name="uni00B3" unicode="³" horiz-adv-x="430" d="M365 535q32-32 32-80 0-36-21.5-67T310 338t-108-19q-54 0-104.5 13T18 366l40 80q28-19 66-29.5t76-10.5q43 0 64.5 13t21.5 36q0 47-79 47h-59v68l91 89H36v83h338v-67l-101-99q60-9 92-41z"/><glyph glyph-name="acute" unicode="´" horiz-adv-x="600" d="M344 751h168L331 607H209z"/><glyph glyph-name="uni00B5" unicode="µ" horiz-adv-x="690" d="M618 538V0H477v66q-24-38-61.5-56T336-8q-65 0-108 35v-221H72v732h156V257q0-66 28.5-98t80.5-32q57 0 91 36.5T462 272v266h156z"/><glyph glyph-name="paragraph" unicode="¶" horiz-adv-x="686" d="M228 360q-62 1-110.5 24.5t-76 66.5T14 551q0 58 29.5 101t84 66.5T254 742h349v-842H476v729H355v-729H228v460z"/><glyph glyph-name="periodcentered" unicode="·" horiz-adv-x="302" d="M81.5 211Q54 238 54 282t27 70.5 70 26.5 70-26.5 27-70.5-27-71-70-27q-42 0-69.5 27z"/><glyph glyph-name="cedilla" unicode="¸" horiz-adv-x="600" d="M216-226.5q-25 5.5-42 15.5l24 67q32-15 65-15 52 0 52 32 0 29-49 29h-34L258 8h83l-14-58q44-5 65.5-27.5T414-133q0-46-40-72.5T267-232q-26 0-51 5.5z"/><glyph glyph-name="uni00B9" unicode="¹" horiz-adv-x="430" d="M378 410v-83H73v83h103v249H82v83h206V410h90z"/><glyph glyph-name="ordmasculine" unicode="º" horiz-adv-x="427" d="M116.5 440.5q-43.5 21.5-68 59T24 585q0 47 24.5 85t68 59 97.5 21 97-21 67.5-59 24.5-85q0-48-24.5-86T311 440t-97-21-97.5 21.5zm157.5 84q23 22.5 23 60.5t-23 60-60 22-60.5-22-23.5-60 23.5-60.5T214 502t60 22.5z"/><glyph glyph-name="guillemotright" unicode="»" horiz-adv-x="568" d="m25 74 137 195L25 465h140l141-196L165 74H25zm226 0 137 195-137 196h140l141-196L391 74H251z"/><glyph glyph-name="onequarter" unicode="¼" horiz-adv-x="1044" d="M378 368v-83H73v83h103v249H82v83h206V368h90zm324 332h119L343 0H224zm323-616h-67V0H851v84H626v70l189 261h119L755 169h107v70h96v-70h67V84z"/><glyph glyph-name="onehalf" unicode="½" horiz-adv-x="1044" d="M378 368v-83H73v83h103v249H82v83h206V368h90zm324 332h119L343 0H224zm302-616V0H655v67l173 150q28 24 38.5 40.5T877 289q0 21-18 34t-54 13q-30 0-54.5-11.5T712 293l-80 48q25 38 71 60t111 22q81 0 127.5-35t46.5-91q0-32-16.5-60.5T909 168l-96-84h191z"/><glyph glyph-name="threequarters" unicode="¾" horiz-adv-x="1044" d="M365 493q32-32 32-80 0-36-21.5-67T310 296t-108-19q-54 0-104.5 13T18 324l40 80q28-19 66-29.5t76-10.5q43 0 64.5 13t21.5 36q0 47-79 47h-59v68l91 89H36v83h338v-67l-101-99q60-9 92-41zm337 207h119L343 0H224zm323-616h-67V0H851v84H626v70l189 261h119L755 169h107v70h96v-70h67V84z"/><glyph glyph-name="questiondown" unicode="¿" horiz-adv-x="589" d="M226.5 390.5Q200 416 200 455q0 38 27 64.5t68 26.5q42 0 69-26.5t27-64.5q0-39-27-64.5T295 365t-68.5 25.5zm-105-507Q52-68 52 17q0 40 14 70.5t33 51 50 48.5q36 31 53.5 54t17.5 54h151q0-51-23.5-85.5T280 137q-33-30-48.5-50.5T216 40q0-33 29.5-53.5T323-34q47 0 84 19t61 55l121-71q-42-64-113-99t-170-35q-115 0-184.5 48.5z"/><glyph glyph-name="Agrave" unicode="À" horiz-adv-x="766" d="M544 150H219L157 0H-9l312 700h160L776 0H606zm-51 123L382 541 271 273h222zM171 901h168l135-144H352z"/><glyph glyph-name="Aacute" unicode="Á" horiz-adv-x="766" d="M544 150H219L157 0H-9l312 700h160L776 0H606zm-51 123L382 541 271 273h222zm-66 628h168L414 757H292z"/><glyph glyph-name="Acircumflex" unicode="Â" horiz-adv-x="766" d="M544 150H219L157 0H-9l312 700h160L776 0H606zm-51 123L382 541 271 273h222zm-23 484-87 76-87-76H182l132 144h138l132-144H470z"/><glyph glyph-name="Atilde" unicode="Ã" horiz-adv-x="766" d="M544 150H219L157 0H-9l312 700h160L776 0H606zm-51 123L382 541 271 273h222zm-82.5 491.5Q390 775 365 793q-16 12-26.5 18t-20.5 6q-21 0-34-14.5T270 761h-79q2 67 33.5 106.5T308 907q26 0 46.5-10.5T401 867q16-12 26.5-18t20.5-6q20 0 33.5 14.5T496 897h79q-2-65-33.5-104T458 754q-27 0-47.5 10.5z"/><glyph glyph-name="Adieresis" unicode="Ä" horiz-adv-x="766" d="M544 150H219L157 0H-9l312 700h160L776 0H606zm-51 123L382 541 271 273h222zM232 781.5Q212 801 212 831t20 49.5 50 19.5 49.5-19.5T351 831t-19.5-49.5T282 762t-50 19.5zm202.5 0Q415 801 415 831t19.5 49.5T484 900t50-19.5 20-49.5-20-49.5-50-19.5-49.5 19.5z"/><glyph glyph-name="Aring" unicode="Å" horiz-adv-x="766" d="M544 150H219L157 0H-9l312 700h160L776 0H606zm-51 123L382 541 271 273h222zM294.5 789Q259 824 259 875t35.5 86 87.5 35q53 0 89-35t36-86-36-86-89-35q-52 0-87.5 35zm131 42.5Q443 849 443 875t-17.5 43.5T382 936q-25 0-42.5-17.5T322 875t17-43.5 43-17.5 43.5 17.5z"/><glyph glyph-name="AE" unicode="Æ" horiz-adv-x="1080" d="M1034 130V0H492v150H239L157 0H-9l395 700h635V570H653V418h326V292H653V130h381zM492 273v297h-23L306 273h186z"/><glyph glyph-name="Ccedilla" unicode="Ç" horiz-adv-x="733" d="M224.5 34.5Q138 81 88.5 163.5T39 350t49.5 186.5 136 129T419 712q91 0 164.5-32T707 588l-104-96q-71 82-176 82-65 0-116-28.5T231.5 466 203 350t28.5-116 79.5-79.5T427 126q105 0 176 83l104-96q-50-61-124-93T418-12q-107 0-193.5 46.5zm88.5-261q-25 5.5-42 15.5l24 67q32-15 65-15 52 0 52 32 0 29-49 29h-34L355 8h83l-14-58q44-5 65.5-27.5T511-133q0-46-40-72.5T364-232q-26 0-51 5.5z"/><glyph glyph-name="Egrave" unicode="È" horiz-adv-x="671" d="M625 130V0H83v700h529V570H244V418h325V292H244V130h381zM136 901h168l135-144H317z"/><glyph glyph-name="Eacute" unicode="É" horiz-adv-x="671" d="M625 130V0H83v700h529V570H244V418h325V292H244V130h381zM392 901h168L379 757H257z"/><glyph glyph-name="Ecircumflex" unicode="Ê" horiz-adv-x="671" d="M625 130V0H83v700h529V570H244V418h325V292H244V130h381zM435 757l-87 76-87-76H147l132 144h138l132-144H435z"/><glyph glyph-name="Edieresis" unicode="Ë" horiz-adv-x="671" d="M625 130V0H83v700h529V570H244V418h325V292H244V130h381zM197 781.5Q177 801 177 831t20 49.5 50 19.5 49.5-19.5T316 831t-19.5-49.5T247 762t-50 19.5zm202.5 0Q380 801 380 831t19.5 49.5T449 900t50-19.5 20-49.5-20-49.5-50-19.5-49.5 19.5z"/><glyph glyph-name="Igrave" unicode="Ì" horiz-adv-x="328" d="M83 700h162V0H83v700zM-48 901h168l135-144H133z"/><glyph glyph-name="Iacute" unicode="Í" horiz-adv-x="328" d="M83 700h162V0H83v700zm125 201h168L195 757H73z"/><glyph glyph-name="Icircumflex" unicode="Î" horiz-adv-x="328" d="M83 700h162V0H83v700zm168 57-87 76-87-76H-37L95 901h138l132-144H251z"/><glyph glyph-name="Idieresis" unicode="Ï" horiz-adv-x="328" d="M83 700h162V0H83v700zm-70 81.5Q-7 801-7 831t20 49.5T63 900t49.5-19.5T132 831t-19.5-49.5T63 762t-50 19.5zm202.5 0Q196 801 196 831t19.5 49.5T265 900t50-19.5 20-49.5-20-49.5-50-19.5-49.5 19.5z"/><glyph glyph-name="Eth" unicode="Ð" horiz-adv-x="839" d="M96 700h318q114 0 201.5-43.5t136-122.5T800 350t-48.5-184-136-122.5T414 0H96v700zm310-567q105 0 167.5 58.5T636 350t-62.5 158.5T406 567H258V133h148zM1 410h432V302H1v108z"/><glyph glyph-name="Ntilde" unicode="Ñ" horiz-adv-x="808" d="M725 700V0H592L243 425V0H83v700h134l348-425v425h160zm-293.5 64.5Q411 775 386 793q-16 12-26.5 18t-20.5 6q-21 0-34-14.5T291 761h-79q2 67 33.5 106.5T329 907q26 0 46.5-10.5T422 867q16-12 26.5-18t20.5-6q20 0 33.5 14.5T517 897h79q-2-65-33.5-104T479 754q-27 0-47.5 10.5z"/><glyph glyph-name="Ograve" unicode="Ò" horiz-adv-x="844" d="M225.5 35Q138 82 88.5 164.5T39 350t49.5 185.5 137 129.5T422 712t196-47 137-129.5T805 350t-50-185.5T618 35 422-12 225.5 35zM534 154.5q50 28.5 78.5 79.5T641 350t-28.5 116-78.5 79.5T422 574t-112-28.5-78.5-79.5T203 350t28.5-116 78.5-79.5T422 126t112 28.5zM210 901h168l135-144H391z"/><glyph glyph-name="Oacute" unicode="Ó" horiz-adv-x="844" d="M225.5 35Q138 82 88.5 164.5T39 350t49.5 185.5 137 129.5T422 712t196-47 137-129.5T805 350t-50-185.5T618 35 422-12 225.5 35zM534 154.5q50 28.5 78.5 79.5T641 350t-28.5 116-78.5 79.5T422 574t-112-28.5-78.5-79.5T203 350t28.5-116 78.5-79.5T422 126t112 28.5zM466 901h168L453 757H331z"/><glyph glyph-name="Ocircumflex" unicode="Ô" horiz-adv-x="844" d="M225.5 35Q138 82 88.5 164.5T39 350t49.5 185.5 137 129.5T422 712t196-47 137-129.5T805 350t-50-185.5T618 35 422-12 225.5 35zM534 154.5q50 28.5 78.5 79.5T641 350t-28.5 116-78.5 79.5T422 574t-112-28.5-78.5-79.5T203 350t28.5-116 78.5-79.5T422 126t112 28.5zM509 757l-87 76-87-76H221l132 144h138l132-144H509z"/><glyph glyph-name="Otilde" unicode="Õ" horiz-adv-x="844" d="M225.5 35Q138 82 88.5 164.5T39 350t49.5 185.5 137 129.5T422 712t196-47 137-129.5T805 350t-50-185.5T618 35 422-12 225.5 35zM534 154.5q50 28.5 78.5 79.5T641 350t-28.5 116-78.5 79.5T422 574t-112-28.5-78.5-79.5T203 350t28.5-116 78.5-79.5T422 126t112 28.5zm-84.5 610Q429 775 404 793q-16 12-26.5 18t-20.5 6q-21 0-34-14.5T309 761h-79q2 67 33.5 106.5T347 907q26 0 46.5-10.5T440 867q16-12 26.5-18t20.5-6q20 0 33.5 14.5T535 897h79q-2-65-33.5-104T497 754q-27 0-47.5 10.5z"/><glyph glyph-name="Odieresis" unicode="Ö" horiz-adv-x="844" d="M225.5 35Q138 82 88.5 164.5T39 350t49.5 185.5 137 129.5T422 712t196-47 137-129.5T805 350t-50-185.5T618 35 422-12 225.5 35zM534 154.5q50 28.5 78.5 79.5T641 350t-28.5 116-78.5 79.5T422 574t-112-28.5-78.5-79.5T203 350t28.5-116 78.5-79.5T422 126t112 28.5zm-263 627Q251 801 251 831t20 49.5 50 19.5 49.5-19.5T390 831t-19.5-49.5T321 762t-50 19.5zm202.5 0Q454 801 454 831t19.5 49.5T523 900t50-19.5 20-49.5-20-49.5-50-19.5-49.5 19.5z"/><glyph glyph-name="multiply" unicode="×" horiz-adv-x="599" d="m386 350 124-125-84-88-126 127-126-127-84 88 124 125L90 475l84 88 126-127 126 127 84-88z"/><glyph glyph-name="Oslash" unicode="Ø" horiz-adv-x="844" d="M225.5 35Q138 82 88.5 164.5T39 350t49.5 185.5 137 129.5T422 712t196-47 137-129.5T805 350t-50-185.5T618 35 422-12 225.5 35zM534 154.5q50 28.5 78.5 79.5T641 350t-28.5 116-78.5 79.5T422 574t-112-28.5-78.5-79.5T203 350t28.5-116 78.5-79.5T422 126t112 28.5zM669 770h105L176-70H71z"/><glyph glyph-name="Ugrave" unicode="Ù" horiz-adv-x="788" d="M160.5 71Q77 154 77 308v392h162V314q0-188 156-188 76 0 116 45.5T551 314v386h160V308q0-154-83.5-237T394-12 160.5 71zM183 901h168l135-144H364z"/><glyph glyph-name="Uacute" unicode="Ú" horiz-adv-x="788" d="M160.5 71Q77 154 77 308v392h162V314q0-188 156-188 76 0 116 45.5T551 314v386h160V308q0-154-83.5-237T394-12 160.5 71zM439 901h168L426 757H304z"/><glyph glyph-name="Ucircumflex" unicode="Û" horiz-adv-x="788" d="M160.5 71Q77 154 77 308v392h162V314q0-188 156-188 76 0 116 45.5T551 314v386h160V308q0-154-83.5-237T394-12 160.5 71zM482 757l-87 76-87-76H194l132 144h138l132-144H482z"/><glyph glyph-name="Udieresis" unicode="Ü" horiz-adv-x="788" d="M160.5 71Q77 154 77 308v392h162V314q0-188 156-188 76 0 116 45.5T551 314v386h160V308q0-154-83.5-237T394-12 160.5 71zM244 781.5Q224 801 224 831t20 49.5 50 19.5 49.5-19.5T363 831t-19.5-49.5T294 762t-50 19.5zm202.5 0Q427 801 427 831t19.5 49.5T496 900t50-19.5 20-49.5-20-49.5-50-19.5-49.5 19.5z"/><glyph glyph-name="Yacute" unicode="Ý" horiz-adv-x="676" d="M419 248V0H257v250L-14 700h172l187-311 187 311h159zm-37 653h168L369 757H247z"/><glyph glyph-name="Thorn" unicode="Þ" horiz-adv-x="732" d="M547.5 592Q616 561 653 504t37-135-37-135-105.5-88T386 115H245V0H83v700h162v-77h141q93 0 161.5-31zM488 278.5q38 31.5 38 90.5t-38 90.5T377 491H245V247h132q73 0 111 31.5z"/><glyph glyph-name="germandbls" unicode="ß" horiz-adv-x="693" d="M625 323q36-47 36-116 0-100-69-157.5T409-8q-31 0-63.5 4.5T291 8l18 124q38-12 84-12 51 0 80.5 23.5T503 211t-32 67.5-89 23.5h-54v123q56 1 89 29.5t33 75.5q0 42-28 67.5T345 623q-55 0-86-31.5T228 502V0H72v483q0 86 36 146t97.5 90.5T345 750t136-27.5 88.5-75T600 541q0-46-20.5-84T524 392q65-22 101-69z"/><glyph glyph-name="agrave" unicode="à" horiz-adv-x="617" d="M481 486.5Q548 427 548 307V0H402v67Q358-8 238-8q-62 0-107.5 21T61 71t-24 84q0 75 56.5 118T268 316h124q0 51-31 78.5T268 422q-43 0-84.5-13.5T113 372L57 481q44 31 105.5 48T289 546q125 0 192-59.5zm-133-371q31 18.5 44 54.5v55H285q-96 0-96-63 0-30 23.5-47.5T277 97q40 0 71 18.5zM93 751h168l135-144H274z"/><glyph glyph-name="aacute" unicode="á" horiz-adv-x="617" d="M481 486.5Q548 427 548 307V0H402v67Q358-8 238-8q-62 0-107.5 21T61 71t-24 84q0 75 56.5 118T268 316h124q0 51-31 78.5T268 422q-43 0-84.5-13.5T113 372L57 481q44 31 105.5 48T289 546q125 0 192-59.5zm-133-371q31 18.5 44 54.5v55H285q-96 0-96-63 0-30 23.5-47.5T277 97q40 0 71 18.5zm1 635.5h168L336 607H214z"/><glyph glyph-name="acircumflex" unicode="â" horiz-adv-x="617" d="M481 486.5Q548 427 548 307V0H402v67Q358-8 238-8q-62 0-107.5 21T61 71t-24 84q0 75 56.5 118T268 316h124q0 51-31 78.5T268 422q-43 0-84.5-13.5T113 372L57 481q44 31 105.5 48T289 546q125 0 192-59.5zm-133-371q31 18.5 44 54.5v55H285q-96 0-96-63 0-30 23.5-47.5T277 97q40 0 71 18.5zM392 607l-87 76-87-76H104l132 144h138l132-144H392z"/><glyph glyph-name="atilde" unicode="ã" horiz-adv-x="617" d="M481 486.5Q548 427 548 307V0H402v67Q358-8 238-8q-62 0-107.5 21T61 71t-24 84q0 75 56.5 118T268 316h124q0 51-31 78.5T268 422q-43 0-84.5-13.5T113 372L57 481q44 31 105.5 48T289 546q125 0 192-59.5zm-133-371q31 18.5 44 54.5v55H285q-96 0-96-63 0-30 23.5-47.5T277 97q40 0 71 18.5zm-15.5 499Q312 625 287 643q-16 12-26.5 18t-20.5 6q-21 0-34-14.5T192 611h-79q2 67 33.5 106.5T230 757q26 0 46.5-10.5T323 717q16-12 26.5-18t20.5-6q20 0 33.5 14.5T418 747h79q-2-65-33.5-104T380 604q-27 0-47.5 10.5z"/><glyph glyph-name="adieresis" unicode="ä" horiz-adv-x="617" d="M481 486.5Q548 427 548 307V0H402v67Q358-8 238-8q-62 0-107.5 21T61 71t-24 84q0 75 56.5 118T268 316h124q0 51-31 78.5T268 422q-43 0-84.5-13.5T113 372L57 481q44 31 105.5 48T289 546q125 0 192-59.5zm-133-371q31 18.5 44 54.5v55H285q-96 0-96-63 0-30 23.5-47.5T277 97q40 0 71 18.5zm-194 516Q134 651 134 681t20 49.5 50 19.5 49.5-19.5T273 681t-19.5-49.5T204 612t-50 19.5zm202.5 0Q337 651 337 681t19.5 49.5T406 750t50-19.5 20-49.5-20-49.5-50-19.5-49.5 19.5z"/><glyph glyph-name="aring" unicode="å" horiz-adv-x="617" d="M481 486.5Q548 427 548 307V0H402v67Q358-8 238-8q-62 0-107.5 21T61 71t-24 84q0 75 56.5 118T268 316h124q0 51-31 78.5T268 422q-43 0-84.5-13.5T113 372L57 481q44 31 105.5 48T289 546q125 0 192-59.5zm-133-371q31 18.5 44 54.5v55H285q-96 0-96-63 0-30 23.5-47.5T277 97q40 0 71 18.5zM216.5 627Q181 662 181 713t35.5 86 87.5 35q53 0 89-35t36-86-36-86-89-35q-52 0-87.5 35zm131 42.5Q365 687 365 713t-17.5 43.5T304 774q-25 0-42.5-17.5T244 713t17-43.5 43-17.5 43.5 17.5z"/><glyph glyph-name="ae" unicode="æ" horiz-adv-x="996" d="M960 226H552q11-51 51-80t102-29q78 0 136 52l83-90q-39-43-95.5-65T702-8q-71 0-131 23T469 85Q407-8 263-8 158-8 97.5 38T37 161q0 70 57 113t174 43h124q0 50-31 77.5T269 422q-43 0-85-13.5T113 372L57 481q44 31 105 48t126 17q136 0 198-76 37 36 88 56t110 20q77 0 141-34t101-97 37-144q0-25-3-45zM596 399q-37-29-46-82h262q-8 53-44.5 82T682 428t-86-29zM362 125q30 28 30 76v25H285q-96 0-96-62 0-32 23.5-49.5T279 97q53 0 83 28z"/><glyph glyph-name="ccedilla" unicode="ç" horiz-adv-x="591" d="M177.5 27.5Q109 63 70.5 126T32 269t38.5 143 107 98.5T332 546q85 0 148.5-35.5T573 409l-121-65q-42 74-121 74-61 0-101-40t-40-109 40-109 101-40q80 0 121 74l121-66q-29-64-92.5-100T332-8q-86 0-154.5 35.5zm46.5-254q-25 5.5-42 15.5l24 67q32-15 65-15 52 0 52 32 0 29-49 29h-34L266 8h83l-14-58q44-5 65.5-27.5T422-133q0-46-40-72.5T275-232q-26 0-51 5.5z"/><glyph glyph-name="egrave" unicode="è" horiz-adv-x="631" d="M596 225H189q11-50 52-79t102-29q42 0 74.5 12.5T478 169l83-90Q485-8 339-8q-91 0-161 35.5T70 126 32 269q0 79 37.5 142.5t103 99T319 546q79 0 143-34t100.5-97.5T599 267q0-3-3-42zM231 398q-36-30-44-82h265q-8 51-44 81.5T320 428q-53 0-89-30zM104 751h168l135-144H285z"/><glyph glyph-name="eacute" unicode="é" horiz-adv-x="631" d="M596 225H189q11-50 52-79t102-29q42 0 74.5 12.5T478 169l83-90Q485-8 339-8q-91 0-161 35.5T70 126 32 269q0 79 37.5 142.5t103 99T319 546q79 0 143-34t100.5-97.5T599 267q0-3-3-42zM231 398q-36-30-44-82h265q-8 51-44 81.5T320 428q-53 0-89-30zm129 353h168L347 607H225z"/><glyph glyph-name="ecircumflex" unicode="ê" horiz-adv-x="631" d="M596 225H189q11-50 52-79t102-29q42 0 74.5 12.5T478 169l83-90Q485-8 339-8q-91 0-161 35.5T70 126 32 269q0 79 37.5 142.5t103 99T319 546q79 0 143-34t100.5-97.5T599 267q0-3-3-42zM231 398q-36-30-44-82h265q-8 51-44 81.5T320 428q-53 0-89-30zm172 209-87 76-87-76H115l132 144h138l132-144H403z"/><glyph glyph-name="edieresis" unicode="ë" horiz-adv-x="631" d="M596 225H189q11-50 52-79t102-29q42 0 74.5 12.5T478 169l83-90Q485-8 339-8q-91 0-161 35.5T70 126 32 269q0 79 37.5 142.5t103 99T319 546q79 0 143-34t100.5-97.5T599 267q0-3-3-42zM231 398q-36-30-44-82h265q-8 51-44 81.5T320 428q-53 0-89-30zm-66 233.5Q145 651 145 681t20 49.5 50 19.5 49.5-19.5T284 681t-19.5-49.5T215 612t-50 19.5zm202.5 0Q348 651 348 681t19.5 49.5T417 750t50-19.5 20-49.5-20-49.5-50-19.5-49.5 19.5z"/><glyph glyph-name="igrave" unicode="ì" horiz-adv-x="301" d="M72 538h156V0H72v538zM-62 751h168l135-144H119z"/><glyph glyph-name="iacute" unicode="í" horiz-adv-x="301" d="M72 538h156V0H72v538zm122 213h168L181 607H59z"/><glyph glyph-name="icircumflex" unicode="î" horiz-adv-x="301" d="M72 538h156V0H72v538zm143 69-65 70-65-70H-26L83 751h134l109-144H215z"/><glyph glyph-name="idieresis" unicode="ï" horiz-adv-x="301" d="M72 538h156V0H72v538zm-50.5 94Q3 651 3 681t18.5 49T68 749t47-19 19-49-19-49-47-19-46.5 19zm163.5 0q-19 19-19 49t19 49 47 19 46.5-19 18.5-49-18.5-49-46.5-19-47 19z"/><glyph glyph-name="eth" unicode="ð" horiz-adv-x="657" d="M624 342q0-110-39-189.5t-111.5-122T302-12q-76 0-137.5 29t-97 82T32 221q0 67 33.5 118t91.5 79 129 28q115 0 176-72v2q0 121-58 184l-253-97-32 79 187 72q-29 7-69 7-72 0-135-21L83 721q78 20 160 20 139 0 232-63l90 35 32-79-53-20q80-102 80-272zM406.5 140q35.5 31 35.5 77 0 47-35.5 77.5T317 325q-58 0-92-29t-34-79q0-49 34-78.5t89-29.5q57 0 92.5 31z"/><glyph glyph-name="ntilde" unicode="ñ" horiz-adv-x="691" d="M560.5 486Q622 426 622 308V0H466v284q0 64-28 95.5T357 411q-59 0-94-36.5T228 266V0H72v538h149v-63q31 34 77 52.5T399 546q100 0 161.5-60zm-185 128.5Q355 625 330 643q-16 12-26.5 18t-20.5 6q-21 0-34-14.5T235 611h-79q2 67 33.5 106.5T273 757q26 0 46.5-10.5T366 717q16-12 26.5-18t20.5-6q20 0 33.5 14.5T461 747h79q-2-65-33.5-104T423 604q-27 0-47.5 10.5z"/><glyph glyph-name="ograve" unicode="ò" horiz-adv-x="655" d="M175.5 27.5Q108 63 70 126T32 269t38 143 105.5 98.5T328 546t152-35.5T585 412t38-143-38-143-105-98.5T328-8 175.5 27.5zm251 133Q465 201 465 269t-38.5 108.5T328 418t-99-40.5T190 269t39-108.5 99-40.5 98.5 40.5zM114 751h168l135-144H295z"/><glyph glyph-name="oacute" unicode="ó" horiz-adv-x="655" d="M175.5 27.5Q108 63 70 126T32 269t38 143 105.5 98.5T328 546t152-35.5T585 412t38-143-38-143-105-98.5T328-8 175.5 27.5zm251 133Q465 201 465 269t-38.5 108.5T328 418t-99-40.5T190 269t39-108.5 99-40.5 98.5 40.5zM370 751h168L357 607H235z"/><glyph glyph-name="ocircumflex" unicode="ô" horiz-adv-x="655" d="M175.5 27.5Q108 63 70 126T32 269t38 143 105.5 98.5T328 546t152-35.5T585 412t38-143-38-143-105-98.5T328-8 175.5 27.5zm251 133Q465 201 465 269t-38.5 108.5T328 418t-99-40.5T190 269t39-108.5 99-40.5 98.5 40.5zM413 607l-87 76-87-76H125l132 144h138l132-144H413z"/><glyph glyph-name="otilde" unicode="õ" horiz-adv-x="655" d="M175.5 27.5Q108 63 70 126T32 269t38 143 105.5 98.5T328 546t152-35.5T585 412t38-143-38-143-105-98.5T328-8 175.5 27.5zm251 133Q465 201 465 269t-38.5 108.5T328 418t-99-40.5T190 269t39-108.5 99-40.5 98.5 40.5zm-73 454Q333 625 308 643q-16 12-26.5 18t-20.5 6q-21 0-34-14.5T213 611h-79q2 67 33.5 106.5T251 757q26 0 46.5-10.5T344 717q16-12 26.5-18t20.5-6q20 0 33.5 14.5T439 747h79q-2-65-33.5-104T401 604q-27 0-47.5 10.5z"/><glyph glyph-name="odieresis" unicode="ö" horiz-adv-x="655" d="M175.5 27.5Q108 63 70 126T32 269t38 143 105.5 98.5T328 546t152-35.5T585 412t38-143-38-143-105-98.5T328-8 175.5 27.5zm251 133Q465 201 465 269t-38.5 108.5T328 418t-99-40.5T190 269t39-108.5 99-40.5 98.5 40.5zM175 631.5Q155 651 155 681t20 49.5 50 19.5 49.5-19.5T294 681t-19.5-49.5T225 612t-50 19.5zm202.5 0Q358 651 358 681t19.5 49.5T427 750t50-19.5 20-49.5-20-49.5-50-19.5-49.5 19.5z"/><glyph glyph-name="divide" unicode="÷" horiz-adv-x="599" d="M241 499q-24 24-24 60t24 59 59 23 59-23 24-59-24-60-59-24-59 24zM62 411h476V289H62v122zM241 83q-24 24-24 60t24 59 59 23 59-23 24-59-24-60-59-24-59 24z"/><glyph glyph-name="oslash" unicode="ø" horiz-adv-x="655" d="M175.5 27.5Q108 63 70 126T32 269t38 143 105.5 98.5T328 546t152-35.5T585 412t38-143-38-143-105-98.5T328-8 175.5 27.5zm251 133Q465 201 465 269t-38.5 108.5T328 418t-99-40.5T190 269t39-108.5 99-40.5 98.5 40.5zM507 604h78L144-71H67z"/><glyph glyph-name="ugrave" unicode="ù" horiz-adv-x="687" d="M614 538V0H466v64q-31-35-74-53.5T299-8Q193-8 131 53T69 234v304h156V257q0-130 109-130 56 0 90 36.5T458 272v266h156zM129 751h168l135-144H310z"/><glyph glyph-name="uacute" unicode="ú" horiz-adv-x="687" d="M614 538V0H466v64q-31-35-74-53.5T299-8Q193-8 131 53T69 234v304h156V257q0-130 109-130 56 0 90 36.5T458 272v266h156zM385 751h168L372 607H250z"/><glyph glyph-name="ucircumflex" unicode="û" horiz-adv-x="687" d="M614 538V0H466v64q-31-35-74-53.5T299-8Q193-8 131 53T69 234v304h156V257q0-130 109-130 56 0 90 36.5T458 272v266h156zm-186 69-87 76-87-76H140l132 144h138l132-144H428z"/><glyph glyph-name="udieresis" unicode="ü" horiz-adv-x="687" d="M614 538V0H466v64q-31-35-74-53.5T299-8Q193-8 131 53T69 234v304h156V257q0-130 109-130 56 0 90 36.5T458 272v266h156zm-424 93.5Q170 651 170 681t20 49.5 50 19.5 49.5-19.5T309 681t-19.5-49.5T240 612t-50 19.5zm202.5 0Q373 651 373 681t19.5 49.5T442 750t50-19.5 20-49.5-20-49.5-50-19.5-49.5 19.5z"/><glyph glyph-name="yacute" unicode="ý" horiz-adv-x="598" d="M606 538 363-33q-37-93-91.5-131T140-202q-42 0-83 13t-67 36L47-42q18-16 41.5-25t46.5-9q32 0 52 15.5T223-9l2 5L-8 538h161l151-365 152 365h150zM332 751h168L319 607H197z"/><glyph glyph-name="thorn" unicode="þ" horiz-adv-x="690" d="M526.5 511.5q61.5-34.5 96.5-97T658 269t-35-145.5-96.5-97T390-8Q287-8 228 57v-251H72v936h156V484q58 62 162 62 75 0 136.5-34.5zm-65-351Q500 201 500 269t-38.5 108.5T363 418t-98.5-40.5T226 269t38.5-108.5T363 120t98.5 40.5z"/><glyph glyph-name="ydieresis" unicode="ÿ" horiz-adv-x="598" d="M606 538 363-33q-37-93-91.5-131T140-202q-42 0-83 13t-67 36L47-42q18-16 41.5-25t46.5-9q32 0 52 15.5T223-9l2 5L-8 538h161l151-365 152 365h150zm-469 93.5Q117 651 117 681t20 49.5 50 19.5 49.5-19.5T256 681t-19.5-49.5T187 612t-50 19.5zm202.5 0Q320 651 320 681t19.5 49.5T389 750t50-19.5 20-49.5-20-49.5-50-19.5-49.5 19.5z"/><glyph glyph-name="Amacron" unicode="Ā" horiz-adv-x="766" d="M544 150H219L157 0H-9l312 700h160L776 0H606zm-51 123L382 541 271 273h222zM198 873h370v-88H198v88z"/><glyph glyph-name="amacron" unicode="ā" horiz-adv-x="617" d="M481 486.5Q548 427 548 307V0H402v67Q358-8 238-8q-62 0-107.5 21T61 71t-24 84q0 75 56.5 118T268 316h124q0 51-31 78.5T268 422q-43 0-84.5-13.5T113 372L57 481q44 31 105.5 48T289 546q125 0 192-59.5zm-133-371q31 18.5 44 54.5v55H285q-96 0-96-63 0-30 23.5-47.5T277 97q40 0 71 18.5zM120 723h370v-88H120v88z"/><glyph glyph-name="Abreve" unicode="Ă" horiz-adv-x="766" d="M544 150H219L157 0H-9l312 700h160L776 0H606zm-51 123L382 541 271 273h222zM253 790q-51 41-54 111h98q1-32 25.5-51.5T383 830t60.5 19.5T469 901h98q-3-70-54-111t-130-41-130 41z"/><glyph glyph-name="abreve" unicode="ă" horiz-adv-x="617" d="M481 486.5Q548 427 548 307V0H402v67Q358-8 238-8q-62 0-107.5 21T61 71t-24 84q0 75 56.5 118T268 316h124q0 51-31 78.5T268 422q-43 0-84.5-13.5T113 372L57 481q44 31 105.5 48T289 546q125 0 192-59.5zm-133-371q31 18.5 44 54.5v55H285q-96 0-96-63 0-30 23.5-47.5T277 97q40 0 71 18.5zM175 640q-51 41-54 111h98q1-32 25.5-51.5T305 680t60.5 19.5T391 751h98q-3-70-54-111t-130-41-130 41z"/><glyph glyph-name="Aogonek" unicode="Ą" horiz-adv-x="766" d="M544 150H219L157 0H-9l312 700h160L776 0H606zm-51 123L382 541 271 273h222zm104-474.5Q560-171 560-120q0 49 38.5 91T714 41l62-41q-63-28-90-53.5T659-107q0-21 15.5-33.5T716-153q34 0 61 15l22-71q-19-10-46-16.5t-55-6.5q-64 0-101 30.5z"/><glyph glyph-name="aogonek" unicode="ą" horiz-adv-x="617" d="M481 486.5Q548 427 548 307V0H402v67Q358-8 238-8q-62 0-107.5 21T61 71t-24 84q0 75 56.5 118T268 316h124q0 51-31 78.5T268 422q-43 0-84.5-13.5T113 372L57 481q44 31 105.5 48T289 546q125 0 192-59.5zm-133-371q31 18.5 44 54.5v55H285q-96 0-96-63 0-30 23.5-47.5T277 97q40 0 71 18.5zm21-317Q332-171 332-120q0 49 38.5 91T486 41l62-41q-63-28-90-53.5T431-107q0-21 15.5-33.5T488-153q34 0 61 15l22-71q-19-10-46-16.5t-55-6.5q-64 0-101 30.5z"/><glyph glyph-name="Cacute" unicode="Ć" horiz-adv-x="733" d="M224.5 34.5Q138 81 88.5 163.5T39 350t49.5 186.5 136 129T419 712q91 0 164.5-32T707 588l-104-96q-71 82-176 82-65 0-116-28.5T231.5 466 203 350t28.5-116 79.5-79.5T427 126q105 0 176 83l104-96q-50-61-124-93T418-12q-107 0-193.5 46.5zM458 901h168L445 757H323z"/><glyph glyph-name="cacute" unicode="ć" horiz-adv-x="591" d="M177.5 27.5Q109 63 70.5 126T32 269t38.5 143 107 98.5T332 546q85 0 148.5-35.5T573 409l-121-65q-42 74-121 74-61 0-101-40t-40-109 40-109 101-40q80 0 121 74l121-66q-29-64-92.5-100T332-8q-86 0-154.5 35.5zM357 751h168L344 607H222z"/><glyph glyph-name="Ccircumflex" unicode="Ĉ" horiz-adv-x="733" d="M224.5 34.5Q138 81 88.5 163.5T39 350t49.5 186.5 136 129T419 712q91 0 164.5-32T707 588l-104-96q-71 82-176 82-65 0-116-28.5T231.5 466 203 350t28.5-116 79.5-79.5T427 126q105 0 176 83l104-96q-50-61-124-93T418-12q-107 0-193.5 46.5zM501 757l-87 76-87-76H213l132 144h138l132-144H501z"/><glyph glyph-name="ccircumflex" unicode="ĉ" horiz-adv-x="591" d="M177.5 27.5Q109 63 70.5 126T32 269t38.5 143 107 98.5T332 546q85 0 148.5-35.5T573 409l-121-65q-42 74-121 74-61 0-101-40t-40-109 40-109 101-40q80 0 121 74l121-66q-29-64-92.5-100T332-8q-86 0-154.5 35.5zM400 607l-87 76-87-76H112l132 144h138l132-144H400z"/><glyph glyph-name="Cdotaccent" unicode="Ċ" horiz-adv-x="733" d="M224.5 34.5Q138 81 88.5 163.5T39 350t49.5 186.5 136 129T419 712q91 0 164.5-32T707 588l-104-96q-71 82-176 82-65 0-116-28.5T231.5 466 203 350t28.5-116 79.5-79.5T427 126q105 0 176 83l104-96q-50-61-124-93T418-12q-107 0-193.5 46.5zm129 751.5Q330 810 330 847q0 36 23.5 60t60.5 24 60.5-24 23.5-60q0-37-23.5-61T414 762t-60.5 24z"/><glyph glyph-name="cdotaccent" unicode="ċ" horiz-adv-x="591" d="M177.5 27.5Q109 63 70.5 126T32 269t38.5 143 107 98.5T332 546q85 0 148.5-35.5T573 409l-121-65q-42 74-121 74-61 0-101-40t-40-109 40-109 101-40q80 0 121 74l121-66q-29-64-92.5-100T332-8q-86 0-154.5 35.5zm75 608.5Q229 660 229 697q0 36 23.5 60t60.5 24 60.5-24 23.5-60q0-37-23.5-61T313 612t-60.5 24z"/><glyph glyph-name="Ccaron" unicode="Č" horiz-adv-x="733" d="M224.5 34.5Q138 81 88.5 163.5T39 350t49.5 186.5 136 129T419 712q91 0 164.5-32T707 588l-104-96q-71 82-176 82-65 0-116-28.5T231.5 466 203 350t28.5-116 79.5-79.5T427 126q105 0 176 83l104-96q-50-61-124-93T418-12q-107 0-193.5 46.5zM615 901 483 757H345L213 901h114l87-75 87 75h114z"/><glyph glyph-name="ccaron" unicode="č" horiz-adv-x="591" d="M177.5 27.5Q109 63 70.5 126T32 269t38.5 143 107 98.5T332 546q85 0 148.5-35.5T573 409l-121-65q-42 74-121 74-61 0-101-40t-40-109 40-109 101-40q80 0 121 74l121-66q-29-64-92.5-100T332-8q-86 0-154.5 35.5zM514 751 382 607H244L112 751h114l87-75 87 75h114z"/><glyph glyph-name="Dcaron" unicode="Ď" horiz-adv-x="826" d="M83 700h318q114 0 201.5-43.5t136-122.5T787 350t-48.5-184-136-122.5T401 0H83v700zm310-567q105 0 167.5 58.5T623 350t-62.5 158.5T393 567H245V133h148zm178 767L439 756H301L169 900h114l87-75 87 75h114z"/><glyph glyph-name="dcaron" unicode="ď" horiz-adv-x="692" d="M620 742V0H471v62Q413-8 303-8q-76 0-137.5 34T69 123 34 269t35 146 96.5 97T303 546q103 0 161-65v261h156zM428 160.5Q467 201 467 269t-39 108.5-98 40.5q-60 0-99-40.5T192 269t39-108.5 99-40.5q59 0 98 40.5zM702 783h117l-20-201h-97v201z"/><glyph glyph-name="Dcroat" unicode="Đ" horiz-adv-x="839" d="M96 700h318q114 0 201.5-43.5t136-122.5T800 350t-48.5-184-136-122.5T414 0H96v700zm310-567q105 0 167.5 58.5T636 350t-62.5 158.5T406 567H258V133h148zM1 410h432V302H1v108z"/><glyph glyph-name="dcroat" unicode="đ" horiz-adv-x="692" d="M620 742V0H471v62Q413-8 303-8q-76 0-137.5 34T69 123 34 269t35 146 96.5 97T303 546q103 0 161-65v261h156zM428 160.5Q467 201 467 269t-39 108.5-98 40.5q-60 0-99-40.5T192 269t39-108.5 99-40.5q59 0 98 40.5zM281 683h412v-90H281v90z"/><glyph glyph-name="Emacron" unicode="Ē" horiz-adv-x="671" d="M625 130V0H83v700h529V570H244V418h325V292H244V130h381zM163 873h370v-88H163v88z"/><glyph glyph-name="emacron" unicode="ē" horiz-adv-x="631" d="M596 225H189q11-50 52-79t102-29q42 0 74.5 12.5T478 169l83-90Q485-8 339-8q-91 0-161 35.5T70 126 32 269q0 79 37.5 142.5t103 99T319 546q79 0 143-34t100.5-97.5T599 267q0-3-3-42zM231 398q-36-30-44-82h265q-8 51-44 81.5T320 428q-53 0-89-30zM131 723h370v-88H131v88z"/><glyph glyph-name="Ebreve" unicode="Ĕ" horiz-adv-x="671" d="M625 130V0H83v700h529V570H244V418h325V292H244V130h381zM218 790q-51 41-54 111h98q1-32 25.5-51.5T348 830t60.5 19.5T434 901h98q-3-70-54-111t-130-41-130 41z"/><glyph glyph-name="ebreve" unicode="ĕ" horiz-adv-x="631" d="M596 225H189q11-50 52-79t102-29q42 0 74.5 12.5T478 169l83-90Q485-8 339-8q-91 0-161 35.5T70 126 32 269q0 79 37.5 142.5t103 99T319 546q79 0 143-34t100.5-97.5T599 267q0-3-3-42zM231 398q-36-30-44-82h265q-8 51-44 81.5T320 428q-53 0-89-30zm-45 242q-51 41-54 111h98q1-32 25.5-51.5T316 680t60.5 19.5T402 751h98q-3-70-54-111t-130-41-130 41z"/><glyph glyph-name="Edotaccent" unicode="Ė" horiz-adv-x="671" d="M625 130V0H83v700h529V570H244V418h325V292H244V130h381zM287.5 786Q264 810 264 847q0 36 23.5 60t60.5 24 60.5-24 23.5-60q0-37-23.5-61T348 762t-60.5 24z"/><glyph glyph-name="edotaccent" unicode="ė" horiz-adv-x="631" d="M596 225H189q11-50 52-79t102-29q42 0 74.5 12.5T478 169l83-90Q485-8 339-8q-91 0-161 35.5T70 126 32 269q0 79 37.5 142.5t103 99T319 546q79 0 143-34t100.5-97.5T599 267q0-3-3-42zM231 398q-36-30-44-82h265q-8 51-44 81.5T320 428q-53 0-89-30zm24.5 238Q232 660 232 697q0 36 23.5 60t60.5 24 60.5-24 23.5-60q0-37-23.5-61T316 612t-60.5 24z"/><glyph glyph-name="Eogonek" unicode="Ę" horiz-adv-x="671" d="M625 130V0H83v700h529V570H244V418h325V292H244V130h381zM446-201.5Q409-171 409-120q0 49 38.5 91T563 41l62-41q-63-28-90-53.5T508-107q0-21 15.5-33.5T565-153q34 0 61 15l22-71q-19-10-46-16.5t-55-6.5q-64 0-101 30.5z"/><glyph glyph-name="eogonek" unicode="ę" horiz-adv-x="631" d="M596 225H189q11-50 52-79t102-29q42 0 74.5 12.5T478 169l84-90q-20-21-41-36-63-46-87-80t-24-65q0-24 15.5-37.5T468-153q32 0 59 15l23-71q-19-10-46.5-16.5T449-232q-64 0-101 31.5T311-116q0 28 12.5 56.5T360-7q-7-1-21-1-91 0-161 35.5T70 126 32 269q0 79 37.5 142.5t103 99T319 546q79 0 143-34t100.5-97.5T599 267q0-3-3-42zM231 398q-36-30-44-82h265q-8 51-44 81.5T320 428q-53 0-89-30z"/><glyph glyph-name="Ecaron" unicode="Ě" horiz-adv-x="671" d="M625 130V0H83v700h529V570H244V418h325V292H244V130h381zm-76 771L417 757H279L147 901h114l87-75 87 75h114z"/><glyph glyph-name="ecaron" unicode="ě" horiz-adv-x="631" d="M596 225H189q11-50 52-79t102-29q42 0 74.5 12.5T478 169l83-90Q485-8 339-8q-91 0-161 35.5T70 126 32 269q0 79 37.5 142.5t103 99T319 546q79 0 143-34t100.5-97.5T599 267q0-3-3-42zM231 398q-36-30-44-82h265q-8 51-44 81.5T320 428q-53 0-89-30zm286 353L385 607H247L115 751h114l87-75 87 75h114z"/><glyph glyph-name="Gcircumflex" unicode="Ĝ" horiz-adv-x="771" d="M556 361h148V77q-57-43-132-66T421-12q-109 0-196 46.5t-136.5 129T39 350t49.5 186.5 137.5 129T424 712q92 0 167-31t126-90l-104-96q-75 79-181 79-67 0-119-28t-81-79-29-117q0-65 29-116t80.5-79.5T430 126q70 0 126 30v205zm-52 396-87 76-87-76H216l132 144h138l132-144H504z"/><glyph glyph-name="gcircumflex" unicode="ĝ" horiz-adv-x="700" d="M627 538V90q0-148-77-220t-225-72q-78 0-148 19T61-128l62 112q34-28 86-44.5T313-77q81 0 119.5 36.5T471 70v23q-61-67-170-67-74 0-135.5 32.5T68 150 32 286t36 136 97.5 91.5T301 546q117 0 178-77v69h148zM433.5 190.5Q473 227 473 286t-39.5 95.5T332 418t-102-36.5-40-95.5 40-95.5T332 154t101.5 36.5zM428 607l-87 76-87-76H140l132 144h138l132-144H428z"/><glyph glyph-name="Gbreve" unicode="Ğ" horiz-adv-x="771" d="M556 361h148V77q-57-43-132-66T421-12q-109 0-196 46.5t-136.5 129T39 350t49.5 186.5 137.5 129T424 712q92 0 167-31t126-90l-104-96q-75 79-181 79-67 0-119-28t-81-79-29-117q0-65 29-116t80.5-79.5T430 126q70 0 126 30v205zM287 790q-51 41-54 111h98q1-32 25.5-51.5T417 830t60.5 19.5T503 901h98q-3-70-54-111t-130-41-130 41z"/><glyph glyph-name="gbreve" unicode="ğ" horiz-adv-x="700" d="M627 538V90q0-148-77-220t-225-72q-78 0-148 19T61-128l62 112q34-28 86-44.5T313-77q81 0 119.5 36.5T471 70v23q-61-67-170-67-74 0-135.5 32.5T68 150 32 286t36 136 97.5 91.5T301 546q117 0 178-77v69h148zM433.5 190.5Q473 227 473 286t-39.5 95.5T332 418t-102-36.5-40-95.5 40-95.5T332 154t101.5 36.5zM211 640q-51 41-54 111h98q1-32 25.5-51.5T341 680t60.5 19.5T427 751h98q-3-70-54-111t-130-41-130 41z"/><glyph glyph-name="Gdotaccent" unicode="Ġ" horiz-adv-x="771" d="M556 361h148V77q-57-43-132-66T421-12q-109 0-196 46.5t-136.5 129T39 350t49.5 186.5 137.5 129T424 712q92 0 167-31t126-90l-104-96q-75 79-181 79-67 0-119-28t-81-79-29-117q0-65 29-116t80.5-79.5T430 126q70 0 126 30v205zM356.5 786Q333 810 333 847q0 36 23.5 60t60.5 24 60.5-24 23.5-60q0-37-23.5-61T417 762t-60.5 24z"/><glyph glyph-name="gdotaccent" unicode="ġ" horiz-adv-x="700" d="M627 538V90q0-148-77-220t-225-72q-78 0-148 19T61-128l62 112q34-28 86-44.5T313-77q81 0 119.5 36.5T471 70v23q-61-67-170-67-74 0-135.5 32.5T68 150 32 286t36 136 97.5 91.5T301 546q117 0 178-77v69h148zM433.5 190.5Q473 227 473 286t-39.5 95.5T332 418t-102-36.5-40-95.5 40-95.5T332 154t101.5 36.5zM280.5 636Q257 660 257 697q0 36 23.5 60t60.5 24 60.5-24 23.5-60q0-37-23.5-61T341 612t-60.5 24z"/><glyph glyph-name="Gcommaaccent" unicode="Ģ" horiz-adv-x="771" d="M556 361h148V77q-57-43-132-66T421-12q-109 0-196 46.5t-136.5 129T39 350t49.5 186.5 137.5 129T424 712q92 0 167-31t126-90l-104-96q-75 79-181 79-67 0-119-28t-81-79-29-117q0-65 29-116t80.5-79.5T430 126q70 0 126 30v205zM457.5-89.5Q476-106 476-133q0-31-18-65l-35-68h-73l25 80q-18 6-27.5 19.5T338-133q0 27 18.5 43.5T407-73t50.5-16.5z"/><glyph glyph-name="gcommaaccent" unicode="ģ" horiz-adv-x="700" d="M627 538V90q0-148-77-220t-225-72q-78 0-148 19T61-128l62 112q34-28 86-44.5T313-77q81 0 119.5 36.5T471 70v23q-61-67-170-67-74 0-135.5 32.5T68 150 32 286t36 136 97.5 91.5T301 546q117 0 178-77v69h148zM433.5 190.5Q473 227 473 286t-39.5 95.5T332 418t-102-36.5-40-95.5 40-95.5T332 154t101.5 36.5zM420 659q0-28-20-44t-59-16-59 16.5-20 43.5q0 25 21 64l45 90h84l-34-101q42-12 42-53z"/><glyph glyph-name="Hcircumflex" unicode="Ĥ" horiz-adv-x="808" d="M725 700V0H563v287H245V0H83v700h162V424h318v276h162zm-234 57-87 76-87-76H203l132 144h138l132-144H491z"/><glyph glyph-name="hcircumflex" unicode="ĥ" horiz-adv-x="691" d="M560.5 486Q622 426 622 308V0H466v284q0 64-28 95.5T357 411q-59 0-94-36.5T228 266V0H72v742h156V482q31 31 75 47.5t96 16.5q100 0 161.5-60zM237 799l-87 76-87-76H-51L81 943h138l132-144H237z"/><glyph glyph-name="Hbar" unicode="Ħ" horiz-adv-x="834" d="M738 700V0H576v287H258V0H96v700h162V424h318v276h162zM1 618h832V510H1v108z"/><glyph glyph-name="hbar" unicode="ħ" horiz-adv-x="691" d="M560.5 486Q622 426 622 308V0H466v284q0 64-28 95.5T357 411q-59 0-94-36.5T228 266V0H72v742h156V482q31 31 75 47.5t96 16.5q100 0 161.5-60zM0 683h412v-90H0v90z"/><glyph glyph-name="Itilde" unicode="Ĩ" horiz-adv-x="328" d="M83 700h162V0H83v700zm108.5 64.5Q171 775 146 793q-16 12-26.5 18T99 817q-21 0-34-14.5T51 761h-79q2 67 33.5 106.5T89 907q26 0 46.5-10.5T182 867q16-12 26.5-18t20.5-6q20 0 33.5 14.5T277 897h79q-2-65-33.5-104T239 754q-27 0-47.5 10.5z"/><glyph glyph-name="itilde" unicode="ĩ" horiz-adv-x="301" d="M72 538h156V0H72v538zm100 77q-19 11-41 31-2 2-10.5 9T106 665.5 94 669q-15 0-23-15t-8-43h-78q0 71 25.5 108.5T84 757q25 0 44-11t41-31q2-2 10.5-9t14.5-10.5 12-3.5q15 0 23 14.5t8 40.5h78q0-69-25.5-106T216 604q-25 0-44 11z"/><glyph glyph-name="Imacron" unicode="Ī" horiz-adv-x="328" d="M83 700h162V0H83v700zM14 873h300v-88H14v88z"/><glyph glyph-name="imacron" unicode="ī" horiz-adv-x="301" d="M72 538h156V0H72v538zM0 723h300v-88H0v88z"/><glyph glyph-name="Ibreve" unicode="Ĭ" horiz-adv-x="328" d="M83 700h162V0H83v700zm-49 90q-51 41-54 111h98q1-32 25.5-51.5T164 830t60.5 19.5T250 901h98q-3-70-54-111t-130-41-130 41z"/><glyph glyph-name="ibreve" unicode="ĭ" horiz-adv-x="301" d="M72 538h156V0H72v538zM36.5 640.5Q-8 682-9 751h94q0-33 17.5-52.5T150 679t47.5 19.5T215 751h94q-1-69-45.5-110.5T150 599 36.5 640.5z"/><glyph glyph-name="Iogonek" unicode="Į" horiz-adv-x="328" d="M83 700h162V0H83v700zm32-901.5Q82-171 82-121q0 47 29 88.5T197 41l48-41q-36-29-50.5-54.5T180-106q0-21 12-34t30-13 32 10l22-68q-29-21-74-21-54 0-87 30.5z"/><glyph glyph-name="iogonek" unicode="į" horiz-adv-x="301" d="M72 538h156V0H72v538zm8 100q-27 25-27 62t27 62 70 25 70-24 27-60q0-39-27-64.5T150 613t-70 25zm18-839.5Q65-171 65-121q0 47 29 88.5T180 41l48-41q-36-29-50.5-54.5T163-106q0-21 12-34t30-13 32 10l22-68q-29-21-74-21-54 0-87 30.5z"/><glyph glyph-name="Idotaccent" unicode="İ" horiz-adv-x="328" d="M83 700h162V0H83v700zm20.5 86Q80 810 80 847q0 36 23.5 60t60.5 24 60.5-24 23.5-60q0-37-23.5-61T164 762t-60.5 24z"/><glyph glyph-name="dotlessi" unicode="ı" horiz-adv-x="301" d="M72 538h156V0H72v538z"/><glyph glyph-name="IJ" unicode="Ĳ" horiz-adv-x="724" d="M181.5 8.5Q113 29 61 65l61 122q46-31 98.5-47T324 124q161 0 161 183v393h162V315q0-105-39.5-178.5T496 25.5 327-12q-77 0-145.5 20.5zM77 700h162V322H77v378z"/><glyph glyph-name="ij" unicode="ĳ" horiz-adv-x="608" d="M72 538h156V0H72v538zm8 100q-27 25-27 62t27 62 70 25 70-24 27-60q0-39-27-64.5T150 613t-70 25zm128-810 42 113q27-19 66-19 30 0 47 19.5T380 0v538h156V1q0-94-53.5-148.5T333-202q-82 0-125 30zm180 810q-27 25-27 62t27 62 70 25 70-24 27-60q0-39-27-64.5T458 613t-70 25z"/><glyph glyph-name="Jcircumflex" unicode="Ĵ" horiz-adv-x="541" d="M81.5 14.5Q22 41-16 90l90 108q57-77 130-77 99 0 99 116v333H57v130h407V246q0-129-64-193.5T212-12q-71 0-130.5 26.5zM348 757l-87 76-87-76H60l132 144h138l132-144H348z"/><glyph glyph-name="jcircumflex" unicode="ĵ" horiz-adv-x="307" d="m-93-172 42 113q27-19 66-19 30 0 47 19.5T79 0v538h156V1q0-94-53.5-148.5T32-202q-82 0-125 30zm315 779-65 70-65-70H-19L90 751h134l109-144H222z"/><glyph glyph-name="Kcommaaccent" unicode="Ķ" horiz-adv-x="740" d="m338 275-94-98V0H83v700h161V373l310 327h180L444 388 751 0H562zm91.5-364.5Q448-106 448-133q0-31-18-65l-35-68h-73l25 80q-18 6-27.5 19.5T310-133q0 27 18.5 43.5T379-73t50.5-16.5z"/><glyph glyph-name="kcommaaccent" unicode="ķ" horiz-adv-x="660" d="m303 211-75-74V0H72v742h156V322l228 216h186L418 310 662 0H473zm65.5-300.5Q387-106 387-133q0-31-18-65l-35-68h-73l25 80q-18 6-27.5 19.5T249-133q0 27 18.5 43.5T318-73t50.5-16.5z"/><glyph glyph-name="kgreenlandic" unicode="ĸ" horiz-adv-x="645" d="m303 211-75-74V0H72v538h156V322l228 216h186L418 310 662 0H473z"/><glyph glyph-name="Lacute" unicode="Ĺ" horiz-adv-x="604" d="M83 700h162V132h351V0H83v700zm125 201h168L195 757H73z"/><glyph glyph-name="lacute" unicode="ĺ" horiz-adv-x="301" d="M72 742h156V0H72v742zm122 213h168L181 811H59z"/><glyph glyph-name="Lcommaaccent" unicode="Ļ" horiz-adv-x="604" d="M83 700h162V132h351V0H83v700zM401.5-89.5Q420-106 420-133q0-31-18-65l-35-68h-73l25 80q-18 6-27.5 19.5T282-133q0 27 18.5 43.5T351-73t50.5-16.5z"/><glyph glyph-name="lcommaaccent" unicode="ļ" horiz-adv-x="301" d="M72 742h156V0H72v742zM200.5-89.5Q219-106 219-133q0-31-18-65l-35-68H93l25 80q-18 6-27.5 19.5T81-133q0 27 18.5 43.5T150-73t50.5-16.5z"/><glyph glyph-name="Lcaron" unicode="Ľ" horiz-adv-x="604" d="M83 700h162V132h351V0H83v700zm348 41h117l-20-201h-97v201z"/><glyph glyph-name="lcaron" unicode="ľ" horiz-adv-x="301" d="M72 742h156V0H72v742zm236 41h117l-20-201h-97v201z"/><glyph glyph-name="Ldot" unicode="Ŀ" horiz-adv-x="604" d="M83 700h162V132h351V0H83v700zm323-346.5Q382 378 382 416t24 62.5 61 24.5 61-24.5 24-62.5-24-62.5-61-24.5-61 24.5z"/><glyph glyph-name="ldot" unicode="ŀ" horiz-adv-x="420" d="M72 742h156V0H72v742zm232-435.5Q282 329 282 363t22 56 56 22 56.5-22 22.5-56-22.5-56.5T360 284t-56 22.5z"/><glyph glyph-name="Lslash" unicode="Ł" horiz-adv-x="617" d="M96 700h162V132h351V0H96v700zM-14 304l376 282 58-78L44 226z"/><glyph glyph-name="lslash" unicode="ł" horiz-adv-x="327" d="M85 742h156V0H85v742zM-28 281l324 244 57-80L30 203z"/><glyph glyph-name="Nacute" unicode="Ń" horiz-adv-x="808" d="M725 700V0H592L243 425V0H83v700h134l348-425v425h160zM448 901h168L435 757H313z"/><glyph glyph-name="nacute" unicode="ń" horiz-adv-x="691" d="M560.5 486Q622 426 622 308V0H466v284q0 64-28 95.5T357 411q-59 0-94-36.5T228 266V0H72v538h149v-63q31 34 77 52.5T399 546q100 0 161.5-60zM392 751h168L379 607H257z"/><glyph glyph-name="Ncommaaccent" unicode="Ņ" horiz-adv-x="808" d="M725 700V0H592L243 425V0H83v700h134l348-425v425h160zM454.5-89.5Q473-106 473-133q0-31-18-65l-35-68h-73l25 80q-18 6-27.5 19.5T335-133q0 27 18.5 43.5T404-73t50.5-16.5z"/><glyph glyph-name="ncommaaccent" unicode="ņ" horiz-adv-x="691" d="M560.5 486Q622 426 622 308V0H466v284q0 64-28 95.5T357 411q-59 0-94-36.5T228 266V0H72v538h149v-63q31 34 77 52.5T399 546q100 0 161.5-60zm-162-575.5Q417-106 417-133q0-31-18-65l-35-68h-73l25 80q-18 6-27.5 19.5T279-133q0 27 18.5 43.5T348-73t50.5-16.5z"/><glyph glyph-name="Ncaron" unicode="Ň" horiz-adv-x="808" d="M725 700V0H592L243 425V0H83v700h134l348-425v425h160zM605 901 473 757H335L203 901h114l87-75 87 75h114z"/><glyph glyph-name="ncaron" unicode="ň" horiz-adv-x="691" d="M560.5 486Q622 426 622 308V0H466v284q0 64-28 95.5T357 411q-59 0-94-36.5T228 266V0H72v538h149v-63q31 34 77 52.5T399 546q100 0 161.5-60zM549 751 417 607H279L147 751h114l87-75 87 75h114z"/><glyph glyph-name="napostrophe" unicode="ŉ" horiz-adv-x="820" d="M43 700h102l-22-262H41zm647.5-214Q752 426 752 308V0H596v284q0 64-28 95.5T487 411q-59 0-94-36.5T358 266V0H202v538h149v-63q31 34 77 52.5T529 546q100 0 161.5-60z"/><glyph glyph-name="Eng" unicode="Ŋ" horiz-adv-x="808" d="M725 700V71q0-139-62.5-206T476-202q-55 0-103 16.5T289-136l76 113q43-46 103-46 91 0 97 102L243 425V0H83v700h134l348-425v425h160z"/><glyph glyph-name="eng" unicode="ŋ" horiz-adv-x="691" d="M560.5 486Q622 426 622 308V1q0-94-53-148.5T420-202q-82 0-126 30l42 113q27-19 66-19 31 0 47.5 19.5T466 0v284q0 64-28 95.5T357 411q-59 0-94-36.5T228 266V0H72v538h149v-63q31 34 77 52.5T399 546q100 0 161.5-60z"/><glyph glyph-name="Omacron" unicode="Ō" horiz-adv-x="844" d="M225.5 35Q138 82 88.5 164.5T39 350t49.5 185.5 137 129.5T422 712t196-47 137-129.5T805 350t-50-185.5T618 35 422-12 225.5 35zM534 154.5q50 28.5 78.5 79.5T641 350t-28.5 116-78.5 79.5T422 574t-112-28.5-78.5-79.5T203 350t28.5-116 78.5-79.5T422 126t112 28.5zM237 873h370v-88H237v88z"/><glyph glyph-name="omacron" unicode="ō" horiz-adv-x="655" d="M175.5 27.5Q108 63 70 126T32 269t38 143 105.5 98.5T328 546t152-35.5T585 412t38-143-38-143-105-98.5T328-8 175.5 27.5zm251 133Q465 201 465 269t-38.5 108.5T328 418t-99-40.5T190 269t39-108.5 99-40.5 98.5 40.5zM141 723h370v-88H141v88z"/><glyph glyph-name="Obreve" unicode="Ŏ" horiz-adv-x="844" d="M225.5 35Q138 82 88.5 164.5T39 350t49.5 185.5 137 129.5T422 712t196-47 137-129.5T805 350t-50-185.5T618 35 422-12 225.5 35zM534 154.5q50 28.5 78.5 79.5T641 350t-28.5 116-78.5 79.5T422 574t-112-28.5-78.5-79.5T203 350t28.5-116 78.5-79.5T422 126t112 28.5zM292 790q-51 41-54 111h98q1-32 25.5-51.5T422 830t60.5 19.5T508 901h98q-3-70-54-111t-130-41-130 41z"/><glyph glyph-name="obreve" unicode="ŏ" horiz-adv-x="655" d="M175.5 27.5Q108 63 70 126T32 269t38 143 105.5 98.5T328 546t152-35.5T585 412t38-143-38-143-105-98.5T328-8 175.5 27.5zm251 133Q465 201 465 269t-38.5 108.5T328 418t-99-40.5T190 269t39-108.5 99-40.5 98.5 40.5zM196 640q-51 41-54 111h98q1-32 25.5-51.5T326 680t60.5 19.5T412 751h98q-3-70-54-111t-130-41-130 41z"/><glyph glyph-name="Ohungarumlaut" unicode="Ő" horiz-adv-x="844" d="M225.5 35Q138 82 88.5 164.5T39 350t49.5 185.5 137 129.5T422 712t196-47 137-129.5T805 350t-50-185.5T618 35 422-12 225.5 35zM534 154.5q50 28.5 78.5 79.5T641 350t-28.5 116-78.5 79.5T422 574t-112-28.5-78.5-79.5T203 350t28.5-116 78.5-79.5T422 126t112 28.5zM336 901h146L378 757H264zm202 0h146L580 757H466z"/><glyph glyph-name="ohungarumlaut" unicode="ő" horiz-adv-x="655" d="M175.5 27.5Q108 63 70 126T32 269t38 143 105.5 98.5T328 546t152-35.5T585 412t38-143-38-143-105-98.5T328-8 175.5 27.5zm251 133Q465 201 465 269t-38.5 108.5T328 418t-99-40.5T190 269t39-108.5 99-40.5 98.5 40.5zM240 751h146L282 607H168zm202 0h146L484 607H370z"/><glyph glyph-name="OE" unicode="Œ" horiz-adv-x="1136" d="M1090 130V0H425Q311 0 223.5 43.5T87.5 166 39 349q0 105 48.5 184.5t136 123T425 700h652V570H709V418h325V292H709V130h381zm-542 3v434H433q-105 0-167.5-58.5T203 349q0-99 62.5-157.5T433 133h115z"/><glyph glyph-name="oe" unicode="œ" horiz-adv-x="1064" d="M1029 225H621q11-51 52-79.5T776 117q40 0 72.5 13t61.5 39l84-90q-38-43-95-65T771-8q-74 0-132.5 24.5T542 85q-38-44-93-68.5T326-8q-84 0-151 35.5T70 126 32 269t38 143 105 98.5T326 546q68 0 123.5-24t91.5-68q36 44 90.5 68T752 546q79 0 142.5-34T995 415t37-147q0-23-3-43zM663 398q-36-30-44-82h264q-8 51-43 81.5T752 428t-89-30zM426.5 160.5Q465 201 465 269t-38.5 108.5T328 418t-99-40.5T190 269t39-108.5 99-40.5 98.5 40.5z"/><glyph glyph-name="Racute" unicode="Ŕ" horiz-adv-x="735" d="M529 0 394 195H245V0H83v700h303q93 0 161.5-31T653 581t37-135-37.5-134.5T546 225L703 0H529zm-41 536.5Q450 568 377 568H245V324h132q73 0 111 32t38 90q0 59-38 90.5zM419 901h168L406 757H284z"/><glyph glyph-name="racute" unicode="ŕ" horiz-adv-x="431" d="M296.5 526Q344 546 406 546V402q-26 2-35 2-67 0-105-37.5T228 254V0H72v538h149v-71q28 39 75.5 59zM283 751h168L270 607H148z"/><glyph glyph-name="Rcommaaccent" unicode="Ŗ" horiz-adv-x="735" d="M529 0 394 195H245V0H83v700h303q93 0 161.5-31T653 581t37-135-37.5-134.5T546 225L703 0H529zm-41 536.5Q450 568 377 568H245V324h132q73 0 111 32t38 90q0 59-38 90.5zm-62.5-626Q444-106 444-133q0-31-18-65l-35-68h-73l25 80q-18 6-27.5 19.5T306-133q0 27 18.5 43.5T375-73t50.5-16.5z"/><glyph glyph-name="rcommaaccent" unicode="ŗ" horiz-adv-x="431" d="M296.5 526Q344 546 406 546V402q-26 2-35 2-67 0-105-37.5T228 254V0H72v538h149v-71q28 39 75.5 59zm-96-615.5Q219-106 219-133q0-31-18-65l-35-68H93l25 80q-18 6-27.5 19.5T81-133q0 27 18.5 43.5T150-73t50.5-16.5z"/><glyph glyph-name="Rcaron" unicode="Ř" horiz-adv-x="735" d="M529 0 394 195H245V0H83v700h303q93 0 161.5-31T653 581t37-135-37.5-134.5T546 225L703 0H529zm-41 536.5Q450 568 377 568H245V324h132q73 0 111 32t38 90q0 59-38 90.5zM576 901 444 757H306L174 901h114l87-75 87 75h114z"/><glyph glyph-name="rcaron" unicode="ř" horiz-adv-x="431" d="M296.5 526Q344 546 406 546V402q-26 2-35 2-67 0-105-37.5T228 254V0H72v538h149v-71q28 39 75.5 59zM440 751 308 607H170L38 751h114l87-75 87 75h114z"/><glyph glyph-name="Sacute" unicode="Ś" horiz-adv-x="638" d="M152.5 10.5Q75 33 28 69l55 122q45-33 107-53t124-20q69 0 102 20.5t33 54.5q0 25-19.5 41.5t-50 26.5-82.5 22q-80 19-131 38t-87.5 61T42 494q0 61 33 110.5t99.5 78.5T337 712q67 0 131-16t112-46l-50-123q-97 55-194 55-68 0-100.5-22T203 502t37.5-53.5T355 414q80-19 131-38t87.5-60T610 205q0-60-33.5-109.5T476 17 313-12q-83 0-160.5 22.5zM369 901h168L356 757H234z"/><glyph glyph-name="sacute" unicode="ś" horiz-adv-x="531" d="M122 8.5Q58 25 20 50l52 112q36-23 87-37.5T259 110q99 0 99 49 0 23-27 33t-83 17q-66 10-109 23t-74.5 46T33 372q0 51 29.5 90.5t86 61.5T282 546q57 0 113.5-12.5T489 499l-52-111q-71 40-155 40-50 0-75-14t-25-36q0-25 27-35t86-19q66-11 108-23.5t73-45.5 31-92q0-50-30-89t-87.5-60.5T253-8Q186-8 122 8.5zM305 751h168L292 607H170z"/><glyph glyph-name="Scircumflex" unicode="Ŝ" horiz-adv-x="638" d="M152.5 10.5Q75 33 28 69l55 122q45-33 107-53t124-20q69 0 102 20.5t33 54.5q0 25-19.5 41.5t-50 26.5-82.5 22q-80 19-131 38t-87.5 61T42 494q0 61 33 110.5t99.5 78.5T337 712q67 0 131-16t112-46l-50-123q-97 55-194 55-68 0-100.5-22T203 502t37.5-53.5T355 414q80-19 131-38t87.5-60T610 205q0-60-33.5-109.5T476 17 313-12q-83 0-160.5 22.5zM412 757l-87 76-87-76H124l132 144h138l132-144H412z"/><glyph glyph-name="scircumflex" unicode="ŝ" horiz-adv-x="531" d="M122 8.5Q58 25 20 50l52 112q36-23 87-37.5T259 110q99 0 99 49 0 23-27 33t-83 17q-66 10-109 23t-74.5 46T33 372q0 51 29.5 90.5t86 61.5T282 546q57 0 113.5-12.5T489 499l-52-111q-71 40-155 40-50 0-75-14t-25-36q0-25 27-35t86-19q66-11 108-23.5t73-45.5 31-92q0-50-30-89t-87.5-60.5T253-8Q186-8 122 8.5zM348 607l-87 76-87-76H60l132 144h138l132-144H348z"/><glyph glyph-name="Scedilla" unicode="Ş" horiz-adv-x="638" d="M152.5 10.5Q75 33 28 69l55 122q45-33 107-53t124-20q69 0 102 20.5t33 54.5q0 25-19.5 41.5t-50 26.5-82.5 22q-80 19-131 38t-87.5 61T42 494q0 61 33 110.5t99.5 78.5T337 712q67 0 131-16t112-46l-50-123q-97 55-194 55-68 0-100.5-22T203 502t37.5-53.5T355 414q80-19 131-38t87.5-60T610 205q0-60-33.5-109.5T476 17 313-12q-83 0-160.5 22.5zm88.5-237q-25 5.5-42 15.5l24 67q32-15 65-15 52 0 52 32 0 29-49 29h-34L283 8h83l-14-58q44-5 65.5-27.5T439-133q0-46-40-72.5T292-232q-26 0-51 5.5z"/><glyph glyph-name="scedilla" unicode="ş" horiz-adv-x="531" d="M122 8.5Q58 25 20 50l52 112q36-23 87-37.5T259 110q99 0 99 49 0 23-27 33t-83 17q-66 10-109 23t-74.5 46T33 372q0 51 29.5 90.5t86 61.5T282 546q57 0 113.5-12.5T489 499l-52-111q-71 40-155 40-50 0-75-14t-25-36q0-25 27-35t86-19q66-11 108-23.5t73-45.5 31-92q0-50-30-89t-87.5-60.5T253-8Q186-8 122 8.5zm55-235q-25 5.5-42 15.5l24 67q32-15 65-15 52 0 52 32 0 29-49 29h-34L219 8h83l-14-58q44-5 65.5-27.5T375-133q0-46-40-72.5T228-232q-26 0-51 5.5z"/><glyph glyph-name="Scaron" unicode="Š" horiz-adv-x="638" d="M152.5 10.5Q75 33 28 69l55 122q45-33 107-53t124-20q69 0 102 20.5t33 54.5q0 25-19.5 41.5t-50 26.5-82.5 22q-80 19-131 38t-87.5 61T42 494q0 61 33 110.5t99.5 78.5T337 712q67 0 131-16t112-46l-50-123q-97 55-194 55-68 0-100.5-22T203 502t37.5-53.5T355 414q80-19 131-38t87.5-60T610 205q0-60-33.5-109.5T476 17 313-12q-83 0-160.5 22.5zM526 901 394 757H256L124 901h114l87-75 87 75h114z"/><glyph glyph-name="scaron" unicode="š" horiz-adv-x="531" d="M122 8.5Q58 25 20 50l52 112q36-23 87-37.5T259 110q99 0 99 49 0 23-27 33t-83 17q-66 10-109 23t-74.5 46T33 372q0 51 29.5 90.5t86 61.5T282 546q57 0 113.5-12.5T489 499l-52-111q-71 40-155 40-50 0-75-14t-25-36q0-25 27-35t86-19q66-11 108-23.5t73-45.5 31-92q0-50-30-89t-87.5-60.5T253-8Q186-8 122 8.5zM462 751 330 607H192L60 751h114l87-75 87 75h114z"/><glyph glyph-name="uni0162" unicode="Ţ" horiz-adv-x="618" d="M228 568H4v132h610V568H390V0H228v568zm-3-794.5q-25 5.5-42 15.5l24 67q32-15 65-15 52 0 52 32 0 29-49 29h-34L267 8h83l-14-58q44-5 65.5-27.5T423-133q0-46-40-72.5T276-232q-26 0-51 5.5z"/><glyph glyph-name="uni0163" unicode="ţ" horiz-adv-x="435" d="M419 26Q396 9 362.5.5T292-8q-96 0-148.5 49T91 185v221H8v120h83v131h156V526h134V406H247V187q0-34 17.5-52.5T314 116q37 0 63 20zM179-226.5q-25 5.5-42 15.5l24 67q32-15 65-15 52 0 52 32 0 29-49 29h-34L221 8h83l-14-58q44-5 65.5-27.5T377-133q0-46-40-72.5T230-232q-26 0-51 5.5z"/><glyph glyph-name="Tcaron" unicode="Ť" horiz-adv-x="618" d="M228 568H4v132h610V568H390V0H228v568zm282 333L378 757H240L108 901h114l87-75 87 75h114z"/><glyph glyph-name="tcaron" unicode="ť" horiz-adv-x="435" d="M419 26Q396 9 362.5.5T292-8q-96 0-148.5 49T91 185v221H8v120h83v131h156V526h134V406H247V187q0-34 17.5-52.5T314 116q37 0 63 20zM315 768h111l-16-186h-95v186z"/><glyph glyph-name="Tbar" unicode="Ŧ" horiz-adv-x="618" d="M228 568H4v132h610V568H390V0H228v568zM93 382h432V274H93v108z"/><glyph glyph-name="tbar" unicode="ŧ" horiz-adv-x="445" d="M424 26Q401 9 367.5.5T297-8q-96 0-148.5 49T96 185v221H13v120h83v131h156V526h134V406H252V187q0-34 17.5-52.5T319 116q37 0 63 20zM25 320h349v-90H25v90z"/><glyph glyph-name="Utilde" unicode="Ũ" horiz-adv-x="788" d="M160.5 71Q77 154 77 308v392h162V314q0-188 156-188 76 0 116 45.5T551 314v386h160V308q0-154-83.5-237T394-12 160.5 71zm262 693.5Q402 775 377 793q-16 12-26.5 18t-20.5 6q-21 0-34-14.5T282 761h-79q2 67 33.5 106.5T320 907q26 0 46.5-10.5T413 867q16-12 26.5-18t20.5-6q20 0 33.5 14.5T508 897h79q-2-65-33.5-104T470 754q-27 0-47.5 10.5z"/><glyph glyph-name="utilde" unicode="ũ" horiz-adv-x="687" d="M614 538V0H466v64q-31-35-74-53.5T299-8Q193-8 131 53T69 234v304h156V257q0-130 109-130 56 0 90 36.5T458 272v266h156zm-245.5 76.5Q348 625 323 643q-16 12-26.5 18t-20.5 6q-21 0-34-14.5T228 611h-79q2 67 33.5 106.5T266 757q26 0 46.5-10.5T359 717q16-12 26.5-18t20.5-6q20 0 33.5 14.5T454 747h79q-2-65-33.5-104T416 604q-27 0-47.5 10.5z"/><glyph glyph-name="Umacron" unicode="Ū" horiz-adv-x="788" d="M160.5 71Q77 154 77 308v392h162V314q0-188 156-188 76 0 116 45.5T551 314v386h160V308q0-154-83.5-237T394-12 160.5 71zM210 873h370v-88H210v88z"/><glyph glyph-name="umacron" unicode="ū" horiz-adv-x="687" d="M614 538V0H466v64q-31-35-74-53.5T299-8Q193-8 131 53T69 234v304h156V257q0-130 109-130 56 0 90 36.5T458 272v266h156zM156 723h370v-88H156v88z"/><glyph glyph-name="Ubreve" unicode="Ŭ" horiz-adv-x="788" d="M160.5 71Q77 154 77 308v392h162V314q0-188 156-188 76 0 116 45.5T551 314v386h160V308q0-154-83.5-237T394-12 160.5 71zM265 790q-51 41-54 111h98q1-32 25.5-51.5T395 830t60.5 19.5T481 901h98q-3-70-54-111t-130-41-130 41z"/><glyph glyph-name="ubreve" unicode="ŭ" horiz-adv-x="687" d="M614 538V0H466v64q-31-35-74-53.5T299-8Q193-8 131 53T69 234v304h156V257q0-130 109-130 56 0 90 36.5T458 272v266h156zM211 640q-51 41-54 111h98q1-32 25.5-51.5T341 680t60.5 19.5T427 751h98q-3-70-54-111t-130-41-130 41z"/><glyph glyph-name="Uring" unicode="Ů" horiz-adv-x="788" d="M160.5 71Q77 154 77 308v392h162V314q0-188 156-188 76 0 116 45.5T551 314v386h160V308q0-154-83.5-237T394-12 160.5 71zm146 718Q271 824 271 875t35.5 86 87.5 35q53 0 89-35t36-86-36-86-89-35q-52 0-87.5 35zm131 42.5Q455 849 455 875t-17.5 43.5T394 936q-25 0-42.5-17.5T334 875t17-43.5 43-17.5 43.5 17.5z"/><glyph glyph-name="uring" unicode="ů" horiz-adv-x="687" d="M614 538V0H466v64q-31-35-74-53.5T299-8Q193-8 131 53T69 234v304h156V257q0-130 109-130 56 0 90 36.5T458 272v266h156zm-361.5 89Q217 662 217 713t35.5 86 87.5 35q53 0 89-35t36-86-36-86-89-35q-52 0-87.5 35zm131 42.5Q401 687 401 713t-17.5 43.5T340 774q-25 0-42.5-17.5T280 713t17-43.5 43-17.5 43.5 17.5z"/><glyph glyph-name="Uhungarumlaut" unicode="Ű" horiz-adv-x="788" d="M160.5 71Q77 154 77 308v392h162V314q0-188 156-188 76 0 116 45.5T551 314v386h160V308q0-154-83.5-237T394-12 160.5 71zM309 901h146L351 757H237zm202 0h146L553 757H439z"/><glyph glyph-name="uhungarumlaut" unicode="ű" horiz-adv-x="687" d="M614 538V0H466v64q-31-35-74-53.5T299-8Q193-8 131 53T69 234v304h156V257q0-130 109-130 56 0 90 36.5T458 272v266h156zM255 751h146L297 607H183zm202 0h146L499 607H385z"/><glyph glyph-name="Uogonek" unicode="Ų" horiz-adv-x="788" d="M711 700V308q0-119-49-193T524 8q-78-29-109-57.5T384-107q0-21 15-33.5t42-12.5q35 0 60 15l23-71q-19-10-46-16.5t-55-6.5q-64 0-101 30.5T285-120q0 62 59 111Q217 4 147 86T77 308v392h162V314q0-188 156-188 76 0 116 45.5T551 314v386h160z"/><glyph glyph-name="uogonek" unicode="ų" horiz-adv-x="687" d="M614 538V0H466v64q-31-35-74-53.5T299-8Q193-8 131 53T69 234v304h156V257q0-130 109-130 56 0 90 36.5T458 272v266h156zM435-201.5Q398-171 398-120q0 49 38.5 91T552 41l62-41q-63-28-90-53.5T497-107q0-21 15.5-33.5T554-153q34 0 61 15l22-71q-19-10-46-16.5t-55-6.5q-64 0-101 30.5z"/><glyph glyph-name="Wcircumflex" unicode="Ŵ" horiz-adv-x="1163" d="M1141 700 912 0H738L584 474 425 0H252L22 700h168l158-492 165 492h150l160-496 163 496h155zm-472 57-87 76-87-76H381l132 144h138l132-144H669z"/><glyph glyph-name="wcircumflex" unicode="ŵ" horiz-adv-x="937" d="M936 538 741 0H591L470 334 345 0H195L1 538h147l127-364 132 364h132l128-364 131 364h138zm-382 68-87 76-87-76H266l132 144h138l132-144H554z"/><glyph glyph-name="Ycircumflex" unicode="Ŷ" horiz-adv-x="676" d="M419 248V0H257v250L-14 700h172l187-311 187 311h159zm6 509-87 76-87-76H137l132 144h138l132-144H425z"/><glyph glyph-name="ycircumflex" unicode="ŷ" horiz-adv-x="598" d="M606 538 363-33q-37-93-91.5-131T140-202q-42 0-83 13t-67 36L47-42q18-16 41.5-25t46.5-9q32 0 52 15.5T223-9l2 5L-8 538h161l151-365 152 365h150zm-231 69-87 76-87-76H87l132 144h138l132-144H375z"/><glyph glyph-name="Ydieresis" unicode="Ÿ" horiz-adv-x="676" d="M419 248V0H257v250L-14 700h172l187-311 187 311h159zM187 781.5Q167 801 167 831t20 49.5 50 19.5 49.5-19.5T306 831t-19.5-49.5T237 762t-50 19.5zm202.5 0Q370 801 370 831t19.5 49.5T439 900t50-19.5 20-49.5-20-49.5-50-19.5-49.5 19.5z"/><glyph glyph-name="Zacute" unicode="Ź" horiz-adv-x="671" d="M650 132V0H38v105l384 463H46v132h589V595L252 132h398zM388 901h168L375 757H253z"/><glyph glyph-name="zacute" unicode="ź" horiz-adv-x="543" d="M515 120V0H35v94l274 324H42v120h464v-94L232 120h283zM319 751h168L306 607H184z"/><glyph glyph-name="Zdotaccent" unicode="Ż" horiz-adv-x="671" d="M650 132V0H38v105l384 463H46v132h589V595L252 132h398zM283.5 786Q260 810 260 847q0 36 23.5 60t60.5 24 60.5-24 23.5-60q0-37-23.5-61T344 762t-60.5 24z"/><glyph glyph-name="zdotaccent" unicode="ż" horiz-adv-x="543" d="M515 120V0H35v94l274 324H42v120h464v-94L232 120h283zM214.5 636Q191 660 191 697q0 36 23.5 60t60.5 24 60.5-24 23.5-60q0-37-23.5-61T275 612t-60.5 24z"/><glyph glyph-name="Zcaron" unicode="Ž" horiz-adv-x="671" d="M650 132V0H38v105l384 463H46v132h589V595L252 132h398zM545 901 413 757H275L143 901h114l87-75 87 75h114z"/><glyph glyph-name="zcaron" unicode="ž" horiz-adv-x="543" d="M515 120V0H35v94l274 324H42v120h464v-94L232 120h283zm-39 631L344 607H206L74 751h114l87-75 87 75h114z"/><glyph glyph-name="longs" unicode="ſ" horiz-adv-x="333" d="M376.5 742.5Q408 735 429 721l-41-113q-27 19-63 19-67 0-67-78V0H102v406H19v120h83v24q0 92 55 146t153 54q35 0 66.5-7.5z"/><glyph glyph-name="uni018F" unicode="Ə" horiz-adv-x="817" d="M594 665.5q87-46.5 135.5-129T778 351q0-104-48-187T598 34.5 409-12q-106 0-190.5 47t-132 131T39 357v34h573q-8 53-38 94.5t-76 65T397 574q-56 0-111-21.5T194 492L97 597q51 52 131 83.5T398 712q109 0 196-46.5zM543.5 161Q596 205 610 281H207q14-77 67-120.5T409 117t134.5 44z"/><glyph glyph-name="florin" unicode="ƒ" horiz-adv-x="481" d="M342.5 606.5Q321 587 316 548l-4-31h138l-14-120H303L253-2q-11-92-70-146T30-202q-38 0-70 7.5T-93-172l53 113q25-19 62-19 31 0 51 19.5T97 0l50 397H63l15 120h84l4 33q11 92 70.5 146T393 750q34 0 67-8t53-22l-54-113q-29 19-61 19-34 0-55.5-19.5z"/><glyph glyph-name="Ohorn" unicode="Ơ" horiz-adv-x="844" d="M773.5 498.5Q805 430 805 350q0-103-50-185.5T618 35 422-12 225.5 35t-137 129.5T39 350t50 185.5T228 665t201 47q44 0 110-8 52-6 73-6 39 0 60.5 17t21.5 49q0 31-20 60l92 34q32-45 32-100t-29-92-82-52q55-47 86.5-115.5zM534 154.5q50 28.5 78.5 79.5T641 350t-28.5 116-78.5 79.5T422 574t-112-28.5-78.5-79.5T203 350t28.5-116 78.5-79.5T422 126t112 28.5z"/><glyph glyph-name="ohorn" unicode="ơ" horiz-adv-x="655" d="M601.5 379.5Q623 329 623 269q0-80-38-143T480 27.5 328-8 175.5 27.5 70 126 32 269t38.5 143 106 98.5T329 546q20 0 70-5 34-4 49-4 31 0 47.5 18t16.5 47q0 32-21 60l91 34q34-46 34-100 0-43-20-76.5T540 467q40-37 61.5-87.5zM426 160.5Q465 201 465 269t-38.5 108.5T328 418t-99-40.5T190 269t39-108.5 99-40.5q59 0 98 40.5z"/><glyph glyph-name="Uhorn" unicode="Ư" horiz-adv-x="801" d="M160.5 71Q77 154 77 308v392h162V314q0-188 156-188 76 0 116 45.5T551 314v386h160V308q0-154-83.5-237T394-12 160.5 71zM628 700h27q27 0 43.5 17.5T715 763q0 35-20 60l92 34q32-42 32-100 0-75-44.5-118T651 596h-23v104z"/><glyph glyph-name="uhorn" unicode="ư" horiz-adv-x="701" d="M614 538V0H466v64q-31-35-74-53.5T299-8Q193-8 131 53T69 234v304h156V257q0-130 109-130 56 0 90 36.5T458 272v266h156zm-100 0h27q27 0 43.5 17.5T601 601q0 35-20 60l92 34q32-42 32-100 0-75-44.5-118T537 434h-23v104z"/><glyph glyph-name="uni01B7" unicode="Ʒ" horiz-adv-x="638" d="M548 348q53-53 53-133 0-62-33-113.5T467 19 299-12q-78 0-152 19.5T25 62l55 125q42-31 98.5-48T294 122q67 0 105 24.5t38 67.5q0 42-35 65t-107 23h-75v105l156 164H54v129h511V595L395 416q100-15 153-68z"/><glyph glyph-name="uni01C4" unicode="Ǆ" horiz-adv-x="1449" d="M83 700h318q114 0 201.5-43.5t136-122.5T787 350t-48.5-184-136-122.5T401 0H83v700zm310-567q105 0 167.5 58.5T623 350t-62.5 158.5T393 567H245V133h148zm1034-1V0H815v105l384 463H823v132h589V595l-383-463h398zm-105 769-132-144h-138L920 901h114l87-75 87 75h114z"/><glyph glyph-name="uni01C5" unicode="ǅ" horiz-adv-x="1369" d="M83 700h318q114 0 201.5-43.5t136-122.5T787 350t-48.5-184-136-122.5T401 0H83v700zm310-567q105 0 167.5 58.5T623 350t-62.5 158.5T393 567H245V133h148zm948-13V0H861v94l274 324H868v120h464v-94l-274-324h283zm-39 631-132-144h-138L900 751h114l87-75 87 75h114z"/><glyph glyph-name="uni01C6" unicode="ǆ" horiz-adv-x="1233" d="M620 742V0H471v62Q413-8 303-8q-76 0-137.5 34T69 123 34 269t35 146 96.5 97T303 546q103 0 161-65v261h156zM428 160.5Q467 201 467 269t-39 108.5-98 40.5q-60 0-99-40.5T192 269t39-108.5 99-40.5q59 0 98 40.5zm771-40.5V0H719v94l274 324H726v120h464v-94L916 120h283zm-39 631-132-144H890L758 751h114l87-75 87 75h114z"/><glyph glyph-name="uni01C7" unicode="Ǉ" horiz-adv-x="1145" d="M83 700h162V132h351V0H83v700zM685.5 14.5Q626 41 588 90l90 108q57-77 130-77 99 0 99 116v333H661v130h407V246q0-129-64-193.5T816-12q-71 0-130.5 26.5z"/><glyph glyph-name="uni01C8" unicode="ǈ" horiz-adv-x="911" d="M83 700h162V132h351V0H83v700zm428-872 42 113q27-19 66-19 30 0 47 19.5T683 0v538h156V1q0-94-53.5-148.5T636-202q-82 0-125 30zm180 810q-27 25-27 62t27 62 70 25 70-24 27-60q0-39-27-64.5T761 613t-70 25z"/><glyph glyph-name="uni01C9" unicode="ǉ" horiz-adv-x="608" d="M72 742h156V0H72v742zm136-914 42 113q27-19 66-19 30 0 47 19.5T380 0v538h156V1q0-94-53.5-148.5T333-202q-82 0-125 30zm180 810q-27 25-27 62t27 62 70 25 70-24 27-60q0-39-27-64.5T458 613t-70 25z"/><glyph glyph-name="uni01CA" unicode="Ǌ" horiz-adv-x="1349" d="M725 700V0H592L243 425V0H83v700h134l348-425v425h160zM889.5 14.5Q830 41 792 90l90 108q57-77 130-77 99 0 99 116v333H865v130h407V246q0-129-64-193.5T1020-12q-71 0-130.5 26.5z"/><glyph glyph-name="uni01CB" unicode="ǋ" horiz-adv-x="1115" d="M725 700V0H592L243 425V0H83v700h134l348-425v425h160zm-10-872 42 113q27-19 66-19 30 0 47 19.5T887 0v538h156V1q0-94-53.5-148.5T840-202q-82 0-125 30zm180 810q-27 25-27 62t27 62 70 25 70-24 27-60q0-39-27-64.5T965 613t-70 25z"/><glyph glyph-name="uni01CC" unicode="ǌ" horiz-adv-x="998" d="M560.5 486Q622 426 622 308V0H466v284q0 64-28 95.5T357 411q-59 0-94-36.5T228 266V0H72v538h149v-63q31 34 77 52.5T399 546q100 0 161.5-60zM598-172l42 113q27-19 66-19 30 0 47 19.5T770 0v538h156V1q0-94-53.5-148.5T723-202q-82 0-125 30zm180 810q-27 25-27 62t27 62 70 25 70-24 27-60q0-39-27-64.5T848 613t-70 25z"/><glyph glyph-name="uni01CD" unicode="Ǎ" horiz-adv-x="766" d="M544 150H219L157 0H-9l312 700h160L776 0H606zm-51 123L382 541 271 273h222zm91 628L452 757H314L182 901h114l87-75 87 75h114z"/><glyph glyph-name="uni01CE" unicode="ǎ" horiz-adv-x="617" d="M481 486.5Q548 427 548 307V0H402v67Q358-8 238-8q-62 0-107.5 21T61 71t-24 84q0 75 56.5 118T268 316h124q0 51-31 78.5T268 422q-43 0-84.5-13.5T113 372L57 481q44 31 105.5 48T289 546q125 0 192-59.5zm-133-371q31 18.5 44 54.5v55H285q-96 0-96-63 0-30 23.5-47.5T277 97q40 0 71 18.5zM506 751 374 607H236L104 751h114l87-75 87 75h114z"/><glyph glyph-name="uni01D3" unicode="Ǔ" horiz-adv-x="788" d="M160.5 71Q77 154 77 308v392h162V314q0-188 156-188 76 0 116 45.5T551 314v386h160V308q0-154-83.5-237T394-12 160.5 71zM596 901 464 757H326L194 901h114l87-75 87 75h114z"/><glyph glyph-name="uni01D4" unicode="ǔ" horiz-adv-x="687" d="M614 538V0H466v64q-31-35-74-53.5T299-8Q193-8 131 53T69 234v304h156V257q0-130 109-130 56 0 90 36.5T458 272v266h156zm-72 213L410 607H272L140 751h114l87-75 87 75h114z"/><glyph glyph-name="uni01E4" unicode="Ǥ" horiz-adv-x="811" d="M556 361h148V77q-57-43-132-66T421-12q-109 0-196 46.5t-136.5 129T39 350t49.5 186.5 137.5 129T424 712q92 0 167-31t126-90l-104-96q-75 79-181 79-67 0-119-28t-81-79-29-117q0-65 29-116t80.5-79.5T430 126q70 0 126 30v205zm-162.877-56.253h398.408V197.603H393.123v107.144z"/><glyph glyph-name="uni01E5" unicode="ǥ" horiz-adv-x="711" d="M691-38h-83q-58-164-285-164-77 0-146.5 19.5T61-128l62 108q34-28 86-44.5T314-81q86 0 125 43H273v76h197q1 9 1 28v64q-62-65-174-65-77 0-137 30.5T66 181 32 306t34 124 94 84.5T297 545q57 0 104-18.5t78-55.5v67h148V90q0-27-3-51h67v-77zM434 215q39 34 39 91 0 56-39 90t-102 34-102.5-34-39.5-90q0-57 39.5-91T332 181t102 34z"/><glyph glyph-name="Gcaron" unicode="Ǧ" horiz-adv-x="771" d="M556 361h148V77q-57-43-132-66T421-12q-109 0-196 46.5t-136.5 129T39 350t49.5 186.5 137.5 129T424 712q92 0 167-31t126-90l-104-96q-75 79-181 79-67 0-119-28t-81-79-29-117q0-65 29-116t80.5-79.5T430 126q70 0 126 30v205zm62 540L486 757H348L216 901h114l87-75 87 75h114z"/><glyph glyph-name="gcaron" unicode="ǧ" horiz-adv-x="700" d="M627 538V90q0-148-77-220t-225-72q-78 0-148 19T61-128l62 112q34-28 86-44.5T313-77q81 0 119.5 36.5T471 70v23q-61-67-170-67-74 0-135.5 32.5T68 150 32 286t36 136 97.5 91.5T301 546q117 0 178-77v69h148zM433.5 190.5Q473 227 473 286t-39.5 95.5T332 418t-102-36.5-40-95.5 40-95.5T332 154t101.5 36.5zM542 751 410 607H272L140 751h114l87-75 87 75h114z"/><glyph glyph-name="uni01E8" unicode="Ǩ" horiz-adv-x="740" d="m338 275-94-98V0H83v700h161V373l310 327h180L444 388 751 0H562zm242 626L448 757H310L178 901h114l87-75 87 75h114z"/><glyph glyph-name="uni01E9" unicode="ǩ" horiz-adv-x="660" d="m303 211-75-74V0H72v742h156V322l228 216h186L418 310 662 0H473zm48 744L219 811H81L-51 955H63l87-75 87 75h114z"/><glyph glyph-name="uni01EA" unicode="Ǫ" horiz-adv-x="844" d="M438-44.5Q403-74 403-107q0-21 15.5-33.5T461-153q33 0 60 15l23-71q-19-10-46.5-16.5T443-232q-65 0-101.5 30.5T305-120q0 64 60 112-95 12-169 61T80.5 179 39 350q0 103 50 185.5T226 665t196 47 196-47 137-129.5T805 350q0-85-34.5-155.5T676.5 76 542 6q-69-21-104-50.5zM231.5 234q28.5-51 78.5-79.5T422 126t112 28.5 78.5 79.5T641 350t-28.5 116-78.5 79.5T422 574t-112-28.5-78.5-79.5T203 350t28.5-116z"/><glyph glyph-name="uni01EB" unicode="ǫ" horiz-adv-x="655" d="M346.5-45.5Q318-75 318-106q0-21 15.5-34t42.5-13q33 0 60 15l23-71q-19-10-46.5-16.5T358-232q-65 0-101.5 30.5T220-121q0 68 64 116-74 9-131 46t-89 96-32 132q0 80 38 143t105.5 98.5T328 546t152-35.5T585 412t38-143q0-88-47-155T448 13q-73-29-101.5-58.5zM229 160.5q39-40.5 99-40.5t98.5 40.5T465 269t-38.5 108.5T328 418t-99-40.5T190 269t39-108.5z"/><glyph glyph-name="uni01EE" unicode="Ǯ" horiz-adv-x="638" d="M548 348q53-53 53-133 0-62-33-113.5T467 19 299-12q-78 0-152 19.5T25 62l55 125q42-31 98.5-48T294 122q67 0 105 24.5t38 67.5q0 42-35 65t-107 23h-75v105l156 164H54v129h511V595L395 416q100-15 153-68zm-37 553L379 757H241L109 901h114l87-75 87 75h114z"/><glyph glyph-name="uni01EF" unicode="ǯ" horiz-adv-x="554" d="M480 170.5Q530 115 530 31q0-64-31.5-117t-96-84.5T243-202q-75 0-144.5 20.5T-18-124L37 1q39-32 92-50t108-18q62 0 97 26t35 72q0 45-32 70.5T239 127h-74v104l148 178H10v129h486V433L335 240q95-14 145-69.5zM446 751 314 607H176L44 751h114l87-75 87 75h114z"/><glyph glyph-name="Aringacute" unicode="Ǻ" horiz-adv-x="766" d="M544 150H219L157 0H-9l312 700h160L776 0H606zm-51 123L382 541 271 273h222zm-3 665q17-29 17-63 0-51-36-86t-89-35q-52 0-87.5 35T259 875t35.5 86 87.5 35q25 0 52-10l87 90 77-60zm-64.5-106.5Q443 849 443 875t-17.5 43.5T382 936q-25 0-42.5-17.5T322 875t17-43.5 43-17.5 43.5 17.5z"/><glyph glyph-name="aringacute" unicode="ǻ" horiz-adv-x="617" d="M481 486.5Q548 427 548 307V0H402v67Q358-8 238-8q-62 0-107.5 21T61 71t-24 84q0 75 56.5 118T268 316h124q0 51-31 78.5T268 422q-43 0-84.5-13.5T113 372L57 481q44 31 105.5 48T289 546q125 0 192-59.5zm-133-371q31 18.5 44 54.5v55H285q-96 0-96-63 0-30 23.5-47.5T277 97q40 0 71 18.5zM412 776q17-29 17-63 0-51-36-86t-89-35q-52 0-87.5 35T181 713t35.5 86 87.5 35q25 0 52-10l87 90 77-60zm-64.5-106.5Q365 687 365 713t-17.5 43.5T304 774q-25 0-42.5-17.5T244 713t17-43.5 43-17.5 43.5 17.5z"/><glyph glyph-name="AEacute" unicode="Ǽ" horiz-adv-x="1080" d="M1034 130V0H492v150H239L157 0H-9l395 700h635V570H653V418h326V292H653V130h381zM492 273v297h-23L306 273h186zm124 628h168L603 757H481z"/><glyph glyph-name="aeacute" unicode="ǽ" horiz-adv-x="996" d="M960 226H552q11-51 51-80t102-29q78 0 136 52l83-90q-39-43-95.5-65T702-8q-71 0-131 23T469 85Q407-8 263-8 158-8 97.5 38T37 161q0 70 57 113t174 43h124q0 50-31 77.5T269 422q-43 0-85-13.5T113 372L57 481q44 31 105 48t126 17q136 0 198-76 37 36 88 56t110 20q77 0 141-34t101-97 37-144q0-25-3-45zM596 399q-37-29-46-82h262q-8 53-44.5 82T682 428t-86-29zM362 125q30 28 30 76v25H285q-96 0-96-62 0-32 23.5-49.5T279 97q53 0 83 28zm152 626h168L501 607H379z"/><glyph glyph-name="Oslashacute" unicode="Ǿ" horiz-adv-x="844" d="M225.5 35Q138 82 88.5 164.5T39 350t49.5 185.5 137 129.5T422 712t196-47 137-129.5T805 350t-50-185.5T618 35 422-12 225.5 35zM534 154.5q50 28.5 78.5 79.5T641 350t-28.5 116-78.5 79.5T422 574t-112-28.5-78.5-79.5T203 350t28.5-116 78.5-79.5T422 126t112 28.5zM669 770h105L176-70H71zM466 901h168L453 757H331z"/><glyph glyph-name="oslashacute" unicode="ǿ" horiz-adv-x="655" d="M175.5 27.5Q108 63 70 126T32 269t38 143 105.5 98.5T328 546t152-35.5T585 412t38-143-38-143-105-98.5T328-8 175.5 27.5zm251 133Q465 201 465 269t-38.5 108.5T328 418t-99-40.5T190 269t39-108.5 99-40.5 98.5 40.5zM507 604h78L144-71H67zM367 751h168L354 607H232z"/><glyph glyph-name="uni0200" unicode="Ȁ" horiz-adv-x="766" d="M544 150H219L157 0H-9l312 700h160L776 0H606zm-51 123L382 541 271 273h222zM121 901h146l72-144H225zm202 0h146l72-144H427z"/><glyph glyph-name="uni0201" unicode="ȁ" horiz-adv-x="617" d="M481 486.5Q548 427 548 307V0H402v67Q358-8 238-8q-62 0-107.5 21T61 71t-24 84q0 75 56.5 118T268 316h124q0 51-31 78.5T268 422q-43 0-84.5-13.5T113 372L57 481q44 31 105.5 48T289 546q125 0 192-59.5zm-133-371q31 18.5 44 54.5v55H285q-96 0-96-63 0-30 23.5-47.5T277 97q40 0 71 18.5zM43 751h146l72-144H147zm202 0h146l72-144H349z"/><glyph glyph-name="uni0202" unicode="Ȃ" horiz-adv-x="766" d="M544 150H219L157 0H-9l312 700h160L776 0H606zm-51 123L382 541 271 273h222zM253 868q51 41 130 41t130-41 54-111h-98q-1 32-25.5 51.5T383 828t-60.5-19.5T297 757h-98q3 70 54 111z"/><glyph glyph-name="uni0203" unicode="ȃ" horiz-adv-x="617" d="M481 486.5Q548 427 548 307V0H402v67Q358-8 238-8q-62 0-107.5 21T61 71t-24 84q0 75 56.5 118T268 316h124q0 51-31 78.5T268 422q-43 0-84.5-13.5T113 372L57 481q44 31 105.5 48T289 546q125 0 192-59.5zm-133-371q31 18.5 44 54.5v55H285q-96 0-96-63 0-30 23.5-47.5T277 97q40 0 71 18.5zM175 718q51 41 130 41t130-41 54-111h-98q-1 32-25.5 51.5T305 678t-60.5-19.5T219 607h-98q3 70 54 111z"/><glyph glyph-name="uni0204" unicode="Ȅ" horiz-adv-x="671" d="M625 130V0H83v700h529V570H244V418h325V292H244V130h381zM86 901h146l72-144H190zm202 0h146l72-144H392z"/><glyph glyph-name="uni0205" unicode="ȅ" horiz-adv-x="631" d="M596 225H189q11-50 52-79t102-29q42 0 74.5 12.5T478 169l83-90Q485-8 339-8q-91 0-161 35.5T70 126 32 269q0 79 37.5 142.5t103 99T319 546q79 0 143-34t100.5-97.5T599 267q0-3-3-42zM231 398q-36-30-44-82h265q-8 51-44 81.5T320 428q-53 0-89-30zM54 751h146l72-144H158zm202 0h146l72-144H360z"/><glyph glyph-name="uni0206" unicode="Ȇ" horiz-adv-x="671" d="M625 130V0H83v700h529V570H244V418h325V292H244V130h381zM218 868q51 41 130 41t130-41 54-111h-98q-1 32-25.5 51.5T348 828t-60.5-19.5T262 757h-98q3 70 54 111z"/><glyph glyph-name="uni0207" unicode="ȇ" horiz-adv-x="631" d="M596 225H189q11-50 52-79t102-29q42 0 74.5 12.5T478 169l83-90Q485-8 339-8q-91 0-161 35.5T70 126 32 269q0 79 37.5 142.5t103 99T319 546q79 0 143-34t100.5-97.5T599 267q0-3-3-42zM231 398q-36-30-44-82h265q-8 51-44 81.5T320 428q-53 0-89-30zm-45 320q51 41 130 41t130-41 54-111h-98q-1 32-25.5 51.5T316 678t-60.5-19.5T230 607h-98q3 70 54 111z"/><glyph glyph-name="uni0208" unicode="Ȉ" horiz-adv-x="328" d="M83 700h162V0H83v700zM-98 901H48l72-144H6zm202 0h146l72-144H208z"/><glyph glyph-name="uni0209" unicode="ȉ" horiz-adv-x="301" d="M72 538h156V0H72v538zm-184 213H34l72-144H-8zm202 0h146l72-144H194z"/><glyph glyph-name="uni020A" unicode="Ȋ" horiz-adv-x="328" d="M83 700h162V0H83v700zM34 868q51 41 130 41t130-41 54-111h-98q-1 32-25.5 51.5T164 828t-60.5-19.5T78 757h-98q3 70 54 111z"/><glyph glyph-name="uni020B" unicode="ȋ" horiz-adv-x="301" d="M72 538h156V0H72v538zM36.5 717.5Q81 759 150 759t113.5-41.5T309 607h-94q0 33-17 52.5T150 679t-48-19.5T85 607H-9q1 69 45.5 110.5z"/><glyph glyph-name="uni020C" unicode="Ȍ" horiz-adv-x="844" d="M225.5 35Q138 82 88.5 164.5T39 350t49.5 185.5 137 129.5T422 712t196-47 137-129.5T805 350t-50-185.5T618 35 422-12 225.5 35zM534 154.5q50 28.5 78.5 79.5T641 350t-28.5 116-78.5 79.5T422 574t-112-28.5-78.5-79.5T203 350t28.5-116 78.5-79.5T422 126t112 28.5zM160 901h146l72-144H264zm202 0h146l72-144H466z"/><glyph glyph-name="uni020D" unicode="ȍ" horiz-adv-x="655" d="M175.5 27.5Q108 63 70 126T32 269t38 143 105.5 98.5T328 546t152-35.5T585 412t38-143-38-143-105-98.5T328-8 175.5 27.5zm251 133Q465 201 465 269t-38.5 108.5T328 418t-99-40.5T190 269t39-108.5 99-40.5 98.5 40.5zM64 751h146l72-144H168zm202 0h146l72-144H370z"/><glyph glyph-name="uni020E" unicode="Ȏ" horiz-adv-x="844" d="M225.5 35Q138 82 88.5 164.5T39 350t49.5 185.5 137 129.5T422 712t196-47 137-129.5T805 350t-50-185.5T618 35 422-12 225.5 35zM534 154.5q50 28.5 78.5 79.5T641 350t-28.5 116-78.5 79.5T422 574t-112-28.5-78.5-79.5T203 350t28.5-116 78.5-79.5T422 126t112 28.5zM292 868q51 41 130 41t130-41 54-111h-98q-1 32-25.5 51.5T422 828t-60.5-19.5T336 757h-98q3 70 54 111z"/><glyph glyph-name="uni020F" unicode="ȏ" horiz-adv-x="655" d="M175.5 27.5Q108 63 70 126T32 269t38 143 105.5 98.5T328 546t152-35.5T585 412t38-143-38-143-105-98.5T328-8 175.5 27.5zm251 133Q465 201 465 269t-38.5 108.5T328 418t-99-40.5T190 269t39-108.5 99-40.5 98.5 40.5zM196 718q51 41 130 41t130-41 54-111h-98q-1 32-25.5 51.5T326 678t-60.5-19.5T240 607h-98q3 70 54 111z"/><glyph glyph-name="uni0210" unicode="Ȑ" horiz-adv-x="735" d="M529 0 394 195H245V0H83v700h303q93 0 161.5-31T653 581t37-135-37.5-134.5T546 225L703 0H529zm-41 536.5Q450 568 377 568H245V324h132q73 0 111 32t38 90q0 59-38 90.5zM113 901h146l72-144H217zm202 0h146l72-144H419z"/><glyph glyph-name="uni0211" unicode="ȑ" horiz-adv-x="431" d="M296.5 526Q344 546 406 546V402q-26 2-35 2-67 0-105-37.5T228 254V0H72v538h149v-71q28 39 75.5 59zM-23 751h146l72-144H81zm202 0h146l72-144H283z"/><glyph glyph-name="uni0212" unicode="Ȓ" horiz-adv-x="735" d="M529 0 394 195H245V0H83v700h303q93 0 161.5-31T653 581t37-135-37.5-134.5T546 225L703 0H529zm-41 536.5Q450 568 377 568H245V324h132q73 0 111 32t38 90q0 59-38 90.5zM245 868q51 41 130 41t130-41 54-111h-98q-1 32-25.5 51.5T375 828t-60.5-19.5T289 757h-98q3 70 54 111z"/><glyph glyph-name="uni0213" unicode="ȓ" horiz-adv-x="431" d="M296.5 526Q344 546 406 546V402q-26 2-35 2-67 0-105-37.5T228 254V0H72v538h149v-71q28 39 75.5 59zM109 718q51 41 130 41t130-41 54-111h-98q-1 32-25.5 51.5T239 678t-60.5-19.5T153 607H55q3 70 54 111z"/><glyph glyph-name="uni0214" unicode="Ȕ" horiz-adv-x="788" d="M160.5 71Q77 154 77 308v392h162V314q0-188 156-188 76 0 116 45.5T551 314v386h160V308q0-154-83.5-237T394-12 160.5 71zM133 901h146l72-144H237zm202 0h146l72-144H439z"/><glyph glyph-name="uni0215" unicode="ȕ" horiz-adv-x="687" d="M614 538V0H466v64q-31-35-74-53.5T299-8Q193-8 131 53T69 234v304h156V257q0-130 109-130 56 0 90 36.5T458 272v266h156zM79 751h146l72-144H183zm202 0h146l72-144H385z"/><glyph glyph-name="uni0216" unicode="Ȗ" horiz-adv-x="788" d="M160.5 71Q77 154 77 308v392h162V314q0-188 156-188 76 0 116 45.5T551 314v386h160V308q0-154-83.5-237T394-12 160.5 71zM265 868q51 41 130 41t130-41 54-111h-98q-1 32-25.5 51.5T395 828t-60.5-19.5T309 757h-98q3 70 54 111z"/><glyph glyph-name="uni0217" unicode="ȗ" horiz-adv-x="687" d="M614 538V0H466v64q-31-35-74-53.5T299-8Q193-8 131 53T69 234v304h156V257q0-130 109-130 56 0 90 36.5T458 272v266h156zM211 718q51 41 130 41t130-41 54-111h-98q-1 32-25.5 51.5T341 678t-60.5-19.5T255 607h-98q3 70 54 111z"/><glyph glyph-name="Scommaaccent" unicode="Ș" horiz-adv-x="638" d="M152.5 10.5Q75 33 28 69l55 122q45-33 107-53t124-20q69 0 102 20.5t33 54.5q0 25-19.5 41.5t-50 26.5-82.5 22q-80 19-131 38t-87.5 61T42 494q0 61 33 110.5t99.5 78.5T337 712q67 0 131-16t112-46l-50-123q-97 55-194 55-68 0-100.5-22T203 502t37.5-53.5T355 414q80-19 131-38t87.5-60T610 205q0-60-33.5-109.5T476 17 313-12q-83 0-160.5 22.5zm223-100Q394-106 394-133q0-31-18-65l-35-68h-73l25 80q-18 6-27.5 19.5T256-133q0 27 18.5 43.5T325-73t50.5-16.5z"/><glyph glyph-name="scommaaccent" unicode="ș" horiz-adv-x="531" d="M122 8.5Q58 25 20 50l52 112q36-23 87-37.5T259 110q99 0 99 49 0 23-27 33t-83 17q-66 10-109 23t-74.5 46T33 372q0 51 29.5 90.5t86 61.5T282 546q57 0 113.5-12.5T489 499l-52-111q-71 40-155 40-50 0-75-14t-25-36q0-25 27-35t86-19q66-11 108-23.5t73-45.5 31-92q0-50-30-89t-87.5-60.5T253-8Q186-8 122 8.5zm189.5-98Q330-106 330-133q0-31-18-65l-35-68h-73l25 80q-18 6-27.5 19.5T192-133q0 27 18.5 43.5T261-73t50.5-16.5z"/><glyph glyph-name="uni021A" unicode="Ț" horiz-adv-x="618" d="M228 568H4v132h610V568H390V0H228v568zM359.5-89.5Q378-106 378-133q0-31-18-65l-35-68h-73l25 80q-18 6-27.5 19.5T240-133q0 27 18.5 43.5T309-73t50.5-16.5z"/><glyph glyph-name="uni021B" unicode="ț" horiz-adv-x="435" d="M419 26Q396 9 362.5.5T292-8q-96 0-148.5 49T91 185v221H8v120h83v131h156V526h134V406H247V187q0-34 17.5-52.5T314 116q37 0 63 20zM313.5-89.5Q332-106 332-133q0-31-18-65l-35-68h-73l25 80q-18 6-27.5 19.5T194-133q0 27 18.5 43.5T263-73t50.5-16.5z"/><glyph glyph-name="uni021E" unicode="Ȟ" horiz-adv-x="808" d="M725 700V0H563v287H245V0H83v700h162V424h318v276h162zM605 901 473 757H335L203 901h114l87-75 87 75h114z"/><glyph glyph-name="uni021F" unicode="ȟ" horiz-adv-x="691" d="M560.5 486Q622 426 622 308V0H466v284q0 64-28 95.5T357 411q-59 0-94-36.5T228 266V0H72v742h156V482q31 31 75 47.5t96 16.5q100 0 161.5-60zM351 955 219 811H81L-51 955H63l87-75 87 75h114z"/><glyph glyph-name="uni022A" unicode="Ȫ" horiz-adv-x="844" d="M225.5 35Q138 82 88.5 164.5T39 350t49.5 185.5 137 129.5T422 712t196-47 137-129.5T805 350t-50-185.5T618 35 422-12 225.5 35zM534 154.5q50 28.5 78.5 79.5T641 350t-28.5 116-78.5 79.5T422 574t-112-28.5-78.5-79.5T203 350t28.5-116 78.5-79.5T422 126t112 28.5zm-257 626Q258 799 258 828q0 28 19 47t47 19q29 0 48-19t19-47q0-29-19-47.5T324 762q-28 0-47 18.5zm196 0Q454 799 454 828q0 28 19.5 47t46.5 19q28 0 47-19t19-47q0-29-19-47.5T520 762t-47 18.5zM237 1017h370v-83H237v83z"/><glyph glyph-name="uni022B" unicode="ȫ" horiz-adv-x="655" d="M175.5 27.5Q108 63 70 126T32 269t38 143 105.5 98.5T328 546t152-35.5T585 412t38-143-38-143-105-98.5T328-8 175.5 27.5zm251 133Q465 201 465 269t-38.5 108.5T328 418t-99-40.5T190 269t39-108.5 99-40.5 98.5 40.5zM181 630.5Q162 649 162 678q0 28 19 47t47 19q29 0 48-19t19-47q0-29-19-47.5T228 612q-28 0-47 18.5zm196 0Q358 649 358 678q0 28 19.5 47t46.5 19q28 0 47-19t19-47q0-29-19-47.5T424 612t-47 18.5zM141 867h370v-83H141v83z"/><glyph glyph-name="uni022C" unicode="Ȭ" horiz-adv-x="844" d="M225.5 35Q138 82 88.5 164.5T39 350t49.5 185.5 137 129.5T422 712t196-47 137-129.5T805 350t-50-185.5T618 35 422-12 225.5 35zM534 154.5q50 28.5 78.5 79.5T641 350t-28.5 116-78.5 79.5T422 574t-112-28.5-78.5-79.5T203 350t28.5-116 78.5-79.5T422 126t112 28.5zm-86 609q-21 8.5-46 24.5-12 7-23.5 13t-20.5 6q-20 0-31-12t-13-34h-80q1 60 31.5 92.5T350 886q26 0 44.5-8t46.5-24q16-10 26.5-15t20.5-5q20 0 31 12.5t13 32.5h78q-1-58-31-91t-83-33q-27 0-48 8.5zM237 1017h370v-83H237v83z"/><glyph glyph-name="uni022D" unicode="ȭ" horiz-adv-x="655" d="M175.5 27.5Q108 63 70 126T32 269t38 143 105.5 98.5T328 546t152-35.5T585 412t38-143-38-143-105-98.5T328-8 175.5 27.5zm251 133Q465 201 465 269t-38.5 108.5T328 418t-99-40.5T190 269t39-108.5 99-40.5 98.5 40.5zm-74.5 453q-21 8.5-46 24.5-12 7-23.5 13t-20.5 6q-20 0-31-12t-13-34h-80q1 60 31.5 92.5T254 736q26 0 44.5-8t46.5-24q16-10 26.5-15t20.5-5q20 0 31 12.5t13 32.5h78q-1-58-31-91t-83-33q-27 0-48 8.5zM141 867h370v-83H141v83z"/><glyph glyph-name="uni0230" unicode="Ȱ" horiz-adv-x="844" d="M225.5 35Q138 82 88.5 164.5T39 350t49.5 185.5 137 129.5T422 712t196-47 137-129.5T805 350t-50-185.5T618 35 422-12 225.5 35zM534 154.5q50 28.5 78.5 79.5T641 350t-28.5 116-78.5 79.5T422 574t-112-28.5-78.5-79.5T203 350t28.5-116 78.5-79.5T422 126t112 28.5zM372.5 780Q353 799 353 829t19.5 49.5T422 898t49.5-19.5T491 829t-19.5-49-49.5-19-49.5 19zM237 1024h370v-83H237v83z"/><glyph glyph-name="uni0231" unicode="ȱ" horiz-adv-x="655" d="M175.5 27.5Q108 63 70 126T32 269t38 143 105.5 98.5T328 546t152-35.5T585 412t38-143-38-143-105-98.5T328-8 175.5 27.5zm251 133Q465 201 465 269t-38.5 108.5T328 418t-99-40.5T190 269t39-108.5 99-40.5 98.5 40.5zM276.5 630Q257 649 257 679t19.5 49.5T326 748t49.5-19.5T395 679t-19.5-49-49.5-19-49.5 19zM141 874h370v-83H141v83z"/><glyph glyph-name="uni0232" unicode="Ȳ" horiz-adv-x="676" d="M419 248V0H257v250L-14 700h172l187-311 187 311h159zM153 873h370v-88H153v88z"/><glyph glyph-name="uni0233" unicode="ȳ" horiz-adv-x="598" d="M606 538 363-33q-37-93-91.5-131T140-202q-42 0-83 13t-67 36L47-42q18-16 41.5-25t46.5-9q32 0 52 15.5T223-9l2 5L-8 538h161l151-365 152 365h150zM103 723h370v-88H103v88z"/><glyph glyph-name="uni0237" unicode="ȷ" horiz-adv-x="307" d="m-93-172 42 113q27-19 66-19 30 0 47 19.5T79 0v538h156V1q0-94-53.5-148.5T32-202q-82 0-125 30z"/><glyph glyph-name="uni0259" unicode="ə" horiz-adv-x="631" d="M35 313h407q-11 50-52 79t-102 29q-42 0-74.5-12.5T153 369l-83 90q76 87 222 87 91 0 161-35.5T561 412t38-143q0-79-37.5-142.5t-103-99T312-8q-79 0-143 34T68.5 123.5 32 271q0 3 3 42zm365-173q36 30 44 82H179q8-51 44-81.5t88-30.5q53 0 89 30z"/><glyph glyph-name="uni02BB" unicode="ʻ" horiz-adv-x="287" d="M223 720q14-22 14-52 0-43-27-69.5T141 572t-69.5 27T44 668q0 20 5 40t22 60l58 144h99l-44-159q25-11 39-33z"/><glyph glyph-name="uni02BC" unicode="ʼ" horiz-adv-x="187" d="M43 700h102l-22-262H41z"/><glyph glyph-name="circumflex" unicode="ˆ" horiz-adv-x="600" d="m387 607-87 76-87-76H99l132 144h138l132-144H387z"/><glyph glyph-name="ring" unicode="˚" horiz-adv-x="600" d="M211.5 627Q176 662 176 713t35.5 86 87.5 35q53 0 89-35t36-86-36-86-89-35q-52 0-87.5 35zm131 42.5Q360 687 360 713t-17.5 43.5T299 774q-25 0-42.5-17.5T239 713t17-43.5 43-17.5 43.5 17.5z"/><glyph glyph-name="tilde" unicode="˜" horiz-adv-x="600" d="M327.5 614.5Q307 625 282 643q-16 12-26.5 18t-20.5 6q-21 0-34-14.5T187 611h-79q2 67 33.5 106.5T225 757q26 0 46.5-10.5T318 717q16-12 26.5-18t20.5-6q20 0 33.5 14.5T413 747h79q-2-65-33.5-104T375 604q-27 0-47.5 10.5z"/><glyph glyph-name="gravecomb" d="M-512 751h168l135-144h-122z"/><glyph glyph-name="acutecomb" d="M-256 751h168l-181-144h-122z"/><glyph glyph-name="uni0302" d="m-213 607-87 76-87-76h-114l132 144h138l132-144h-114z"/><glyph glyph-name="tildecomb" d="M-272.5 614.5Q-293 625-318 643q-16 12-26.5 18t-20.5 6q-21 0-34-14.5t-14-41.5h-79q2 67 33.5 106.5T-375 757q26 0 46.5-10.5T-282 717q16-12 26.5-18t20.5-6q20 0 33.5 14.5T-187 747h79q-2-65-33.5-104t-83.5-39q-27 0-47.5 10.5z"/><glyph glyph-name="uni0304" d="M-485 723h370v-88h-370v88z"/><glyph glyph-name="uni0306" d="M-430 640q-51 41-54 111h98q1-32 25.5-51.5T-300 680t60.5 19.5T-214 751h98q-3-70-54-111t-130-41-130 41z"/><glyph glyph-name="uni0307" d="M-360.5 636q-23.5 24-23.5 61 0 36 23.5 60t60.5 24 60.5-24 23.5-60q0-37-23.5-61t-60.5-24-60.5 24z"/><glyph glyph-name="uni0308" d="M-451 631.5q-20 19.5-20 49.5t20 49.5 50 19.5 49.5-19.5T-332 681t-19.5-49.5T-401 612t-50 19.5zm202.5 0Q-268 651-268 681t19.5 49.5T-199 750t50-19.5 20-49.5-20-49.5-50-19.5-49.5 19.5z"/><glyph glyph-name="hookabovecomb" d="M-319 649q28 13 39.5 28t11.5 33q0 19-13 30.5t-34 11.5q-30 0-59-19l-32 63q43 34 108 34 53 0 86.5-29.5T-178 723q0-84-92-126z"/><glyph glyph-name="uni030A" d="M-388.5 627q-35.5 35-35.5 86t35.5 86 87.5 35q53 0 89-35t36-86-36-86-89-35q-52 0-87.5 35zm131 42.5Q-240 687-240 713t-17.5 43.5T-301 774q-25 0-42.5-17.5T-361 713t17-43.5 43-17.5 43.5 17.5z"/><glyph glyph-name="uni030B" d="M-386 751h146l-104-144h-114zm202 0h146l-104-144h-114z"/><glyph glyph-name="uni030C" d="m-99 751-132-144h-138l-132 144h114l87-75 87 75h114z"/><glyph glyph-name="uni030F" d="M-562 751h146l72-144h-114zm202 0h146l72-144h-114z"/><glyph glyph-name="uni0311" d="M-430 718q51 41 130 41t130-41 54-111h-98q-1 32-25.5 51.5T-300 678t-60.5-19.5T-386 607h-98q3 70 54 111z"/><glyph glyph-name="uni0312" d="M-221 659q0-28-20-44t-59-16-59 16.5-20 43.5q0 25 21 64l45 90h84l-34-101q42-12 42-53z"/><glyph glyph-name="uni031B" d="M-323 538h27q27 0 43.5 17.5T-236 601q0 35-20 60l92 34q32-42 32-100 0-75-44.5-118T-300 434h-23v104z"/><glyph glyph-name="dotbelowcomb" d="M-349.5-191.5Q-369-173-369-143t19.5 50 49.5 20q29 0 49-20t20-50-19.5-48.5T-300-210t-49.5 18.5z"/><glyph glyph-name="uni0326" d="M-249.5-89.5Q-231-106-231-133q0-31-18-65l-35-68h-73l25 80q-18 6-27.5 19.5T-369-133q0 27 18.5 43.5T-300-73t50.5-16.5z"/><glyph glyph-name="uni0327" d="M-384-226.5q-25 5.5-42 15.5l24 67q32-15 65-15 52 0 52 32 0 29-49 29h-34l26 106h83l-14-58q44-5 65.5-27.5T-186-133q0-46-40-72.5T-333-232q-26 0-51 5.5z"/><glyph glyph-name="uni0328" d="M-478-201.5q-37 30.5-37 81.5 0 49 38.5 91T-361 41l62-41q-63-28-90-53.5t-27-53.5q0-21 15.5-33.5T-359-153q34 0 61 15l22-71q-19-10-46-16.5t-55-6.5q-64 0-101 30.5z"/><glyph glyph-name="uni032E" d="M-429-177.5Q-480-138-484-74h93q1-30 26.5-48.5T-300-141t64.5 18.5T-209-74h93q-4-64-55-103.5T-300-217t-129 39.5z"/><glyph glyph-name="uni0331" d="M-485-95h370v-87h-370v87z"/><glyph glyph-name="uni0335" d="M-506 481h412v-90h-412v90z"/><glyph glyph-name="uni0336" d="M-882 489h832V381h-832v108z"/><glyph glyph-name="uni0337" d="m-446 310 324 244 57-80-323-242z"/><glyph glyph-name="uni0338" d="M-134 605h78L-497-70h-77z"/><glyph glyph-name="uni03BC" horiz-adv-x="690" d="M618 538V0H477v66q-24-38-61.5-56T336-8q-65 0-108 35v-221H72v732h156V257q0-66 28.5-98t80.5-32q57 0 91 36.5T462 272v266h156z"/><glyph glyph-name="uni0400" unicode="Ѐ" horiz-adv-x="673" d="M629 130V0H87v700h529V570H248V418h325V292H248V130h381zM140 901h168l135-144H321z"/><glyph glyph-name="uni0401" unicode="Ё" horiz-adv-x="673" d="M629 130V0H87v700h529V570H248V418h325V292H248V130h381zM201 781.5Q181 801 181 831t20 49.5 50 19.5 49.5-19.5T320 831t-19.5-49.5T251 762t-50 19.5zm202.5 0Q384 801 384 831t19.5 49.5T453 900t50-19.5 20-49.5-20-49.5-50-19.5-49.5 19.5z"/><glyph glyph-name="uni0402" unicode="Ђ" horiz-adv-x="849" d="M570 435q118 0 184.5-58T821 212q0-110-68.5-164.5T577-7q-39 0-84 8l17 127q21-6 46-6 43 0 73.5 21.5T660 209q0 46-34.5 71T534 305q-63 0-135-31V0H239v568H15v132h637V568H399V409q90 26 171 26z"/><glyph glyph-name="uni0403" unicode="Ѓ" horiz-adv-x="593" d="M580 568H247l1-568H87v700h494zM369 901h168L356 757H234z"/><glyph glyph-name="uni0404" unicode="Є" horiz-adv-x="715" d="M216.5 34.5Q134 81 87 163.5T40 350t47 186.5 129.5 129T403 712q93 0 167.5-32T695 587l-103-96q-74 83-181 83-77 0-130.5-45T211 408h284V284H213q17-72 70-115t128-43q107 0 181 83l103-96q-50-61-124.5-93T403-12q-104 0-186.5 46.5z"/><glyph glyph-name="uni0405" unicode="Ѕ" horiz-adv-x="653" d="M161.5 10.5Q84 33 37 69l55 122q45-33 107-53t124-20q69 0 102 20.5t33 54.5q0 25-19.5 41.5t-50 26.5-82.5 22q-80 19-131 38t-87.5 61T51 494q0 61 33 110.5t99.5 78.5T346 712q67 0 131-16t112-46l-50-123q-97 55-194 55-68 0-100.5-22T212 502t37.5-53.5T364 414q80-19 131-38t87.5-60T619 205q0-60-33.5-109.5T485 17 322-12q-83 0-160.5 22.5z"/><glyph glyph-name="uni0406" unicode="І" horiz-adv-x="335" d="M87 700h161V0H87v700z"/><glyph glyph-name="uni0407" unicode="Ї" horiz-adv-x="328" d="M83 700h162V0H83v700zm-70 81.5Q-7 801-7 831t20 49.5T63 900t49.5-19.5T132 831t-19.5-49.5T63 762t-50 19.5zm202.5 0Q196 801 196 831t19.5 49.5T265 900t50-19.5 20-49.5-20-49.5-50-19.5-49.5 19.5z"/><glyph glyph-name="uni0408" unicode="Ј" horiz-adv-x="568" d="M109.5 14.5Q50 41 12 90l90 108q57-77 130-77 99 0 99 116v333H85v130h407V246q0-129-64-193.5T240-12q-71 0-130.5 26.5z"/><glyph glyph-name="uni0409" unicode="Љ" horiz-adv-x="1185" d="M711 700V0H551v568H311l-5-146q-5-149-24-241.5t-63.5-142T94-11Q61-11 14 0l10 137q13-4 29-4 58 0 81 68.5T163 416l10 284h538zm375.5-287q68.5-57 68.5-169 0-119-75.5-181.5T867 0H551v700h161V470h178q128 0 196.5-57zm-130-262q35.5 31 35.5 90 0 109-134 109H712V120h146q63 0 98.5 31z"/><glyph glyph-name="uni040A" unicode="Њ" horiz-adv-x="1171" d="M1077.5 386q65.5-56 65.5-158 0-108-71-168T875 0H555v305H248V0H87v700h161V437h307v263h160V442h177q120 0 185.5-56zM947 146.5q32 26.5 32 75.5t-31.5 74.5T857 322H715V120h142q58 0 90 26.5z"/><glyph glyph-name="uni040B" unicode="Ћ" horiz-adv-x="857" d="M752 363q67-63 67-188V0H659v154q0 67-34.5 101T529 289q-60 0-131-32V0H238v568H15v132h629V568H398V398q90 28 169 28 118 0 185-63z"/><glyph glyph-name="uni040C" unicode="Ќ" horiz-adv-x="735" d="M358 282H246V0H85v700h161V417h116l184 283h171L488 362 724 0H540zm61 619h168L406 757H284z"/><glyph glyph-name="uni040D" unicode="Ѝ" horiz-adv-x="821" d="M87 700h161V244l334 456h152V0H574v455L240 0H87v700zm111 201h168l135-144H379z"/><glyph glyph-name="uni040E" unicode="Ў" horiz-adv-x="724" d="M719 700 421 146Q378 66 317.5 25T186-16Q131-16 72 8l39 123q42-13 70-13 30 0 54 14.5t44 45.5l6 8L9 700h173l186-376 192 376h159zM165 898h111q2-73 83-73 40 0 61 18.5t22 54.5h111q-1-75-49-114t-145-39q-192 0-194 153z"/><glyph glyph-name="uni040F" unicode="Џ" horiz-adv-x="808" d="M721 0H479v-148H329V0H87v700h161V132h312v568h161V0z"/><glyph glyph-name="uni0410" unicode="А" horiz-adv-x="799" d="M561 150H236L174 0H8l312 700h160L793 0H623zm-51 123L399 541 288 273h222z"/><glyph glyph-name="uni0411" unicode="Б" horiz-adv-x="738" d="M87 700h565V571H248V427h194q127 0 193.5-53T702 221q0-105-74-163T419 0H87v700zm323-580q62 0 95 24.5t33 71.5q0 92-128 92H248V120h162z"/><glyph glyph-name="uni0412" unicode="В" horiz-adv-x="745" d="M670 303q34-43 34-106 0-93-70.5-145T432 0H87v700h326q122 0 190-47t68-134q0-52-26-91.5T572 365q64-19 98-62zM248 410h151q53 0 80 21.5t27 63.5q0 41-27.5 63T399 580H248V410zm292-200q0 87-114 87H248V120h178q114 0 114 90z"/><glyph glyph-name="uni0413" unicode="Г" horiz-adv-x="593" d="M580 568H247l1-568H87v700h494z"/><glyph glyph-name="uni0414" unicode="Д" horiz-adv-x="831" d="M809 132v-277H659V0H165v-145H15l1 277h28q63 2 89 92t32 257l8 219h538V132h98zM287 256.5Q271 172 238 132h313v436H311l-3-102q-5-125-21-209.5z"/><glyph glyph-name="uni0415" unicode="Е" horiz-adv-x="673" d="M629 130V0H87v700h529V570H248V418h325V292H248V130h381z"/><glyph glyph-name="uni0416" unicode="Ж" horiz-adv-x="1079" d="M722 282H620V0H461v282H357L200 0H13l210 366L26 700h171l157-283h107v283h159V417h104l158 283h171L857 366 1066 0H879z"/><glyph glyph-name="uni0417" unicode="З" horiz-adv-x="656" d="M580.5 299.5Q615 255 615 196q0-64-42-111T459.5 13 303-12q-72 0-143.5 18T24 61l50 116q46-28 101.5-42.5T284 120q72 0 119.5 26t47.5 73q0 39-32.5 59T330 298H159v122h159q49 0 76.5 20t27.5 55q0 41-39.5 64T281 582q-46 0-95-12.5T93 532L44 658q111 57 240 57 82 0 151-24t110-70 41-107q0-50-27-89t-74-60q61-21 95.5-65.5z"/><glyph glyph-name="uni0418" unicode="И" horiz-adv-x="821" d="M87 700h161V244l334 456h152V0H574v455L240 0H87v700z"/><glyph glyph-name="uni0419" unicode="Й" horiz-adv-x="821" d="M87 700h161V244l334 456h152V0H574v455L240 0H87v700zm129 198h111q2-73 83-73 40 0 61 18.5t22 54.5h111q-1-75-49-114t-145-39q-192 0-194 153z"/><glyph glyph-name="uni041A" unicode="К" horiz-adv-x="735" d="M358 282H246V0H85v700h161V417h116l184 283h171L488 362 724 0H540z"/><glyph glyph-name="uni041B" unicode="Л" horiz-adv-x="799" d="M711 700V0H551v568H311l-5-146q-5-149-24-241.5t-63.5-142T94-11Q61-11 14 0l10 137q13-4 29-4 58 0 81 68.5T163 416l10 284h538z"/><glyph glyph-name="uni041C" unicode="М" horiz-adv-x="963" d="m724 0-1 419L517 74h-72L239 411V0H87v700h134l262-435 258 435h134l1-700H724z"/><glyph glyph-name="uni041D" unicode="Н" horiz-adv-x="817" d="M729 700V0H567v287H249V0H87v700h162V424h318v276h162z"/><glyph glyph-name="uni041E" unicode="О" horiz-adv-x="842" d="M224.5 35Q137 82 87.5 164.5T38 350t49.5 185.5 137 129.5T421 712t196-47 137-129.5T804 350t-50-185.5T617 35 421-12 224.5 35zM533 154.5q50 28.5 78.5 79.5T640 350t-28.5 116-78.5 79.5T421 574t-112-28.5-78.5-79.5T202 350t28.5-116 78.5-79.5T421 126t112 28.5z"/><glyph glyph-name="uni041F" unicode="П" horiz-adv-x="812" d="M725 700V0H564v568H248V0H87v700h638z"/><glyph glyph-name="uni0420" unicode="Р" horiz-adv-x="724" d="M551.5 669Q620 638 657 581t37-135q0-77-37-134.5t-105.5-88T390 193H249V0H87v700h303q93 0 161.5-31zM492 356.5q38 31.5 38 89.5 0 59-38 90.5T381 568H249V325h132q73 0 111 31.5z"/><glyph glyph-name="uni0421" unicode="С" horiz-adv-x="726" d="M224.5 34.5Q138 81 88.5 163.5T39 350t49.5 186.5 136 129T419 712q91 0 164.5-32T707 588l-104-96q-71 82-176 82-65 0-116-28.5T231.5 466 203 350t28.5-116 79.5-79.5T427 126q105 0 176 83l104-96q-50-61-124-93T418-12q-107 0-193.5 46.5z"/><glyph glyph-name="uni0422" unicode="Т" horiz-adv-x="637" d="M622 568H398V0H238v568H15v132h607V568z"/><glyph glyph-name="uni0423" unicode="У" horiz-adv-x="724" d="M719 700 421 146Q378 66 317.5 25T186-16Q131-16 72 8l39 123q42-13 70-13 30 0 54 14.5t44 45.5l6 8L9 700h173l186-376 192 376h159z"/><glyph glyph-name="uni0424" unicode="Ф" horiz-adv-x="950" d="M821.5 133.5Q727 54 550 45v-76H401v77q-178 10-272.5 89.5T34 352q0 138 94.5 216.5T401 658v72h149v-71q177-10 271.5-90T916 352q0-139-94.5-218.5zm-113.5 93Q760 271 760 353q0 160-210 178V172q106 10 158 54.5zM401 172v359q-107-10-158.5-53.5T191 352q0-158 210-180z"/><glyph glyph-name="uni0425" unicode="Х" horiz-adv-x="722" d="m213 700 145-212 145 212h190L460 365 712 0H521L358 232 197 0H10l250 358L26 700h187z"/><glyph glyph-name="uni0426" unicode="Ц" horiz-adv-x="841" d="M821 132v-280H672V0H87v700h161V132h312v568h161V132h100z"/><glyph glyph-name="uni0427" unicode="Ч" horiz-adv-x="749" d="M662 700V0H502v252q-91-33-169-33-141 0-216 67.5T42 481v219h160V499q0-72 38.5-108.5T352 354q80 0 150 31v315h160z"/><glyph glyph-name="uni0428" unicode="Ш" horiz-adv-x="1098" d="M1011 700V0H87v700h161V132h221v568h161V132h220v568h161z"/><glyph glyph-name="uni0429" unicode="Щ" horiz-adv-x="1130" d="M1011 700V0H87v700h161V132h221v568h161V132h220v568h161zm95-568v-277H956V0H847v132h259z"/><glyph glyph-name="uni042A" unicode="Ъ" horiz-adv-x="845" d="M747 413q68-57 68-169 0-119-75.5-181.5T527 0H212v568H15v132h357V470h179q128 0 196-57zM617 151q35 31 35 90 0 109-134 109H372V120h146q64 0 99 31z"/><glyph glyph-name="uni042B" unicode="Ы" horiz-adv-x="1028" d="M622.5 413Q691 356 691 244q0-119-75.5-181.5T403 0H87v700h161V470h178q128 0 196.5-57zm-130-262q35.5 31 35.5 90 0 109-134 109H248V120h146q63 0 98.5 31zM780 700h161V0H780v700z"/><glyph glyph-name="uni042C" unicode="Ь" horiz-adv-x="721" d="M622.5 413Q691 356 691 244q0-119-75.5-181.5T403 0H87v700h161V470h178q128 0 196.5-57zm-130-262q35.5 31 35.5 90 0 109-134 109H248V120h146q63 0 98.5 31z"/><glyph glyph-name="uni042D" unicode="Э" horiz-adv-x="714" d="M497.5 665.5Q580 619 627 536.5T674 350t-47-186.5-129.5-129T311-12q-93 0-167.5 32T19 113l103 96q74-83 181-83 77 0 130.5 45T503 292H219v124h282q-17 72-70 115t-128 43q-107 0-181-83L19 587q50 61 124.5 93T311 712q104 0 186.5-46.5z"/><glyph glyph-name="uni042E" unicode="Ю" horiz-adv-x="1114" d="M894.5 665Q979 618 1027 535.5t48-185.5-48-185.5T894.5 35 705-12q-94 0-172 37.5t-128.5 105T340 285h-92V0H87v700h161V425h94q16 84 66.5 149.5T536 676t169 36q105 0 189.5-47zM810 154q47 28 74 79t27 117-27 117-74 79-105 28-105-28-74-79-27-117 27-117 74-79 105-28 105 28z"/><glyph glyph-name="uni042F" unicode="Я" horiz-adv-x="734" d="M646 700V0H486v186H338L214 0H43l146 211q-71 29-109 87.5T42 439q0 81 37 139.5t105 90T344 700h302zM242.5 536Q206 504 206 441q0-61 35-94t103-33h142v254H348q-69 0-105.5-32z"/><glyph glyph-name="uni0430" unicode="а" horiz-adv-x="604" d="M476 486.5Q543 427 543 307V0H397v67Q353-8 233-8q-62 0-107.5 21T56 71t-24 84q0 75 56.5 118T263 316h124q0 51-31 78.5T263 422q-43 0-84.5-13.5T108 372L52 481q44 31 105.5 48T284 546q125 0 192-59.5zm-133-371q31 18.5 44 54.5v55H280q-96 0-96-63 0-30 23.5-47.5T272 97q40 0 71 18.5z"/><glyph glyph-name="uni0431" unicode="б" horiz-adv-x="673" d="M521 469.5q58-31.5 89.5-88.5T642 249q0-77-37.5-136.5T500 20.5 348-12q-141 0-221.5 90.5T46 344q0 162 70.5 258.5T333 729l256 51 21-134-226-45q-92-18-136.5-60T195 422q35 38 84 58.5T386 501q77 0 135-31.5zM445.5 148q36.5 39 36.5 99 0 61-36.5 97T349 380q-61 0-98-36t-37-97 38-99.5 97-38.5q60 0 96.5 39z"/><glyph glyph-name="uni0432" unicode="в" horiz-adv-x="622" d="M581 153q0-73-55-113T362 0H75v538h275q101 0 158-36.5T565 399q0-40-20.5-70.5T486 281q95-32 95-128zM218 317h118q82 0 82 58 0 57-82 57H218V317zm217-152q0 31-20 45.5T352 225H218V106h131q86 0 86 59z"/><glyph glyph-name="uni0433" unicode="г" horiz-adv-x="514" d="M506 410H230V0H75v538h431V410z"/><glyph glyph-name="uni0434" unicode="д" horiz-adv-x="701" d="M678 128v-244H533V0H155v-116H10v244h22q50 1 69 59t24 165l7 186h469V128h77zm-424.5 79q-9.5-52-35.5-79h227v282H269l-3-69q-3-82-12.5-134z"/><glyph glyph-name="uni0435" unicode="е" horiz-adv-x="643" d="M595 225H188q11-50 52-79t102-29q42 0 74.5 12.5T477 169l83-90Q484-8 338-8q-91 0-161 35.5T69 126 31 269q0 79 37.5 142.5t103 99T318 546q79 0 143-34t100.5-97.5T598 267q0-3-3-42zM230 398q-36-30-44-82h265q-8 51-44 81.5T319 428q-53 0-89-30z"/><glyph glyph-name="uni0436" unicode="ж" horiz-adv-x="913" d="M608 204h-75V0H379v204h-75L190 0H6l169 278L18 538h165l119-209h77v209h154V329h76l120 209h165L737 278 907 0H722z"/><glyph glyph-name="uni0437" unicode="з" horiz-adv-x="563" d="M498.5 234q26.5-31 26.5-74 0-51-35-89.5T394 11 256-10q-63 0-124 13T19 42l42 109q85-41 188-41 55 0 86.5 16.5T367 173q0 26-22 39.5T281 226H171v97h96q41 0 63 13t22 38q0 26-27.5 40T246 428q-78 0-170-37L38 499q112 49 218 49 73 0 130.5-18t90.5-52.5 33-80.5q0-38-23-68.5T424 280q48-15 74.5-46z"/><glyph glyph-name="uni0438" unicode="и" horiz-adv-x="710" d="M75 538h155V218l262 320h143V0H480v320L219 0H75v538z"/><glyph glyph-name="uni0439" unicode="й" horiz-adv-x="710" d="M75 538h155V218l262 320h143V0H480v320L219 0H75v538zm93 213h102q1-35 19.5-54.5T344 677t55.5 19.5T419 751h104q-1-155-178-155-176 0-177 155z"/><glyph glyph-name="uni043A" unicode="к" horiz-adv-x="642" d="M312 204h-81V0H75v538h156V329h84l146 209h166L439 280 640 0H456z"/><glyph glyph-name="uni043B" unicode="л" horiz-adv-x="666" d="M591 538V0H435v410H265l-5-95q-4-106-20-176T188 29 88-11Q54-11 7 1l8 128q16-2 23-2 35 0 52.5 25.5t23.5 65 9 104.5l8 216h460z"/><glyph glyph-name="uni043C" unicode="м" horiz-adv-x="815" d="M600 0v322L439 52h-66L216 323V0H75v538h163l172-311 183 311h146l2-538H600z"/><glyph glyph-name="uni043D" unicode="н" horiz-adv-x="694" d="M75 538h155V328h234v210h156V0H464v201H230V0H75v538z"/><glyph glyph-name="uni043E" unicode="о" horiz-adv-x="654" d="M174.5 27.5Q107 63 69 126T31 269t38 143 105.5 98.5T327 546t152-35.5T584 412t38-143-38-143-105-98.5T327-8 174.5 27.5zm251 133Q464 201 464 269t-38.5 108.5T327 418t-99-40.5T189 269t39-108.5 99-40.5 98.5 40.5z"/><glyph glyph-name="uni043F" unicode="п" horiz-adv-x="685" d="M610 538V0H454v410H230V0H75v538h535z"/><glyph glyph-name="uni0440" unicode="р" horiz-adv-x="694" d="M528.5 511.5q61.5-34.5 96.5-97T660 269t-35-145.5-96.5-97T392-8Q289-8 230 57v-251H74v732h149v-62q58 70 169 70 75 0 136.5-34.5zm-65-351Q502 201 502 269t-38.5 108.5T365 418t-98.5-40.5T228 269t38.5-108.5T365 120t98.5 40.5z"/><glyph glyph-name="uni0441" unicode="с" horiz-adv-x="592" d="M176.5 27.5Q108 63 69.5 126T31 269t38.5 143 107 98.5T331 546q85 0 148.5-35.5T572 409l-121-65q-42 74-121 74-61 0-101-40t-40-109 40-109 101-40q80 0 121 74l121-66q-29-64-92.5-100T331-8q-86 0-154.5 35.5z"/><glyph glyph-name="uni0442" unicode="т" horiz-adv-x="535" d="M527 410H345V0H190v410H8v128h519V410z"/><glyph glyph-name="uni0443" unicode="у" horiz-adv-x="614" d="M614 538 371-33q-37-93-91.5-131T148-202q-42 0-83 13t-67 36L55-42q18-16 41.5-25t46.5-9q32 0 52 15.5T231-9l2 5L0 538h161l151-365 152 365h150z"/><glyph glyph-name="uni0444" unicode="ф" horiz-adv-x="849" d="M734.5 73.5Q651 1 496-10v-184H353v184Q198 1 114.5 72.5T31 271q0 125 82.5 194T353 545v197h143V545q155-11 238.5-81T818 271q0-125-83.5-197.5zM223 160q41-39 130-49v313q-89-9-130-46.5T182 271q0-72 41-111zm403.5 0Q668 199 668 271q0 69-41.5 106.5T496 424V111q89 10 130.5 49z"/><glyph glyph-name="uni0445" unicode="х" horiz-adv-x="592" d="M413 0 295 165 173 0H3l207 271L10 538h175l114-157 117 157h166L382 275 590 0H413z"/><glyph glyph-name="uni0446" unicode="ц" horiz-adv-x="704" d="M681 128v-246H536V0H75v538h155V128h217v410h156V128h78z"/><glyph glyph-name="uni0447" unicode="ч" horiz-adv-x="634" d="M559 538V0H403v200q-68-34-150-34-109 0-164.5 49.5T33 369v169h156V379q0-49 25.5-71t73.5-22q61 0 115 26v226h156z"/><glyph glyph-name="uni0448" unicode="ш" horiz-adv-x="971" d="M896 538V0H75v538h155V128h179v410h155V128h177v410h155z"/><glyph glyph-name="uni0449" unicode="щ" horiz-adv-x="971" d="M896 538V0H75v538h155V128h179v410h155V128h177v410h155zm75-410v-235H826V0h-89v128h234z"/><glyph glyph-name="uni044A" unicode="ъ" horiz-adv-x="682" d="M604.5 319.5Q660 273 660 188q0-89-62.5-138.5T423 0H163v410H8v128h311V366h126q104 0 159.5-46.5zM479 131q22 21 22 60 0 74-87 74h-95V110h95q43 0 65 21z"/><glyph glyph-name="uni044B" unicode="ы" horiz-adv-x="859" d="M517 319q54-46 54-132 0-90-61-139T337-1L75 0v538h155V366h128q105-1 159-47zm112 219h155V0H629v538zM392 129q24 20 24 60 0 39-23.5 57T323 265l-93 1V110h93q45-1 69 19z"/><glyph glyph-name="uni044C" unicode="ь" horiz-adv-x="605" d="M527 318.5Q583 272 583 187q0-89-62.5-138.5T345-1L75 0v538h155V366h136q105-1 161-47.5zM400 129q24 20 24 60 0 39-23.5 57T331 265l-101 1V110h101q45-1 69 19z"/><glyph glyph-name="uni044D" unicode="э" horiz-adv-x="590" d="M412.5 512.5Q481 477 520 413t39-144-39-144-107.5-99.5T257-10q-77 0-139.5 25.5T14 89l89 84q61-63 148-63 58 0 100 29t57 79H182v107h224q-16 48-57 76t-98 28q-86 0-148-64l-89 83q41 49 103.5 74.5T257 548q87 0 155.5-35.5z"/><glyph glyph-name="uni044E" unicode="ю" horiz-adv-x="903" d="M731 510.5Q796 475 833 412t37-143-37-143-102-98.5T584-8q-71 0-130 26.5t-98 75T304 205h-74V0H75v538h155V340h75q23 94 98 150t181 56q82 0 147-35.5zm-52.5-350Q716 201 716 269q0 69-37.5 109T584 418q-58 0-95.5-40T451 269q0-68 37.5-108.5T584 120q57 0 94.5 40.5z"/><glyph glyph-name="uni044F" unicode="я" horiz-adv-x="628" d="M553 538V0H414v154H299L197 0H31l123 176q-56 22-85.5 63.5T39 340q0 95 68.5 146.5T296 538h257zM223.5 393Q198 375 198 335t24.5-58.5T297 258h117v153H299q-50 0-75.5-18z"/><glyph glyph-name="uni0450" unicode="ѐ" horiz-adv-x="643" d="M595 225H188q11-50 52-79t102-29q42 0 74.5 12.5T477 169l83-90Q484-8 338-8q-91 0-161 35.5T69 126 31 269q0 79 37.5 142.5t103 99T318 546q79 0 143-34t100.5-97.5T598 267q0-3-3-42zM230 398q-36-30-44-82h265q-8 51-44 81.5T319 428q-53 0-89-30zM103 751h168l135-144H284z"/><glyph glyph-name="uni0451" unicode="ё" horiz-adv-x="643" d="M595 225H188q11-50 52-79t102-29q42 0 74.5 12.5T477 169l83-90Q484-8 338-8q-91 0-161 35.5T69 126 31 269q0 79 37.5 142.5t103 99T318 546q79 0 143-34t100.5-97.5T598 267q0-3-3-42zM230 398q-36-30-44-82h265q-8 51-44 81.5T319 428q-53 0-89-30zm-66 233.5Q144 651 144 681t20 49.5 50 19.5 49.5-19.5T283 681t-19.5-49.5T214 612t-50 19.5zm202.5 0Q347 651 347 681t19.5 49.5T416 750t50-19.5 20-49.5-20-49.5-50-19.5-49.5 19.5z"/><glyph glyph-name="uni0452" unicode="ђ" horiz-adv-x="685" d="M563 486q61-60 61-178V1q0-94-53-148.5T422-202q-82 0-125 30l41 113q29-19 67-19 30 0 46.5 19.5T468 0v284q0 64-28 95.5T360 411q-59 0-94-36.5T231 266V0H75v591h-96v91h96v60h148v-60h227v-91H223V474q31 35 77 53.5T401 546q101 0 162-60z"/><glyph glyph-name="uni0453" unicode="ѓ" horiz-adv-x="514" d="M506 410H230V0H75v538h431V410zM336 750h168L323 606H201z"/><glyph glyph-name="uni0454" unicode="є" horiz-adv-x="592" d="M178.5 25.5Q110 61 71 125T32 269t39 144 107.5 99.5T334 548q77 0 139.5-25.5T577 449l-89-84q-61 63-148 63-58 0-100-29t-57-79h226V213H185q16-48 57-76t98-28q86 0 148 64l89-83q-41-49-103.5-74.5T334-10q-87 0-155.5 35.5z"/><glyph glyph-name="uni0455" unicode="ѕ" horiz-adv-x="551" d="M134 8.5Q70 25 32 50l52 112q36-23 87-37.5T271 110q99 0 99 49 0 23-27 33t-83 17q-66 10-109 23t-74.5 46T45 372q0 51 29.5 90.5t86 61.5T294 546q57 0 113.5-12.5T501 499l-52-111q-71 40-155 40-50 0-75-14t-25-36q0-25 27-35t86-19q66-11 108-23.5t73-45.5 31-92q0-50-30-89t-87.5-60.5T265-8Q198-8 134 8.5z"/><glyph glyph-name="uni0456" unicode="і" horiz-adv-x="305" d="M74 538h156V0H74v538zm8 100q-27 25-27 62t27 62 70 25 70-24 27-60q0-39-27-64.5T152 613t-70 25z"/><glyph glyph-name="uni0457" unicode="ї" horiz-adv-x="301" d="M72 538h156V0H72v538zm-50.5 94Q3 651 3 681t18.5 49T68 749t47-19 19-49-19-49-47-19-46.5 19zm163.5 0q-19 19-19 49t19 49 47 19 46.5-19 18.5-49-18.5-49-46.5-19-47 19z"/><glyph glyph-name="uni0458" unicode="ј" horiz-adv-x="306" d="m-96-172 42 113q27-19 66-19 30 0 47 19.5T76 0v538h156V1q0-94-53.5-148.5T29-202q-82 0-125 30zM84 638q-27 25-27 62t27 62 70 25 70-24 27-60q0-39-27-64.5T154 613t-70 25z"/><glyph glyph-name="uni0459" unicode="љ" horiz-adv-x="965" d="M591 538V0H435v410H265l-5-95q-4-106-20-176T188 29 88-11Q54-11 7 1l8 128q16-2 23-2 35 0 52.5 25.5t23.5 65 9 104.5l8 216h460zm296-219.5Q943 272 943 187q0-89-62.5-138.5T705-1L435 0v538h155V366h136q105-1 161-47.5zM760 129q24 20 24 60 0 39-23.5 57T691 265l-101 1V110h101q45-1 69 19z"/><glyph glyph-name="uni045A" unicode="њ" horiz-adv-x="972" d="M898 302q55-43 55-123 0-83-62-131T720 0H454v218H230V0H75v538h155V345h224v193h156V345h132q101 0 156-43zM772 125.5q22 17.5 22 48.5 0 30-21.5 46T710 236H610V108h100q40 0 62 17.5z"/><glyph glyph-name="uni045B" unicode="ћ" horiz-adv-x="685" d="M563 486q61-60 61-178V0H468v284q0 64-28 95.5T360 411q-59 0-94-36.5T231 266V0H75v594H-46v83H75v65h156v-65h208v-83H231V482q31 31 75 47.5t95 16.5q101 0 162-60z"/><glyph glyph-name="uni045C" unicode="ќ" horiz-adv-x="642" d="M312 204h-81V0H75v538h156V329h84l146 209h166L439 280 640 0H456zm62 547h168L361 607H239z"/><glyph glyph-name="uni045D" unicode="ѝ" horiz-adv-x="710" d="M75 538h155V218l262 320h143V0H480v320L219 0H75v538zm58 213h168l135-144H314z"/><glyph glyph-name="uni045E" unicode="ў" horiz-adv-x="614" d="M614 538 371-33q-37-93-91.5-131T148-202q-42 0-83 13t-67 36L55-42q18-16 41.5-25t46.5-9q32 0 52 15.5T231-9l2 5L0 538h161l151-365 152 365h150zM119 751h102q1-35 19.5-54.5T295 677t55.5 19.5T370 751h104q-1-155-178-155-176 0-177 155z"/><glyph glyph-name="uni045F" unicode="џ" horiz-adv-x="661" d="M586 0H404v-118H258V0H75v538h155V128h200v410h156V0z"/><glyph glyph-name="uni0462" unicode="Ѣ" horiz-adv-x="829" d="M732 405q67-58 67-167 0-113-74-175.5T516 0H194v544H17v103h177v95h160v-95h214V544H354v-81h186q125 0 192-58zM602.5 149q32.5 29 32.5 85 0 109-128 109H354V120h153q63 0 95.5 29z"/><glyph glyph-name="uni0463" unicode="ѣ" horiz-adv-x="648" d="M570 318.5Q626 272 626 188q0-90-62.5-139.5T388-1L118 0v474H0v100h118v168h156V574h191V474H274V366h136q104-1 160-47.5zM443 129q24 20 24 60 0 39-23.5 57T374 265l-100 1V110h100q45-1 69 19z"/><glyph glyph-name="uni046A" unicode="Ѫ" horiz-adv-x="945" d="M933 0H765l-37 110q-25 86-62.5 124T577 272h-31V0H398v272h-28q-53 0-91-37.5T216 110L179 0H12l57 145q42 121 100.5 176.5T309 382L105 600v100h735v-98L635 383q81-5 141-60.5T878 145zM282 585l189-202h2l190 202H282z"/><glyph glyph-name="uni046B" unicode="ѫ" horiz-adv-x="771" d="M764 0H612l-25 75q-18 67-43.5 95T477 198h-26V0H317v198h-23q-40 0-66-28.5T184 75L159 0H7l42 107q34 96 77.5 140T233 297L83 448v90h602v-90L534 297q65-5 110-48.5T723 107zM243 439l140-141 143 141H243z"/><glyph glyph-name="uni0472" unicode="Ѳ" horiz-adv-x="842" d="M224.5 35Q137 82 87.5 164.5T38 350t49.5 185.5 137 129.5T421 712t196-47 137-129.5T804 350t-50-185.5T617 35 421-12 224.5 35zM533 154.5q50 28.5 78.5 79.5T640 350t-28.5 116-78.5 79.5T421 574t-112-28.5-78.5-79.5T202 350t28.5-116 78.5-79.5T421 126t112 28.5zM90.872 404H756.97V296H90.872v108z"/><glyph glyph-name="uni0473" unicode="ѳ" horiz-adv-x="661" d="M484.5 510.5Q553 475 591.5 412T630 269t-38.5-143-107-98.5T330-8 176 27.5 69.5 126 31 269t38.5 143T176 510.5 330 546t154.5-35.5zM237 402q-38-30-51-83h289q-13 53-51.5 83T330 432t-93-30zm186.5-266q38.5 30 51.5 83H186q13-52 51.5-82.5T330 106q55 0 93.5 30z"/><glyph glyph-name="uni0474" unicode="Ѵ" horiz-adv-x="793" d="M9 700h175l191-477 119 333q28 81 74.5 119.5T687 714q41 0 92-12l-16-151q-30 7-45 7-35 0-57-23t-41-77L454 0H293z"/><glyph glyph-name="uni0475" unicode="ѵ" horiz-adv-x="648" d="M462 523q37 29 95 29 37 0 84-12l-15-147q-28 7-40 7-22 0-36-15.5T520 328L390 0H235L1 538h170l143-342 88 236q23 62 60 91z"/><glyph glyph-name="uni048A" unicode="Ҋ" horiz-adv-x="860" d="M216 898h111q2-73 83-73 40 0 61 18.5t22 54.5h111q-1-75-49-114t-145-39q-192 0-194 153zm620-766-79-277H629L658 0h-84v455L240 0H87v700h161V244l334 456h152V132h102z"/><glyph glyph-name="uni048B" unicode="ҋ" horiz-adv-x="737" d="M215 640q-51 41-54 111h98q1-32 25.5-51.5T345 680t60.5 19.5T431 751h98q-3-70-54-111t-130-41-130 41zm504-512-69-235H527L550 0h-70v320L219 0H75v538h155V218l262 320h143V128h84z"/><glyph glyph-name="uni048C" unicode="Ҍ" horiz-adv-x="752" d="M655.5 405Q722 347 722 238q0-113-74-175.5T439 0H117v544H23v103h94v95h160v-95h210V544H277v-81h186q126 0 192.5-58zm-130-256q32.5 29 32.5 85 0 109-128 109H277V120h153q63 0 95.5 29z"/><glyph glyph-name="uni048D" unicode="ҍ" horiz-adv-x="641" d="M565 302.5Q621 260 621 179q0-87-62.5-133.5T383-1L112 0v392H16v96h96v50h156v-50h191v-96H268v-46l136-1q105 0 161-42.5zM462 180q0 37-23 52.5T368 249H268V106l100-1q94-2 94 75z"/><glyph glyph-name="uni048E" unicode="Ҏ" horiz-adv-x="735" d="M666 315q-28-54-81-87l75-97-65-52-89 114q-53-14-115-14H250V0H87v700h304q93 0 161.5-31t105-89.5T694 440q0-71-28-125zm-252-2-78 100 64 52 94-121q37 34 37 96t-38 95-111 33H250V311h132q12 0 32 2z"/><glyph glyph-name="uni048F" unicode="ҏ" horiz-adv-x="703" d="M642 149.5Q620 96 580 59l57-73-62-49-62 78Q462-8 403-8 288-8 231 70v-264H75v732h149v-78q56 86 179 86 73 0 132.5-34.5t94-97.5T664 268q0-65-22-118.5zM422 129l-62 77 66 51 60-77q23 35 23 88 0 69-39 109.5T369 418t-101-40.5T229 268q0-68 39-108t101-40q29 0 53 9z"/><glyph glyph-name="uni0490" unicode="Ґ" horiz-adv-x="595" d="M87 700h344v144h150V568H248V0H87v700z"/><glyph glyph-name="uni0491" unicode="ґ" horiz-adv-x="502" d="M75 538h273v110h145V410H230V0H75v538z"/><glyph glyph-name="uni0492" unicode="Ғ" horiz-adv-x="640" d="M285 568V372h273V269H286V0H125v269H22v103h103v328h494l-1-132H285z"/><glyph glyph-name="uni0493" unicode="ғ" horiz-adv-x="549" d="M258 410V275h199v-95H258V0H103v180H29v95h74v263h431V410H258z"/><glyph glyph-name="uni0494" unicode="Ҕ" horiz-adv-x="706" d="M403 397q78 0 139-31t95.5-90T672 137q0-85-36.5-150.5t-101-102T390-152q-37 0-72 7l26 125q16-4 35-4 59 0 96 41t37 108q0 69-40 108t-103 39q-59 0-121-34V0H87v700h514V568H248V368q82 29 155 29z"/><glyph glyph-name="uni0495" unicode="ҕ" horiz-adv-x="627" d="M357 295q74 0 131.5-29t90-82.5T611 58q0-75-34-134t-96.5-92T337-201q-41 0-86 9l32 127q21-4 45-4 59 0 91 33t32 87q0 60-35 89.5T327 170q-50 0-97-21V0H75v538h424V410H230V275q64 20 127 20z"/><glyph glyph-name="uni0496" unicode="Җ" horiz-adv-x="1111" d="M722 282H620V0H461v282H357L200 0H13l210 366L26 700h171l157-283h107v283h159V417h104l158 283h171L857 366 1066 0H879zm374-150v-277H947V0h-68v132h217z"/><glyph glyph-name="uni0497" unicode="җ" horiz-adv-x="940" d="M608 204h-75V0H379v204h-75L190 0H6l169 278L18 538h165l119-209h77v209h154V329h76l120 209h165L737 278 907 0H722zm322-79v-233H789V0h-67v125h208z"/><glyph glyph-name="uni0498" unicode="Ҙ" horiz-adv-x="656" d="M580.5 299.5Q615 255 615 196q0-64-42-111T459.5 13 303-12q-72 0-143.5 18T24 61l50 116q46-28 101.5-42.5T284 120q72 0 119.5 26t47.5 73q0 39-32.5 59T330 298H159v122h159q49 0 76.5 20t27.5 55q0 41-39.5 64T281 582q-46 0-95-12.5T93 532L44 658q111 57 240 57 82 0 151-24t110-70 41-107q0-50-27-89t-74-60q61-21 95.5-65.5zM381-145H232V31h149v-176z"/><glyph glyph-name="uni0499" unicode="ҙ" horiz-adv-x="563" d="M473.5 54Q422 11 336-4v-103H190V-6Q95 3 19 42l42 109q85-41 188-41 55 0 86.5 16.5T367 173q0 26-22 39.5T281 226H171v97h96q41 0 63 13t22 38q0 26-27.5 40T246 428q-78 0-170-37L38 499q112 49 218 49 73 0 130.5-18t90.5-52.5 33-80.5q0-38-23-68.5T424 280q48-15 74.5-46t26.5-74q0-63-51.5-106z"/><glyph glyph-name="uni049A" unicode="Қ" horiz-adv-x="772" d="M358 282H246V0H85v700h161V417h116l184 283h171L488 362 724 0H540zm399-150v-277H608V0h-68v132h217z"/><glyph glyph-name="uni049B" unicode="қ" horiz-adv-x="642" d="M312 204h-81V0H75v538h156V329h84l146 209h166L439 280 640 0H456zm352-79v-233H523V0h-67v125h208z"/><glyph glyph-name="uni049C" unicode="Ҝ" horiz-adv-x="775" d="M414 282h-30V163h-87v119h-51V0H85v700h161V417h51v120h87V417h33l159 283h171L547 362 763 0H573z"/><glyph glyph-name="uni049D" unicode="ҝ" horiz-adv-x="657" d="M356 204h-18v-79h-78v79h-34V0H70v538h156V329h35v85h77v-85h19l119 209h162L481 278 652 0H470z"/><glyph glyph-name="uni049E" unicode="Ҟ" horiz-adv-x="758" d="M381 282H269V0H108v538H25v88h83v74h161v-74h138v-88H269V417h116l184 283h171L511 362 747 0H563z"/><glyph glyph-name="uni049F" unicode="ҟ" horiz-adv-x="640" d="M310 204h-80V0H74v591h-87v92h87v59h156v-60h134v-91H230V329h83l147 209h166L437 280 638 0H454z"/><glyph glyph-name="uni04A0" unicode="Ҡ" horiz-adv-x="861" d="M483 282H372V0H211v568H15v132h357V417h116l184 283h171L614 362 849 0H665z"/><glyph glyph-name="uni04A1" unicode="ҡ" horiz-adv-x="728" d="M399 204h-82V0H161v413H8v125h309V329h84l147 209h165L525 280 726 0H542z"/><glyph glyph-name="uni04A2" unicode="Ң" horiz-adv-x="852" d="M729 700V0H567v287H249V0H87v700h162V424h318v276h162zm100-568v-277H679V0H570v132h259z"/><glyph glyph-name="uni04A3" unicode="ң" horiz-adv-x="720" d="M75 538h155V328h234v210h156V0H464v201H230V0H75v538zm623-410v-235H553V0h-89v128h234z"/><glyph glyph-name="uni04A4" unicode="Ҥ" horiz-adv-x="1078" d="M729 700V0H567v287H249V0H87v700h162V424h318v276h162zm334-132H730l1-568H570v700h494z"/><glyph glyph-name="uni04A5" unicode="ҥ" horiz-adv-x="903" d="M75 538h155V328h234v210h156V0H464v201H230V0H75v538zm820-128H619V0H464v538h431V410z"/><glyph glyph-name="uni04A6" unicode="Ҧ" horiz-adv-x="1178" d="M879 396q79 0 140-31t95-90 34-138q0-85-36.5-150.5t-101-102T866-152q-37 0-72 7l26 125q16-4 35-4 59 0 96 41t37 108q0 68-38 106.5T849 270q-59 0-124-32V0H564v568H248V0H87v700h638V368q80 28 154 28z"/><glyph glyph-name="uni04A7" unicode="ҧ" horiz-adv-x="995" d="M728 295q74 0 131.5-29t89.5-82.5T981 58q0-75-34.5-134t-97-92T706-201q-41 0-86 9l32 127q21-4 45-4 60 0 92 33t32 87q0 60-35 89.5T696 170q-49 0-95-20V0H446v410H230V0H75v538h526V275q68 20 127 20z"/><glyph glyph-name="uni04A8" unicode="Ҩ" horiz-adv-x="977" d="M785-23q-95 0-177 35-78-26-161-26-113 0-205 47.5t-145.5 136T43 378q0 102 41 190.5T201 716l131-65q-59-52-92.5-126T206 371q0-83 35-144.5t96.5-94.5T476 99q-58 57-90 133.5T354 400q0 95 35.5 166.5t100.5 111T641 717q83 0 145-36.5t96-103T916 421q0-100-43-185T755 92q21-3 44-3 54 0 114 17L925-4q-70-19-140-19zM538.5 540.5Q503 491 503 402q0-87 33.5-155T630 138q64 38 100.5 107.5T767 409q0 86-34 133.5T638 590q-64 0-99.5-49.5z"/><glyph glyph-name="uni04A9" unicode="ҩ" horiz-adv-x="833" d="M670-22q-84 0-156 30-68-19-136-19-102 0-179.5 37.5T78 133 35 294q0 78 33 146t93 112l125-60q-46-43-70.5-95T191 289q0-84 51.5-135T384 98q-38 42-59.5 96T303 309q0 73 29.5 128t84.5 85 129 30q107 0 170.5-60.5T780 328q0-71-30-132.5T665 87q57-3 112 11l7-105q-52-15-114-15zM470.5 401Q444 369 444 312q0-60 24-107t68-77q49 28 76 76.5T639 318q0 55-25 85t-70 30q-47 0-73.5-32z"/><glyph glyph-name="uni04AA" unicode="Ҫ" horiz-adv-x="726" d="M224.5 34.5Q138 81 88.5 163.5T39 350t49.5 186.5 136 129T419 712q91 0 164.5-32T707 588l-104-96q-71 82-176 82-65 0-116-28.5T231.5 466 203 350t28.5-116 79.5-79.5T427 126q105 0 176 83l104-96q-50-61-124-93T418-12q-107 0-193.5 46.5zM473-145H324V31h149v-176z"/><glyph glyph-name="uni04AB" unicode="ҫ" horiz-adv-x="592" d="M176.5 27.5Q108 63 69.5 126T31 269t38.5 143 107 98.5T331 546q85 0 148.5-35.5T572 409l-121-65q-42 74-121 74-61 0-101-40t-40-109 40-109 101-40q80 0 121 74l121-66q-29-64-92.5-100T331-8q-86 0-154.5 35.5zM388-107H242V28h146v-135z"/><glyph glyph-name="uni04AC" unicode="Ҭ" horiz-adv-x="637" d="M622 568H398V0H238v568H15v132h607V568zM497 132v-277H347V0H238v132h259z"/><glyph glyph-name="uni04AD" unicode="ҭ" horiz-adv-x="535" d="M527 410H345V0H190v410H8v128h519V410zM424 128v-235H279V0h-89v128h234z"/><glyph glyph-name="uni04AE" unicode="Ү" horiz-adv-x="712" d="M437 248V0H275v250L4 700h172l187-311 187 311h159z"/><glyph glyph-name="uni04AF" unicode="ү" horiz-adv-x="616" d="M385-3v-191H229V-4L1 538h162l149-366 154 366h149z"/><glyph glyph-name="uni04B0" unicode="Ұ" horiz-adv-x="676" d="M419 248V0H257v250L-14 700h172l187-311 187 311h159zM71.258 312.521h524.154V203.712H71.258v108.809z"/><glyph glyph-name="uni04B1" unicode="ұ" horiz-adv-x="616" d="M385-3v-191H229V-4L1 538h162l149-366 154 366h149zM68.524 51h475.897v-90H68.524v90z"/><glyph glyph-name="uni04B2" unicode="Ҳ" horiz-adv-x="751" d="m213 700 145-212 145 212h190L460 365 712 0H521L358 232 197 0H10l250 358L26 700h187zm525-568v-277H589V0h-68v132h217z"/><glyph glyph-name="uni04B3" unicode="ҳ" horiz-adv-x="592" d="M413 0 295 165 173 0H3l207 271L10 538h175l114-157 117 157h166L382 275 590 0H413zm209 125v-233H481V0h-67v125h208z"/><glyph glyph-name="uni04B4" unicode="Ҵ" horiz-adv-x="993" d="M973 131v-280H824V-1H239v569H16v132h564V568H400V131h312v568h161V131h100z"/><glyph glyph-name="uni04B5" unicode="ҵ" horiz-adv-x="799" d="M774 128v-235H629V0H190v410H9v128h457V410H346V128h201v410h155V128h72z"/><glyph glyph-name="uni04B6" unicode="Ҷ" horiz-adv-x="784" d="M662 700V0H502v252q-91-33-169-33-141 0-216 67.5T42 481v219h160V499q0-72 38.5-108.5T352 354q80 0 150 31v315h160zm99-568v-277H611V0H502v132h259z"/><glyph glyph-name="uni04B7" unicode="ҷ" horiz-adv-x="667" d="M559 538V0H403v200q-68-34-150-34-109 0-164.5 49.5T33 369v169h156V379q0-49 25.5-71t73.5-22q61 0 115 26v226h156zm78-410v-235H492V0h-89v128h234z"/><glyph glyph-name="uni04B8" unicode="Ҹ" horiz-adv-x="749" d="M661 700V0H501v252q-54-20-109-28V101h-87v119q-128 6-196 73T41 481v219h160V499q0-120 104-141v118h87V356q58 6 109 29v315h160z"/><glyph glyph-name="uni04B9" unicode="ҹ" horiz-adv-x="634" d="M558 538V0H402v200q-31-16-72-25V81h-79v85Q32 166 32 369v169h156V379q0-75 64-89v88h78v-89q36 6 72 23v226h156z"/><glyph glyph-name="uni04BA" unicode="Һ" horiz-adv-x="749" d="M632 413.5Q707 346 707 219V0H547v201q0 72-38.5 108.5T397 346q-79 0-149-31V0H87v700h161V448q92 33 169 33 140 0 215-67.5z"/><glyph glyph-name="uni04BB" unicode="һ" horiz-adv-x="685" d="M562.5 486Q624 426 624 308V0H468v284q0 64-28 95.5T359 411q-59 0-94-36.5T230 266V0H74v742h156V482q31 31 75 47.5t96 16.5q100 0 161.5-60z"/><glyph glyph-name="uni04BC" unicode="Ҽ" horiz-adv-x="1018" d="M978 285H417q19-75 77-117.5T626 125q48 0 96 20.5t88 60.5l117-99q-62-59-141-89T624-12q-90 0-169.5 35T320 125t-69 160h-28q-93 0-146 50T24 465q0 56 27 117l137-24q-25-40-25-79 0-34 21-55t60-21h5q13 95 66.5 165T449 675t170 37q97 0 181-43t134.5-124T985 354q0-40-7-69zM487 529q-58-47-73-126h403q-13 80-69 126.5T619 576q-74 0-132-47z"/><glyph glyph-name="uni04BD" unicode="ҽ" horiz-adv-x="815" d="M783 225H365q12-50 54-79t105-29q43 0 76 12.5t63 39.5l85-90Q669-8 519-8q-85 0-152 29.5T258.5 104 207 225h-21q-82 0-125.5 34T17 354q0 42 21 94l121-21q-17-32-17-58 0-25 16-39t46-14h4q11 67 51 119.5T361 517t137 29q82 0 147.5-34T749 414.5 787 267q0-16-4-42zM408.5 398Q372 368 363 316h272q-8 51-45 81.5T499 428t-90.5-30z"/><glyph glyph-name="uni04BE" unicode="Ҿ" horiz-adv-x="1018" d="M978 285H417q19-75 77-117.5T626 125q48 0 96 20.5t88 60.5l117-99q-62-59-141-89T624-12q-90 0-169.5 35T320 125t-69 160h-28q-93 0-146 50T24 465q0 56 27 117l137-24q-25-40-25-79 0-34 21-55t60-21h5q13 95 66.5 165T449 675t170 37q97 0 181-43t134.5-124T985 354q0-40-7-69zM487 529q-58-47-73-126h403q-13 80-69 126.5T619 576q-74 0-132-47zm215-674H553V31h149v-176z"/><glyph glyph-name="uni04BF" unicode="ҿ" horiz-adv-x="815" d="M783 225H365q12-50 54-79t105-29q43 0 76 12.5t63 39.5l85-90Q669-8 519-8q-85 0-152 29.5T258.5 104 207 225h-21q-82 0-125.5 34T17 354q0 42 21 94l121-21q-17-32-17-58 0-25 16-39t46-14h4q11 67 51 119.5T361 517t137 29q82 0 147.5-34T749 414.5 787 267q0-16-4-42zM408.5 398Q372 368 363 316h272q-8 51-45 81.5T499 428t-90.5-30zM574-107H428V28h146v-135z"/><glyph glyph-name="uni04C0" unicode="Ӏ" horiz-adv-x="337" d="M87 700h162V0H87v700z"/><glyph glyph-name="uni04C1" unicode="Ӂ" horiz-adv-x="1079" d="M722 282H620V0H461v282H357L200 0H13l210 366L26 700h171l157-283h107v283h159V417h104l158 283h171L857 366 1066 0H879zM347 898h111q2-73 83-73 40 0 61 18.5t22 54.5h111q-1-75-49-114t-145-39q-192 0-194 153z"/><glyph glyph-name="uni04C2" unicode="ӂ" horiz-adv-x="913" d="M608 204h-75V0H379v204h-75L190 0H6l169 278L18 538h165l119-209h77v209h154V329h76l120 209h165L737 278 907 0H722zM280 751h102q1-35 19.5-54.5T456 677t55.5 19.5T531 751h104q-1-155-178-155-176 0-177 155z"/><glyph glyph-name="uni04C3" unicode="Ӄ" horiz-adv-x="744" d="M667.5 148Q726 60 726-13q0-90-54-141t-147-51q-69 0-131 30l38 116q34-16 58-16 27 0 42.5 17.5T548-8q0 51-52.5 129.5T364 282H249V0H87v700h162V417h115l184 283h171L491 363q118-127 176.5-215z"/><glyph glyph-name="uni04C4" unicode="ӄ" horiz-adv-x="642" d="M446 290q89-91 134-166.5T625-20q0-85-53.5-134T431-203q-64 0-128 29l39 111q35-16 62-16 30 0 47 17.5T468-12q0 41-36 97T332 204H231V0H75v538h156V330h85l145 208h166z"/><glyph glyph-name="uni04C6" unicode="ӆ" horiz-adv-x="693" d="m674 128-69-235H482L505 0h-70v410H265l-5-95q-4-106-20-176T188 29 88-11Q54-11 7 1l8 128q16-2 23-2 35 0 52.5 25.5t23.5 65 9 104.5l8 216h460V128h83z"/><glyph glyph-name="uni04C7" unicode="Ӈ" horiz-adv-x="814" d="M436-59q30-18 61-18t50 18 19 52v287H248V0H87v700h161V413h318v287h160V-11q0-63-27.5-106.5t-73-65T526-204q-68 0-130 32z"/><glyph glyph-name="uni04C8" unicode="ӈ" horiz-adv-x="697" d="M353.5-194.5Q320-187 297-172l41 112q27-19 63-19 31 0 48.5 20T467 0v201H230V0H75v538h155V328h237v210h156V-2q0-92-52.5-146T424-202q-37 0-70.5 7.5z"/><glyph glyph-name="uni04C9" unicode="Ӊ" horiz-adv-x="856" d="m832 132-79-277H625L654 0h-87v287H249V0H87v700h162V424h318v276h162V132h103z"/><glyph glyph-name="uni04CA" unicode="ӊ" horiz-adv-x="721" d="m703 128-69-235H511L534 0h-70v201H230V0H75v538h155V328h234v210h156V128h83z"/><glyph glyph-name="uni04CB" unicode="Ӌ" horiz-adv-x="744" d="M657 700V0H521v-145H372v277h125v154q-90-33-167-33-141 0-216 63.5T39 501v199h160V519q0-64 38.5-97.5T349 388q81 0 148 30v282h160z"/><glyph glyph-name="uni04CC" unicode="ӌ" horiz-adv-x="629" d="M555 538V0H453v-107H307v228h92v106q-69-33-150-33-220 0-220 202v142h155V406q0-48 25.5-70t75.5-22q60 0 114 26v198h156z"/><glyph glyph-name="uni04CD" unicode="Ӎ" horiz-adv-x="1017" d="m993 132-79-277H786L815 0h-91l-1 419L517 74h-72L239 411V0H87v700h134l262-435 258 435h134l1-568h117z"/><glyph glyph-name="uni04CE" unicode="ӎ" horiz-adv-x="858" d="m839 128-69-235H647L670 0h-70v322L439 52h-66L216 323V0H75v538h163l172-311 183 311h146l2-410h98z"/><glyph glyph-name="uni04CF" unicode="ӏ" horiz-adv-x="305" d="M74 742h156V0H74v742z"/><glyph glyph-name="uni04D0" unicode="Ӑ" horiz-adv-x="799" d="M561 150H236L174 0H8l312 700h160L793 0H623zm-51 123L399 541 288 273h222zM206 898h111q2-73 83-73 40 0 61 18.5t22 54.5h111q-1-75-49-114t-145-39q-192 0-194 153z"/><glyph glyph-name="uni04D1" unicode="ӑ" horiz-adv-x="604" d="M476 486.5Q543 427 543 307V0H397v67Q353-8 233-8q-62 0-107.5 21T56 71t-24 84q0 75 56.5 118T263 316h124q0 51-31 78.5T263 422q-43 0-84.5-13.5T108 372L52 481q44 31 105.5 48T284 546q125 0 192-59.5zm-133-371q31 18.5 44 54.5v55H280q-96 0-96-63 0-30 23.5-47.5T272 97q40 0 71 18.5zM123 751h102q1-35 19.5-54.5T299 677t55.5 19.5T374 751h104q-1-155-178-155-176 0-177 155z"/><glyph glyph-name="uni04D2" unicode="Ӓ" horiz-adv-x="799" d="M561 150H236L174 0H8l312 700h160L793 0H623zm-51 123L399 541 288 273h222zM249 781.5Q229 801 229 831t20 49.5 50 19.5 49.5-19.5T368 831t-19.5-49.5T299 762t-50 19.5zm202.5 0Q432 801 432 831t19.5 49.5T501 900t50-19.5 20-49.5-20-49.5-50-19.5-49.5 19.5z"/><glyph glyph-name="uni04D3" unicode="ӓ" horiz-adv-x="604" d="M476 486.5Q543 427 543 307V0H397v67Q353-8 233-8q-62 0-107.5 21T56 71t-24 84q0 75 56.5 118T263 316h124q0 51-31 78.5T263 422q-43 0-84.5-13.5T108 372L52 481q44 31 105.5 48T284 546q125 0 192-59.5zm-133-371q31 18.5 44 54.5v55H280q-96 0-96-63 0-30 23.5-47.5T272 97q40 0 71 18.5zm-194 516Q129 651 129 681t20 49.5 50 19.5 49.5-19.5T268 681t-19.5-49.5T199 612t-50 19.5zm202.5 0Q332 651 332 681t19.5 49.5T401 750t50-19.5 20-49.5-20-49.5-50-19.5-49.5 19.5z"/><glyph glyph-name="uni04D4" unicode="Ӕ" horiz-adv-x="1091" d="M1047 130V0H505v150H252L170 0H4l395 700h635V570H666V418h326V292H666V130h381zM505 273v297h-23L319 273h186z"/><glyph glyph-name="uni04D5" unicode="ӕ" horiz-adv-x="995" d="M955 226H547q11-51 51-80t102-29q78 0 136 52l83-90q-39-43-95.5-65T697-8q-71 0-131 23T464 85Q402-8 258-8 153-8 92.5 38T32 161q0 70 57 113t174 43h124q0 50-31 77.5T264 422q-43 0-85-13.5T108 372L52 481q44 31 105 48t126 17q136 0 198-76 37 36 88 56t110 20q77 0 141-34t101-97 37-144q0-25-3-45zM591 399q-37-29-46-82h262q-8 53-44.5 82T677 428t-86-29zM357 125q30 28 30 76v25H280q-96 0-96-62 0-32 23.5-49.5T274 97q53 0 83 28z"/><glyph glyph-name="uni04D6" unicode="Ӗ" horiz-adv-x="673" d="M629 130V0H87v700h529V570H248V418h325V292H248V130h381zM158 898h111q2-73 83-73 40 0 61 18.5t22 54.5h111q-1-75-49-114t-145-39q-192 0-194 153z"/><glyph glyph-name="uni04D7" unicode="ӗ" horiz-adv-x="643" d="M595 225H188q11-50 52-79t102-29q42 0 74.5 12.5T477 169l83-90Q484-8 338-8q-91 0-161 35.5T69 126 31 269q0 79 37.5 142.5t103 99T318 546q79 0 143-34t100.5-97.5T598 267q0-3-3-42zM230 398q-36-30-44-82h265q-8 51-44 81.5T319 428q-53 0-89-30zm-92 353h102q1-35 19.5-54.5T314 677t55.5 19.5T389 751h104q-1-155-178-155-176 0-177 155z"/><glyph glyph-name="uni04D8" unicode="Ә" horiz-adv-x="821" d="M587 669.5Q675 627 728.5 545T782 351q0-111-53-193.5t-140-126T402-12q-99 0-183.5 43T83 155 32 346q0 32 6 65h573q-19 76-79 120t-137 44q-49 0-97.5-20.5T208 494L91 593q62 58 142.5 88.5T397 712q102 0 190-42.5zm-47-497Q599 221 614 302H199q12-82 69.5-130T403 124q78 0 137 48.5z"/><glyph glyph-name="uni04D9" unicode="ә" horiz-adv-x="643" d="M466 510.5Q536 475 574 412t38-143q0-79-37.5-142.5t-103-99T325-8q-79 0-143 34T81.5 123.5 45 271q0 3 3 42h407q-11 50-52 79t-102 29q-42 0-74.5-12.5T166 369l-83 90q76 87 222 87 91 0 161-35.5zM413 140q36 30 44 82H192q8-51 44-81.5t88-30.5q53 0 89 30z"/><glyph glyph-name="uni04DA" unicode="Ӛ" horiz-adv-x="821" d="M587 669.5Q675 627 728.5 545T782 351q0-111-53-193.5t-140-126T402-12q-99 0-183.5 43T83 155 32 346q0 32 6 65h573q-19 76-79 120t-137 44q-49 0-97.5-20.5T208 494L91 593q62 58 142.5 88.5T397 712q102 0 190-42.5zm-47-497Q599 221 614 302H199q12-82 69.5-130T403 124q78 0 137 48.5zm-280 609Q240 801 240 831t20 49.5 50 19.5 49.5-19.5T379 831t-19.5-49.5T310 762t-50 19.5zm202.5 0Q443 801 443 831t19.5 49.5T512 900t50-19.5 20-49.5-20-49.5-50-19.5-49.5 19.5z"/><glyph glyph-name="uni04DB" unicode="ӛ" horiz-adv-x="643" d="M466 510.5Q536 475 574 412t38-143q0-79-37.5-142.5t-103-99T325-8q-79 0-143 34T81.5 123.5 45 271q0 3 3 42h407q-11 50-52 79t-102 29q-42 0-74.5-12.5T166 369l-83 90q76 87 222 87 91 0 161-35.5zM413 140q36 30 44 82H192q8-51 44-81.5t88-30.5q53 0 89 30zM177 631.5Q157 651 157 681t20 49.5 50 19.5 49.5-19.5T296 681t-19.5-49.5T227 612t-50 19.5zm202.5 0Q360 651 360 681t19.5 49.5T429 750t50-19.5 20-49.5-20-49.5-50-19.5-49.5 19.5z"/><glyph glyph-name="uni04DC" unicode="Ӝ" horiz-adv-x="1079" d="M722 282H620V0H461v282H357L200 0H13l210 366L26 700h171l157-283h107v283h159V417h104l158 283h171L857 366 1066 0H879zM390 781.5Q370 801 370 831t20 49.5 50 19.5 49.5-19.5T509 831t-19.5-49.5T440 762t-50 19.5zm202.5 0Q573 801 573 831t19.5 49.5T642 900t50-19.5 20-49.5-20-49.5-50-19.5-49.5 19.5z"/><glyph glyph-name="uni04DD" unicode="ӝ" horiz-adv-x="913" d="M608 204h-75V0H379v204h-75L190 0H6l169 278L18 538h165l119-209h77v209h154V329h76l120 209h165L737 278 907 0H722zM306 631.5Q286 651 286 681t20 49.5 50 19.5 49.5-19.5T425 681t-19.5-49.5T356 612t-50 19.5zm202.5 0Q489 651 489 681t19.5 49.5T558 750t50-19.5 20-49.5-20-49.5-50-19.5-49.5 19.5z"/><glyph glyph-name="uni04DE" unicode="Ӟ" horiz-adv-x="656" d="M580.5 299.5Q615 255 615 196q0-64-42-111T459.5 13 303-12q-72 0-143.5 18T24 61l50 116q46-28 101.5-42.5T284 120q72 0 119.5 26t47.5 73q0 39-32.5 59T330 298H159v122h159q49 0 76.5 20t27.5 55q0 41-39.5 64T281 582q-46 0-95-12.5T93 532L44 658q111 57 240 57 82 0 151-24t110-70 41-107q0-50-27-89t-74-60q61-21 95.5-65.5zM173 781.5Q153 801 153 831t20 49.5 50 19.5 49.5-19.5T292 831t-19.5-49.5T223 762t-50 19.5zm202.5 0Q356 801 356 831t19.5 49.5T425 900t50-19.5 20-49.5-20-49.5-50-19.5-49.5 19.5z"/><glyph glyph-name="uni04DF" unicode="ӟ" horiz-adv-x="563" d="M498.5 234q26.5-31 26.5-74 0-51-35-89.5T394 11 256-10q-63 0-124 13T19 42l42 109q85-41 188-41 55 0 86.5 16.5T367 173q0 26-22 39.5T281 226H171v97h96q41 0 63 13t22 38q0 26-27.5 40T246 428q-78 0-170-37L38 499q112 49 218 49 73 0 130.5-18t90.5-52.5 33-80.5q0-38-23-68.5T424 280q48-15 74.5-46zM126 631.5Q106 651 106 681t20 49.5 50 19.5 49.5-19.5T245 681t-19.5-49.5T176 612t-50 19.5zm202.5 0Q309 651 309 681t19.5 49.5T378 750t50-19.5 20-49.5-20-49.5-50-19.5-49.5 19.5z"/><glyph glyph-name="uni04E0" unicode="Ӡ" horiz-adv-x="638" d="M548 348q53-53 53-133 0-62-33-113.5T467 19 299-12q-78 0-152 19.5T25 62l55 125q42-31 98.5-48T294 122q67 0 105 24.5t38 67.5q0 42-35 65t-107 23h-75v105l156 164H54v129h511V595L395 416q100-15 153-68z"/><glyph glyph-name="uni04E1" unicode="ӡ" horiz-adv-x="554" d="M480 170.5Q530 115 530 31q0-64-31.5-117t-96-84.5T243-202q-75 0-144.5 20.5T-18-124L37 1q39-32 92-50t108-18q62 0 97 26t35 72q0 45-32 70.5T239 127h-74v104l148 178H10v129h486V433L335 240q95-14 145-69.5z"/><glyph glyph-name="uni04E2" unicode="Ӣ" horiz-adv-x="821" d="M87 700h161V244l334 456h152V0H574v455L240 0H87v700zm138 173h370v-88H225v88z"/><glyph glyph-name="uni04E3" unicode="ӣ" horiz-adv-x="710" d="M75 538h155V218l262 320h143V0H480v320L219 0H75v538zm85 185h370v-88H160v88z"/><glyph glyph-name="uni04E4" unicode="Ӥ" horiz-adv-x="821" d="M87 700h161V244l334 456h152V0H574v455L240 0H87v700zm172 81.5Q239 801 239 831t20 49.5 50 19.5 49.5-19.5T378 831t-19.5-49.5T309 762t-50 19.5zm202.5 0Q442 801 442 831t19.5 49.5T511 900t50-19.5 20-49.5-20-49.5-50-19.5-49.5 19.5z"/><glyph glyph-name="uni04E5" unicode="ӥ" horiz-adv-x="710" d="M75 538h155V218l262 320h143V0H480v320L219 0H75v538zm119 93.5Q174 651 174 681t20 49.5 50 19.5 49.5-19.5T313 681t-19.5-49.5T244 612t-50 19.5zm202.5 0Q377 651 377 681t19.5 49.5T446 750t50-19.5 20-49.5-20-49.5-50-19.5-49.5 19.5z"/><glyph glyph-name="uni04E6" unicode="Ӧ" horiz-adv-x="842" d="M224.5 35Q137 82 87.5 164.5T38 350t49.5 185.5 137 129.5T421 712t196-47 137-129.5T804 350t-50-185.5T617 35 421-12 224.5 35zM533 154.5q50 28.5 78.5 79.5T640 350t-28.5 116-78.5 79.5T421 574t-112-28.5-78.5-79.5T202 350t28.5-116 78.5-79.5T421 126t112 28.5zm-263 627Q250 801 250 831t20 49.5 50 19.5 49.5-19.5T389 831t-19.5-49.5T320 762t-50 19.5zm202.5 0Q453 801 453 831t19.5 49.5T522 900t50-19.5 20-49.5-20-49.5-50-19.5-49.5 19.5z"/><glyph glyph-name="uni04E7" unicode="ӧ" horiz-adv-x="654" d="M174.5 27.5Q107 63 69 126T31 269t38 143 105.5 98.5T327 546t152-35.5T584 412t38-143-38-143-105-98.5T327-8 174.5 27.5zm251 133Q464 201 464 269t-38.5 108.5T327 418t-99-40.5T189 269t39-108.5 99-40.5 98.5 40.5zM174 631.5Q154 651 154 681t20 49.5 50 19.5 49.5-19.5T293 681t-19.5-49.5T224 612t-50 19.5zm202.5 0Q357 651 357 681t19.5 49.5T426 750t50-19.5 20-49.5-20-49.5-50-19.5-49.5 19.5z"/><glyph glyph-name="uni04E8" unicode="Ө" horiz-adv-x="842" d="M224.5 35Q137 82 87.5 164.5T38 350t49.5 185.5 137 129.5T421 712t196-47 137-129.5T804 350t-50-185.5T617 35 421-12 224.5 35zM533 154.5q50 28.5 78.5 79.5T640 350t-28.5 116-78.5 79.5T421 574t-112-28.5-78.5-79.5T202 350t28.5-116 78.5-79.5T421 126t112 28.5zM90.872 404H756.97V296H90.872v108z"/><glyph glyph-name="uni04E9" unicode="ө" horiz-adv-x="661" d="M484.5 510.5Q553 475 591.5 412T630 269t-38.5-143-107-98.5T330-8 176 27.5 69.5 126 31 269t38.5 143T176 510.5 330 546t154.5-35.5zM237 402q-38-30-51-83h289q-13 53-51.5 83T330 432t-93-30zm186.5-266q38.5 30 51.5 83H186q13-52 51.5-82.5T330 106q55 0 93.5 30z"/><glyph glyph-name="uni04EA" unicode="Ӫ" horiz-adv-x="842" d="M224.5 35Q137 82 87.5 164.5T38 350t49.5 185.5 137 129.5T421 712t196-47 137-129.5T804 350t-50-185.5T617 35 421-12 224.5 35zM533 154.5q50 28.5 78.5 79.5T640 350t-28.5 116-78.5 79.5T421 574t-112-28.5-78.5-79.5T202 350t28.5-116 78.5-79.5T421 126t112 28.5zM90.872 404H756.97V296H90.872v108zM270 781.5Q250 801 250 831t20 49.5 50 19.5 49.5-19.5T389 831t-19.5-49.5T320 762t-50 19.5zm202.5 0Q453 801 453 831t19.5 49.5T522 900t50-19.5 20-49.5-20-49.5-50-19.5-49.5 19.5z"/><glyph glyph-name="uni04EB" unicode="ӫ" horiz-adv-x="661" d="M484.5 510.5Q553 475 591.5 412T630 269t-38.5-143-107-98.5T330-8 176 27.5 69.5 126 31 269t38.5 143T176 510.5 330 546t154.5-35.5zM237 402q-38-30-51-83h289q-13 53-51.5 83T330 432t-93-30zm186.5-266q38.5 30 51.5 83H186q13-52 51.5-82.5T330 106q55 0 93.5 30zM180 631.5Q160 651 160 681t20 49.5 50 19.5 49.5-19.5T299 681t-19.5-49.5T230 612t-50 19.5zm202.5 0Q363 651 363 681t19.5 49.5T432 750t50-19.5 20-49.5-20-49.5-50-19.5-49.5 19.5z"/><glyph glyph-name="uni04EC" unicode="Ӭ" horiz-adv-x="714" d="M497.5 665.5Q580 619 627 536.5T674 350t-47-186.5-129.5-129T311-12q-93 0-167.5 32T19 113l103 96q74-83 181-83 77 0 130.5 45T503 292H219v124h282q-17 72-70 115t-128 43q-107 0-181-83L19 587q50 61 124.5 93T311 712q104 0 186.5-46.5zM178 781.5Q158 801 158 831t20 49.5 50 19.5 49.5-19.5T297 831t-19.5-49.5T228 762t-50 19.5zm202.5 0Q361 801 361 831t19.5 49.5T430 900t50-19.5 20-49.5-20-49.5-50-19.5-49.5 19.5z"/><glyph glyph-name="uni04ED" unicode="ӭ" horiz-adv-x="590" d="M412.5 512.5Q481 477 520 413t39-144-39-144-107.5-99.5T257-10q-77 0-139.5 25.5T14 89l89 84q61-63 148-63 58 0 100 29t57 79H182v107h224q-16 48-57 76t-98 28q-86 0-148-64l-89 83q41 49 103.5 74.5T257 548q87 0 155.5-35.5zM126 631.5Q106 651 106 681t20 49.5 50 19.5 49.5-19.5T245 681t-19.5-49.5T176 612t-50 19.5zm202.5 0Q309 651 309 681t19.5 49.5T378 750t50-19.5 20-49.5-20-49.5-50-19.5-49.5 19.5z"/><glyph glyph-name="uni04EE" unicode="Ӯ" horiz-adv-x="724" d="M719 700 421 146Q378 66 317.5 25T186-16Q131-16 72 8l39 123q42-13 70-13 30 0 54 14.5t44 45.5l6 8L9 700h173l186-376 192 376h159zM174 873h370v-88H174v88z"/><glyph glyph-name="uni04EF" unicode="ӯ" horiz-adv-x="614" d="M614 538 371-33q-37-93-91.5-131T148-202q-42 0-83 13t-67 36L55-42q18-16 41.5-25t46.5-9q32 0 52 15.5T231-9l2 5L0 538h161l151-365 152 365h150zM111 723h370v-88H111v88z"/><glyph glyph-name="uni04F0" unicode="Ӱ" horiz-adv-x="724" d="M719 700 421 146Q378 66 317.5 25T186-16Q131-16 72 8l39 123q42-13 70-13 30 0 54 14.5t44 45.5l6 8L9 700h173l186-376 192 376h159zm-511 81.5Q188 801 188 831t20 49.5 50 19.5 49.5-19.5T327 831t-19.5-49.5T258 762t-50 19.5zm202.5 0Q391 801 391 831t19.5 49.5T460 900t50-19.5 20-49.5-20-49.5-50-19.5-49.5 19.5z"/><glyph glyph-name="uni04F1" unicode="ӱ" horiz-adv-x="614" d="M614 538 371-33q-37-93-91.5-131T148-202q-42 0-83 13t-67 36L55-42q18-16 41.5-25t46.5-9q32 0 52 15.5T231-9l2 5L0 538h161l151-365 152 365h150zm-469 93.5Q125 651 125 681t20 49.5 50 19.5 49.5-19.5T264 681t-19.5-49.5T195 612t-50 19.5zm202.5 0Q328 651 328 681t19.5 49.5T397 750t50-19.5 20-49.5-20-49.5-50-19.5-49.5 19.5z"/><glyph glyph-name="uni04F2" unicode="Ӳ" horiz-adv-x="724" d="M719 700 421 146Q378 66 317.5 25T186-16Q131-16 72 8l39 123q42-13 70-13 30 0 54 14.5t44 45.5l6 8L9 700h173l186-376 192 376h159zM273 901h146L315 757H201zm202 0h146L517 757H403z"/><glyph glyph-name="uni04F3" unicode="ӳ" horiz-adv-x="614" d="M614 538 371-33q-37-93-91.5-131T148-202q-42 0-83 13t-67 36L55-42q18-16 41.5-25t46.5-9q32 0 52 15.5T231-9l2 5L0 538h161l151-365 152 365h150zM210 751h146L252 607H138zm202 0h146L454 607H340z"/><glyph glyph-name="uni04F4" unicode="Ӵ" horiz-adv-x="749" d="M662 700V0H502v252q-91-33-169-33-141 0-216 67.5T42 481v219h160V499q0-72 38.5-108.5T352 354q80 0 150 31v315h160zm-458 81.5Q184 801 184 831t20 49.5 50 19.5 49.5-19.5T323 831t-19.5-49.5T254 762t-50 19.5zm202.5 0Q387 801 387 831t19.5 49.5T456 900t50-19.5 20-49.5-20-49.5-50-19.5-49.5 19.5z"/><glyph glyph-name="uni04F5" unicode="ӵ" horiz-adv-x="634" d="M559 538V0H403v200q-68-34-150-34-109 0-164.5 49.5T33 369v169h156V379q0-49 25.5-71t73.5-22q61 0 115 26v226h156zm-417 93.5Q122 651 122 681t20 49.5 50 19.5 49.5-19.5T261 681t-19.5-49.5T192 612t-50 19.5zm202.5 0Q325 651 325 681t19.5 49.5T394 750t50-19.5 20-49.5-20-49.5-50-19.5-49.5 19.5z"/><glyph glyph-name="uni04F6" unicode="Ӷ" horiz-adv-x="593" d="M580 568H247l1-568H87v700h494zM346 132v-277H196V0H87v132h259z"/><glyph glyph-name="uni04F7" unicode="ӷ" horiz-adv-x="514" d="M506 410H230V0H75v538h431V410zM309 128v-235H164V0H75v128h234z"/><glyph glyph-name="uni04F8" unicode="Ӹ" horiz-adv-x="1028" d="M622.5 413Q691 356 691 244q0-119-75.5-181.5T403 0H87v700h161V470h178q128 0 196.5-57zm-130-262q35.5 31 35.5 90 0 109-134 109H248V120h146q63 0 98.5 31zM780 700h161V0H780v700zm-414 81.5Q346 801 346 831t20 49.5 50 19.5 49.5-19.5T485 831t-19.5-49.5T416 762t-50 19.5zm202.5 0Q549 801 549 831t19.5 49.5T618 900t50-19.5 20-49.5-20-49.5-50-19.5-49.5 19.5z"/><glyph glyph-name="uni04F9" unicode="ӹ" horiz-adv-x="859" d="M517 319q54-46 54-132 0-90-61-139T337-1L75 0v538h155V366h128q105-1 159-47zm112 219h155V0H629v538zM392 129q24 20 24 60 0 39-23.5 57T323 265l-93 1V110h93q45-1 69 19zM285 631.5Q265 651 265 681t20 49.5 50 19.5 49.5-19.5T404 681t-19.5-49.5T335 612t-50 19.5zm202.5 0Q468 651 468 681t19.5 49.5T537 750t50-19.5 20-49.5-20-49.5-50-19.5-49.5 19.5z"/><glyph glyph-name="uni04FA" unicode="Ӻ" horiz-adv-x="641" d="M285 568V372h273V270H285V110h85V-11q0-61-26-104.5T273-181t-101-22q-68 0-133 32L78-66q30-17 62-17 33 0 53 20.5T213-3v3h-90v270H20v102h103v328h496V568H285z"/><glyph glyph-name="uni04FB" unicode="ӻ" horiz-adv-x="522" d="M264 410V302h188v-94H264V108h78V-5q0-92-54-144.5T143-202q-70 0-127 31L54-67q29-19 64-19 33 0 50.5 21T186-3v3h-78v208H22v94h86v236h393V410H264z"/><glyph glyph-name="uni04FC" unicode="Ӽ" horiz-adv-x="719" d="M457 366q86-103 133.5-165.5t76-118.5T695-23q0-57-27-98.5t-73-63T493-206q-68 0-130 31l38 111q32-15 57-15 27 0 43.5 17T518-15q0 41-41 103.5T359 242L193 0H8l257 357L19 700h185l160-225 158 225h176z"/><glyph glyph-name="uni04FD" unicode="ӽ" horiz-adv-x="594" d="M504.5 152q38.5-50 60-96T586-35q0-52-25.5-90t-69-58-97.5-20q-62 0-130 30l40 112q36-18 64-18t45 15.5T430-23q0 32-29 75.5T306 171L176 0H4l207 272L11 538h176l114-155 116 155h167L393 286q73-84 111.5-134z"/><glyph glyph-name="uni04FE" unicode="Ӿ" horiz-adv-x="731" d="M718 0H526L363 232 202 0H14l216 307H88v103h142L31 700h186l146-212 146 212h188L496 410h141V307H505z"/><glyph glyph-name="uni04FF" unicode="ӿ" horiz-adv-x="609" d="M418 0 302 163 180 0H10l169 221H76v94h106L18 538h177l113-158 117 158h165L422 315h113v-94H434L598 0H418z"/><glyph glyph-name="uni0510" unicode="Ԑ" horiz-adv-x="656" d="M632 61Q569 25 496.5 6.5T353-12q-85 0-156.5 25T83 85 41 196q0 59 34.5 103.5T170 365q-47 21-74 60t-27 89q0 61 41 107t110.5 70T372 715q61 0 122.5-14T612 658l-49-126q-44 25-93 37.5T375 582q-62 0-101.5-23T234 495q0-35 27.5-55t76.5-20h158V298H325q-56 0-88-20t-32-59q0-47 47.5-73T372 120q53 0 108.5 14.5T582 177z"/><glyph glyph-name="uni0511" unicode="ԑ" horiz-adv-x="562" d="M543 42Q491 16 430 3T306-10q-77 0-138 21T72 70.5 37 160q0 43 26.5 74t74.5 46q-40 18-63 48.5T52 397q0 46 33 80.5t90.5 52.5T306 548q106 0 218-49l-38-108q-93 37-170 37-51 0-78.5-14T210 374q0-25 22-38t63-13h96v-97H281q-42 0-64-13.5T195 173q0-30 31.5-46.5T313 110q103 0 188 41z"/><glyph glyph-name="uni0512" unicode="Ԓ" horiz-adv-x="799" d="M421-59q30-18 61-18t50 18 19 52v575H311l-5-146q-5-148-24-241T218 38.5 93-11Q62-11 13 0l10 137q15-4 29-4 40 0 63 32.5t33.5 93T163 416l10 284h538V-11q0-63-27.5-106.5t-73.5-65T510-204q-68 0-130 32z"/><glyph glyph-name="uni0513" unicode="ԓ" horiz-adv-x="666" d="M592 538V-1q0-92-53-146.5T391-202q-36 0-69.5 7.5T265-172l41 112q29-19 62-19t50.5 20T436 0v410H265l-5-95q-4-106-20-176T188 29 88-11Q54-11 7 1l8 128q16-2 23-2 35 0 52.5 25.5t23.5 65 9 104.5l8 216h461z"/><glyph glyph-name="uni051A" unicode="Ԛ" horiz-adv-x="847" d="M839-75q-34-42-82.5-64T650-161q-78 0-141 33.5T365-9Q270 3 195.5 52t-116 126.5T38 350q0 103 49.5 185.5t137 129.5T421 712t196-47 137-129.5T804 350q0-122-68.5-214T554 8q25-26 48.5-37.5T653-41q65 0 114 52zM230.5 234q28.5-51 78.5-79.5T421 126t112 28.5 78.5 79.5T640 350t-28.5 116-78.5 79.5T421 574t-112-28.5-78.5-79.5T202 350t28.5-116z"/><glyph glyph-name="uni051B" unicode="ԛ" horiz-adv-x="694" d="M619 538v-732H463V57Q405-8 302-8q-76 0-137.5 34T68 123 33 269t35 146 96.5 97T302 546q110 0 168-70v62h149zM427 160.5Q466 201 466 269t-39 108.5-98 40.5q-60 0-99-40.5T191 269t39-108.5 99-40.5q59 0 98 40.5z"/><glyph glyph-name="uni051C" unicode="Ԝ" horiz-adv-x="1127" d="M1113 700 886 0H715L566 471 412 0H241L13 700h168l155-485 159 485h150l153-488 160 488h155z"/><glyph glyph-name="uni051D" unicode="ԝ" horiz-adv-x="970" d="M965 538 767 0H606L486 338 364 0H202L4 538h158l125-355 131 355h143l126-356 131 356h147z"/><glyph glyph-name="uni0524" unicode="Ԥ" horiz-adv-x="847" d="M725 700V0H564v568H248V0H87v700h638zm98-568v-277H673V0H564v132h259z"/><glyph glyph-name="uni0525" unicode="ԥ" horiz-adv-x="685" d="M610 538V0H454v410H230V0H75v538h535zm78-410v-235H543V0h-89v128h234z"/><glyph glyph-name="uni0526" unicode="Ԧ" horiz-adv-x="822" d="M632 413.5Q707 346 707 219V0H547v201q0 72-38.5 108.5T397 346q-79 0-149-31V0H87v700h161V448q92 33 169 33 140 0 215-67.5zM806 132v-277H656V0H547v132h259z"/><glyph glyph-name="uni0527" unicode="ԧ" horiz-adv-x="722" d="M704 128v-235H559V0h-91v283q0 63-28 94.5T361 409q-60 0-95-37t-35-108V0H75v742h156V473q31 36 76 54.5t99 18.5q99 0 158.5-59.5T624 310V128h80z"/><glyph glyph-name="uni0528" unicode="Ԩ" horiz-adv-x="813" d="M-42-59q30-18 60-18 31 0 50 18T87-7v707h160V413h319v287h160V0H566v280H247V-11q0-63-27.5-106.5t-73.5-65T46-204q-67 0-129 32z"/><glyph glyph-name="uni0529" unicode="ԩ" horiz-adv-x="695" d="M621 538V0H465v204H231V-2q0-92-52.5-146T33-202q-38 0-71 7.5T-95-172l41 112q27-19 64-19 31 0 48 20T75 0v538h156V332h234v206h156z"/><glyph glyph-name="uni052E" unicode="Ԯ" horiz-adv-x="834" d="M711 700V0H551v568H311l-5-146q-5-149-24-241.5t-63.5-142T94-11Q61-11 14 0l10 137q13-4 29-4 58 0 81 68.5T163 416l10 284h538zm99-568v-277H660V0H551v132h259z"/><glyph glyph-name="uni052F" unicode="ԯ" horiz-adv-x="692" d="M591 538V0H435v410H265l-5-95q-4-106-20-176T188 29 88-11Q54-11 7 1l8 128q16-2 23-2 35 0 52.5 25.5t23.5 65 9 104.5l8 216h460zm78-410v-235H524V0h-89v128h234z"/><glyph glyph-name="uni1E08" unicode="Ḉ" horiz-adv-x="733" d="M224.5 34.5Q138 81 88.5 163.5T39 350t49.5 186.5 136 129T419 712q91 0 164.5-32T707 588l-104-96q-71 82-176 82-65 0-116-28.5T231.5 466 203 350t28.5-116 79.5-79.5T427 126q105 0 176 83l104-96q-50-61-124-93T418-12q-107 0-193.5 46.5zm88.5-261q-25 5.5-42 15.5l24 67q32-15 65-15 52 0 52 32 0 29-49 29h-34L355 8h83l-14-58q44-5 65.5-27.5T511-133q0-46-40-72.5T364-232q-26 0-51 5.5zM458 901h168L445 757H323z"/><glyph glyph-name="uni1E09" unicode="ḉ" horiz-adv-x="591" d="M177.5 27.5Q109 63 70.5 126T32 269t38.5 143 107 98.5T332 546q85 0 148.5-35.5T573 409l-121-65q-42 74-121 74-61 0-101-40t-40-109 40-109 101-40q80 0 121 74l121-66q-29-64-92.5-100T332-8q-86 0-154.5 35.5zm46.5-254q-25 5.5-42 15.5l24 67q32-15 65-15 52 0 52 32 0 29-49 29h-34L266 8h83l-14-58q44-5 65.5-27.5T422-133q0-46-40-72.5T275-232q-26 0-51 5.5zM357 751h168L344 607H222z"/><glyph glyph-name="uni1E0C" unicode="Ḍ" horiz-adv-x="826" d="M83 700h318q114 0 201.5-43.5t136-122.5T787 350t-48.5-184-136-122.5T401 0H83v700zm310-567q105 0 167.5 58.5T623 350t-62.5 158.5T393 567H245V133h148zm-69.5-324.5Q304-173 304-143t19.5 50T373-73q29 0 49-20t20-50-19.5-48.5T373-210t-49.5 18.5z"/><glyph glyph-name="uni1E0D" unicode="ḍ" horiz-adv-x="692" d="M620 742V0H471v62Q413-8 303-8q-76 0-137.5 34T69 123 34 269t35 146 96.5 97T303 546q103 0 161-65v261h156zM428 160.5Q467 201 467 269t-39 108.5-98 40.5q-60 0-99-40.5T192 269t39-108.5 99-40.5q59 0 98 40.5zm-114.5-352Q294-173 294-143t19.5 50T363-73q29 0 49-20t20-50-19.5-48.5T363-210t-49.5 18.5z"/><glyph glyph-name="uni1E0E" unicode="Ḏ" horiz-adv-x="826" d="M83 700h318q114 0 201.5-43.5t136-122.5T787 350t-48.5-184-136-122.5T401 0H83v700zm310-567q105 0 167.5 58.5T623 350t-62.5 158.5T393 567H245V133h148zM188-95h370v-87H188v87z"/><glyph glyph-name="uni1E0F" unicode="ḏ" horiz-adv-x="692" d="M620 742V0H471v62Q413-8 303-8q-76 0-137.5 34T69 123 34 269t35 146 96.5 97T303 546q103 0 161-65v261h156zM428 160.5Q467 201 467 269t-39 108.5-98 40.5q-60 0-99-40.5T192 269t39-108.5 99-40.5q59 0 98 40.5zM178-95h370v-87H178v87z"/><glyph glyph-name="uni1E14" unicode="Ḕ" horiz-adv-x="671" d="M625 130V0H83v700h529V570H244V418h325V292H244V130h381zM163 856h370v-83H163v83zm2 183h159l110-121H322z"/><glyph glyph-name="uni1E15" unicode="ḕ" horiz-adv-x="631" d="M596 225H189q11-50 52-79t102-29q42 0 74.5 12.5T478 169l83-90Q485-8 339-8q-91 0-161 35.5T70 126 32 269q0 79 37.5 142.5t103 99T319 546q79 0 143-34t100.5-97.5T599 267q0-3-3-42zM231 398q-36-30-44-82h265q-8 51-44 81.5T320 428q-53 0-89-30zM131 706h370v-83H131v83zm2 183h159l110-121H290z"/><glyph glyph-name="uni1E16" unicode="Ḗ" horiz-adv-x="671" d="M625 130V0H83v700h529V570H244V418h325V292H244V130h381zM163 856h370v-83H163v83zm210 183h159L375 918H262z"/><glyph glyph-name="uni1E17" unicode="ḗ" horiz-adv-x="631" d="M596 225H189q11-50 52-79t102-29q42 0 74.5 12.5T478 169l83-90Q485-8 339-8q-91 0-161 35.5T70 126 32 269q0 79 37.5 142.5t103 99T319 546q79 0 143-34t100.5-97.5T599 267q0-3-3-42zM231 398q-36-30-44-82h265q-8 51-44 81.5T320 428q-53 0-89-30zM131 706h370v-83H131v83zm210 183h159L343 768H230z"/><glyph glyph-name="uni1E1C" unicode="Ḝ" horiz-adv-x="671" d="M625 130V0H83v700h529V570H244V418h325V292H244V130h381zM269-226.5q-25 5.5-42 15.5l24 67q32-15 65-15 52 0 52 32 0 29-49 29h-34L311 8h83l-14-58q44-5 65.5-27.5T467-133q0-46-40-72.5T320-232q-26 0-51 5.5zM218 790q-51 41-54 111h98q1-32 25.5-51.5T348 830t60.5 19.5T434 901h98q-3-70-54-111t-130-41-130 41z"/><glyph glyph-name="uni1E1D" unicode="ḝ" horiz-adv-x="631" d="M596 225H189q11-50 52-79t102-29q42 0 74.5 12.5T478 169l83-90Q485-8 339-8q-91 0-161 35.5T70 126 32 269q0 79 37.5 142.5t103 99T319 546q79 0 143-34t100.5-97.5T599 267q0-3-3-42zM231 398q-36-30-44-82h265q-8 51-44 81.5T320 428q-53 0-89-30zm1-624.5q-25 5.5-42 15.5l24 67q32-15 65-15 52 0 52 32 0 29-49 29h-34L274 8h83l-14-58q44-5 65.5-27.5T430-133q0-46-40-72.5T283-232q-26 0-51 5.5zM186 640q-51 41-54 111h98q1-32 25.5-51.5T316 680t60.5 19.5T402 751h98q-3-70-54-111t-130-41-130 41z"/><glyph glyph-name="uni1E20" unicode="Ḡ" horiz-adv-x="771" d="M556 361h148V77q-57-43-132-66T421-12q-109 0-196 46.5t-136.5 129T39 350t49.5 186.5 137.5 129T424 712q92 0 167-31t126-90l-104-96q-75 79-181 79-67 0-119-28t-81-79-29-117q0-65 29-116t80.5-79.5T430 126q70 0 126 30v205zM232 873h370v-88H232v88z"/><glyph glyph-name="uni1E21" unicode="ḡ" horiz-adv-x="700" d="M627 538V90q0-148-77-220t-225-72q-78 0-148 19T61-128l62 112q34-28 86-44.5T313-77q81 0 119.5 36.5T471 70v23q-61-67-170-67-74 0-135.5 32.5T68 150 32 286t36 136 97.5 91.5T301 546q117 0 178-77v69h148zM433.5 190.5Q473 227 473 286t-39.5 95.5T332 418t-102-36.5-40-95.5 40-95.5T332 154t101.5 36.5zM156 723h370v-88H156v88z"/><glyph glyph-name="uni1E24" unicode="Ḥ" horiz-adv-x="808" d="M725 700V0H563v287H245V0H83v700h162V424h318v276h162zM354.5-191.5Q335-173 335-143t19.5 50T404-73q29 0 49-20t20-50-19.5-48.5T404-210t-49.5 18.5z"/><glyph glyph-name="uni1E25" unicode="ḥ" horiz-adv-x="691" d="M560.5 486Q622 426 622 308V0H466v284q0 64-28 95.5T357 411q-59 0-94-36.5T228 266V0H72v742h156V482q31 31 75 47.5t96 16.5q100 0 161.5-60zm-262-677.5Q279-173 279-143t19.5 50T348-73q29 0 49-20t20-50-19.5-48.5T348-210t-49.5 18.5z"/><glyph glyph-name="uni1E2A" unicode="Ḫ" horiz-adv-x="808" d="M725 700V0H563v287H245V0H83v700h162V424h318v276h162zM275-177.5Q224-138 220-74h93q1-30 26.5-48.5T404-141t64.5 18.5T495-74h93q-4-64-55-103.5T404-217t-129 39.5z"/><glyph glyph-name="uni1E2B" unicode="ḫ" horiz-adv-x="691" d="M560.5 486Q622 426 622 308V0H466v284q0 64-28 95.5T357 411q-59 0-94-36.5T228 266V0H72v742h156V482q31 31 75 47.5t96 16.5q100 0 161.5-60zM219-177.5Q168-138 164-74h93q1-30 26.5-48.5T348-141t64.5 18.5T439-74h93q-4-64-55-103.5T348-217t-129 39.5z"/><glyph glyph-name="uni1E2E" unicode="Ḯ" horiz-adv-x="328" d="M83 700h162V0H83v700zm-64 80.5Q0 799 0 828q0 28 19 47t47 19q29 0 48-19t19-47q0-29-19-47.5T66 762q-28 0-47 18.5zm196 0Q196 799 196 828q0 28 19.5 47t46.5 19q28 0 47-19t19-47q0-29-19-47.5T262 762t-47 18.5zM189 1039h159L191 918H78z"/><glyph glyph-name="uni1E2F" unicode="ḯ" horiz-adv-x="301" d="M72 538h156V0H72v538zM5 630.5Q-14 649-14 678q0 28 19 47t47 19q29 0 48-19t19-47q0-29-19-47.5T52 612q-28 0-47 18.5zm196 0Q182 649 182 678q0 28 19.5 47t46.5 19q28 0 47-19t19-47q0-29-19-47.5T248 612t-47 18.5zM175 889h159L177 768H64z"/><glyph glyph-name="uni1E36" unicode="Ḷ" horiz-adv-x="604" d="M83 700h162V132h351V0H83v700zm218.5-891.5Q282-173 282-143t19.5 50T351-73q29 0 49-20t20-50-19.5-48.5T351-210t-49.5 18.5z"/><glyph glyph-name="uni1E37" unicode="ḷ" horiz-adv-x="301" d="M72 742h156V0H72v742zm28.5-933.5Q81-173 81-143t19.5 50T150-73q29 0 49-20t20-50-19.5-48.5T150-210t-49.5 18.5z"/><glyph glyph-name="uni1E3A" unicode="Ḻ" horiz-adv-x="604" d="M83 700h162V132h351V0H83v700zm83-795h370v-87H166v87z"/><glyph glyph-name="uni1E3B" unicode="ḻ" horiz-adv-x="301" d="M72 742h156V0H72v742zM-35-95h370v-87H-35v87z"/><glyph glyph-name="uni1E42" unicode="Ṃ" horiz-adv-x="955" d="m720 0-1 420L513 74h-73L235 411V0H83v700h134l262-435 258 435h133l2-700H720zM427.5-191.5Q408-173 408-143t19.5 50T477-73q29 0 49-20t20-50-19.5-48.5T477-210t-49.5 18.5z"/><glyph glyph-name="uni1E43" unicode="ṃ" horiz-adv-x="1049" d="M921.5 486.5Q981 427 981 308V0H825v284q0 64-26.5 95.5T723 411q-55 0-87-35.5T604 270V0H448v284q0 127-102 127-54 0-86-35.5T228 270V0H72v538h149v-62q30 34 73.5 52t95.5 18q57 0 103-22.5t74-65.5q33 42 83.5 65T761 546q101 0 160.5-59.5zm-446-678Q456-173 456-143t19.5 50T525-73q29 0 49-20t20-50-19.5-48.5T525-210t-49.5 18.5z"/><glyph glyph-name="uni1E44" unicode="Ṅ" horiz-adv-x="808" d="M725 700V0H592L243 425V0H83v700h134l348-425v425h160zm-381.5 86Q320 810 320 847q0 36 23.5 60t60.5 24 60.5-24 23.5-60q0-37-23.5-61T404 762t-60.5 24z"/><glyph glyph-name="uni1E45" unicode="ṅ" horiz-adv-x="691" d="M560.5 486Q622 426 622 308V0H466v284q0 64-28 95.5T357 411q-59 0-94-36.5T228 266V0H72v538h149v-63q31 34 77 52.5T399 546q100 0 161.5-60zm-273 150Q264 660 264 697q0 36 23.5 60t60.5 24 60.5-24 23.5-60q0-37-23.5-61T348 612t-60.5 24z"/><glyph glyph-name="uni1E46" unicode="Ṇ" horiz-adv-x="808" d="M725 700V0H592L243 425V0H83v700h134l348-425v425h160zM354.5-191.5Q335-173 335-143t19.5 50T404-73q29 0 49-20t20-50-19.5-48.5T404-210t-49.5 18.5z"/><glyph glyph-name="uni1E47" unicode="ṇ" horiz-adv-x="691" d="M560.5 486Q622 426 622 308V0H466v284q0 64-28 95.5T357 411q-59 0-94-36.5T228 266V0H72v538h149v-63q31 34 77 52.5T399 546q100 0 161.5-60zm-262-677.5Q279-173 279-143t19.5 50T348-73q29 0 49-20t20-50-19.5-48.5T348-210t-49.5 18.5z"/><glyph glyph-name="uni1E48" unicode="Ṉ" horiz-adv-x="808" d="M725 700V0H592L243 425V0H83v700h134l348-425v425h160zM219-95h370v-87H219v87z"/><glyph glyph-name="uni1E49" unicode="ṉ" horiz-adv-x="691" d="M560.5 486Q622 426 622 308V0H466v284q0 64-28 95.5T357 411q-59 0-94-36.5T228 266V0H72v538h149v-63q31 34 77 52.5T399 546q100 0 161.5-60zM163-95h370v-87H163v87z"/><glyph glyph-name="uni1E4C" unicode="Ṍ" horiz-adv-x="844" d="M225.5 35Q138 82 88.5 164.5T39 350t49.5 185.5 137 129.5T422 712t196-47 137-129.5T805 350t-50-185.5T618 35 422-12 225.5 35zM534 154.5q50 28.5 78.5 79.5T641 350t-28.5 116-78.5 79.5T422 574t-112-28.5-78.5-79.5T203 350t28.5-116 78.5-79.5T422 126t112 28.5zm-86 609q-21 8.5-46 24.5-12 7-23.5 13t-20.5 6q-20 0-31-12t-13-34h-80q1 60 31.5 92.5T350 886q26 0 44.5-8t46.5-24q16-10 26.5-15t20.5-5q20 0 31 12.5t13 32.5h78q-1-58-31-91t-83-33q-27 0-48 8.5zm-1 275.5h159L449 918H336z"/><glyph glyph-name="uni1E4D" unicode="ṍ" horiz-adv-x="655" d="M175.5 27.5Q108 63 70 126T32 269t38 143 105.5 98.5T328 546t152-35.5T585 412t38-143-38-143-105-98.5T328-8 175.5 27.5zm251 133Q465 201 465 269t-38.5 108.5T328 418t-99-40.5T190 269t39-108.5 99-40.5 98.5 40.5zm-74.5 453q-21 8.5-46 24.5-12 7-23.5 13t-20.5 6q-20 0-31-12t-13-34h-80q1 60 31.5 92.5T254 736q26 0 44.5-8t46.5-24q16-10 26.5-15t20.5-5q20 0 31 12.5t13 32.5h78q-1-58-31-91t-83-33q-27 0-48 8.5zM351 889h159L353 768H240z"/><glyph glyph-name="uni1E4E" unicode="Ṏ" horiz-adv-x="844" d="M225.5 35Q138 82 88.5 164.5T39 350t49.5 185.5 137 129.5T422 712t196-47 137-129.5T805 350t-50-185.5T618 35 422-12 225.5 35zM534 154.5q50 28.5 78.5 79.5T641 350t-28.5 116-78.5 79.5T422 574t-112-28.5-78.5-79.5T203 350t28.5-116 78.5-79.5T422 126t112 28.5zm-86 609q-21 8.5-46 24.5-12 7-23.5 13t-20.5 6q-20 0-31-12t-13-34h-80q1 60 31.5 92.5T350 886q26 0 44.5-8t46.5-24q16-10 26.5-15t20.5-5q20 0 31 12.5t13 32.5h78q-1-58-31-91t-83-33q-27 0-48 8.5zm-171 178Q258 960 258 989q0 28 19 47t47 19q29 0 48-19t19-47q0-29-19-47.5T324 923q-28 0-47 18.5zm196 0Q454 960 454 989q0 28 19.5 47t46.5 19q28 0 47-19t19-47q0-29-19-47.5T520 923t-47 18.5z"/><glyph glyph-name="uni1E4F" unicode="ṏ" horiz-adv-x="655" d="M175.5 27.5Q108 63 70 126T32 269t38 143 105.5 98.5T328 546t152-35.5T585 412t38-143-38-143-105-98.5T328-8 175.5 27.5zm251 133Q465 201 465 269t-38.5 108.5T328 418t-99-40.5T190 269t39-108.5 99-40.5 98.5 40.5zm-74.5 453q-21 8.5-46 24.5-12 7-23.5 13t-20.5 6q-20 0-31-12t-13-34h-80q1 60 31.5 92.5T254 736q26 0 44.5-8t46.5-24q16-10 26.5-15t20.5-5q20 0 31 12.5t13 32.5h78q-1-58-31-91t-83-33q-27 0-48 8.5zm-171 178Q162 810 162 839q0 28 19 47t47 19q29 0 48-19t19-47q0-29-19-47.5T228 773q-28 0-47 18.5zm196 0Q358 810 358 839q0 28 19.5 47t46.5 19q28 0 47-19t19-47q0-29-19-47.5T424 773t-47 18.5z"/><glyph glyph-name="uni1E50" unicode="Ṑ" horiz-adv-x="844" d="M225.5 35Q138 82 88.5 164.5T39 350t49.5 185.5 137 129.5T422 712t196-47 137-129.5T805 350t-50-185.5T618 35 422-12 225.5 35zM534 154.5q50 28.5 78.5 79.5T641 350t-28.5 116-78.5 79.5T422 574t-112-28.5-78.5-79.5T203 350t28.5-116 78.5-79.5T422 126t112 28.5zM237 856h370v-83H237v83zm2 183h159l110-121H396z"/><glyph glyph-name="uni1E51" unicode="ṑ" horiz-adv-x="655" d="M175.5 27.5Q108 63 70 126T32 269t38 143 105.5 98.5T328 546t152-35.5T585 412t38-143-38-143-105-98.5T328-8 175.5 27.5zm251 133Q465 201 465 269t-38.5 108.5T328 418t-99-40.5T190 269t39-108.5 99-40.5 98.5 40.5zM141 706h370v-83H141v83zm2 183h159l110-121H300z"/><glyph glyph-name="uni1E52" unicode="Ṓ" horiz-adv-x="844" d="M225.5 35Q138 82 88.5 164.5T39 350t49.5 185.5 137 129.5T422 712t196-47 137-129.5T805 350t-50-185.5T618 35 422-12 225.5 35zM534 154.5q50 28.5 78.5 79.5T641 350t-28.5 116-78.5 79.5T422 574t-112-28.5-78.5-79.5T203 350t28.5-116 78.5-79.5T422 126t112 28.5zM237 856h370v-83H237v83zm210 183h159L449 918H336z"/><glyph glyph-name="uni1E53" unicode="ṓ" horiz-adv-x="655" d="M175.5 27.5Q108 63 70 126T32 269t38 143 105.5 98.5T328 546t152-35.5T585 412t38-143-38-143-105-98.5T328-8 175.5 27.5zm251 133Q465 201 465 269t-38.5 108.5T328 418t-99-40.5T190 269t39-108.5 99-40.5 98.5 40.5zM141 706h370v-83H141v83zm210 183h159L353 768H240z"/><glyph glyph-name="uni1E5A" unicode="Ṛ" horiz-adv-x="735" d="M529 0 394 195H245V0H83v700h303q93 0 161.5-31T653 581t37-135-37.5-134.5T546 225L703 0H529zm-41 536.5Q450 568 377 568H245V324h132q73 0 111 32t38 90q0 59-38 90.5zm-162.5-728Q306-173 306-143t19.5 50T375-73q29 0 49-20t20-50-19.5-48.5T375-210t-49.5 18.5z"/><glyph glyph-name="uni1E5B" unicode="ṛ" horiz-adv-x="431" d="M296.5 526Q344 546 406 546V402q-26 2-35 2-67 0-105-37.5T228 254V0H72v538h149v-71q28 39 75.5 59zm-196-717.5Q81-173 81-143t19.5 50T150-73q29 0 49-20t20-50-19.5-48.5T150-210t-49.5 18.5z"/><glyph glyph-name="uni1E5E" unicode="Ṟ" horiz-adv-x="735" d="M529 0 394 195H245V0H83v700h303q93 0 161.5-31T653 581t37-135-37.5-134.5T546 225L703 0H529zm-41 536.5Q450 568 377 568H245V324h132q73 0 111 32t38 90q0 59-38 90.5zM190-95h370v-87H190v87z"/><glyph glyph-name="uni1E5F" unicode="ṟ" horiz-adv-x="431" d="M296.5 526Q344 546 406 546V402q-26 2-35 2-67 0-105-37.5T228 254V0H72v538h149v-71q28 39 75.5 59zM-35-95h370v-87H-35v87z"/><glyph glyph-name="uni1E60" unicode="Ṡ" horiz-adv-x="638" d="M152.5 10.5Q75 33 28 69l55 122q45-33 107-53t124-20q69 0 102 20.5t33 54.5q0 25-19.5 41.5t-50 26.5-82.5 22q-80 19-131 38t-87.5 61T42 494q0 61 33 110.5t99.5 78.5T337 712q67 0 131-16t112-46l-50-123q-97 55-194 55-68 0-100.5-22T203 502t37.5-53.5T355 414q80-19 131-38t87.5-60T610 205q0-60-33.5-109.5T476 17 313-12q-83 0-160.5 22.5zm112 775.5Q241 810 241 847q0 36 23.5 60t60.5 24 60.5-24 23.5-60q0-37-23.5-61T325 762t-60.5 24z"/><glyph glyph-name="uni1E61" unicode="ṡ" horiz-adv-x="531" d="M122 8.5Q58 25 20 50l52 112q36-23 87-37.5T259 110q99 0 99 49 0 23-27 33t-83 17q-66 10-109 23t-74.5 46T33 372q0 51 29.5 90.5t86 61.5T282 546q57 0 113.5-12.5T489 499l-52-111q-71 40-155 40-50 0-75-14t-25-36q0-25 27-35t86-19q66-11 108-23.5t73-45.5 31-92q0-50-30-89t-87.5-60.5T253-8Q186-8 122 8.5zM200.5 636Q177 660 177 697q0 36 23.5 60t60.5 24 60.5-24 23.5-60q0-37-23.5-61T261 612t-60.5 24z"/><glyph glyph-name="uni1E62" unicode="Ṣ" horiz-adv-x="638" d="M152.5 10.5Q75 33 28 69l55 122q45-33 107-53t124-20q69 0 102 20.5t33 54.5q0 25-19.5 41.5t-50 26.5-82.5 22q-80 19-131 38t-87.5 61T42 494q0 61 33 110.5t99.5 78.5T337 712q67 0 131-16t112-46l-50-123q-97 55-194 55-68 0-100.5-22T203 502t37.5-53.5T355 414q80-19 131-38t87.5-60T610 205q0-60-33.5-109.5T476 17 313-12q-83 0-160.5 22.5zm123-202Q256-173 256-143t19.5 50T325-73q29 0 49-20t20-50-19.5-48.5T325-210t-49.5 18.5z"/><glyph glyph-name="uni1E63" unicode="ṣ" horiz-adv-x="531" d="M122 8.5Q58 25 20 50l52 112q36-23 87-37.5T259 110q99 0 99 49 0 23-27 33t-83 17q-66 10-109 23t-74.5 46T33 372q0 51 29.5 90.5t86 61.5T282 546q57 0 113.5-12.5T489 499l-52-111q-71 40-155 40-50 0-75-14t-25-36q0-25 27-35t86-19q66-11 108-23.5t73-45.5 31-92q0-50-30-89t-87.5-60.5T253-8Q186-8 122 8.5zm89.5-200Q192-173 192-143t19.5 50T261-73q29 0 49-20t20-50-19.5-48.5T261-210t-49.5 18.5z"/><glyph glyph-name="uni1E64" unicode="Ṥ" horiz-adv-x="638" d="M152.5 10.5Q75 33 28 69l55 122q45-33 107-53t124-20q69 0 102 20.5t33 54.5q0 25-19.5 41.5t-50 26.5-82.5 22q-80 19-131 38t-87.5 61T42 494q0 61 33 110.5t99.5 78.5T337 712q67 0 131-16t112-46l-50-123q-97 55-194 55-68 0-100.5-22T203 502t37.5-53.5T355 414q80-19 131-38t87.5-60T610 205q0-60-33.5-109.5T476 17 313-12q-83 0-160.5 22.5zM350 878h159L352 757H239zm-74.5 63Q256 960 256 990t19.5 49.5T325 1059t49.5-19.5T394 990t-19.5-49-49.5-19-49.5 19z"/><glyph glyph-name="uni1E65" unicode="ṥ" horiz-adv-x="531" d="M122 8.5Q58 25 20 50l52 112q36-23 87-37.5T259 110q99 0 99 49 0 23-27 33t-83 17q-66 10-109 23t-74.5 46T33 372q0 51 29.5 90.5t86 61.5T282 546q57 0 113.5-12.5T489 499l-52-111q-71 40-155 40-50 0-75-14t-25-36q0-25 27-35t86-19q66-11 108-23.5t73-45.5 31-92q0-50-30-89t-87.5-60.5T253-8Q186-8 122 8.5zM286 728h159L288 607H175zm-74.5 63Q192 810 192 840t19.5 49.5T261 909t49.5-19.5T330 840t-19.5-49-49.5-19-49.5 19z"/><glyph glyph-name="uni1E66" unicode="Ṧ" horiz-adv-x="638" d="M152.5 10.5Q75 33 28 69l55 122q45-33 107-53t124-20q69 0 102 20.5t33 54.5q0 25-19.5 41.5t-50 26.5-82.5 22q-80 19-131 38t-87.5 61T42 494q0 61 33 110.5t99.5 78.5T337 712q67 0 131-16t112-46l-50-123q-97 55-194 55-68 0-100.5-22T203 502t37.5-53.5T355 414q80-19 131-38t87.5-60T610 205q0-60-33.5-109.5T476 17 313-12q-83 0-160.5 22.5zM526 871 393 757H257L124 871h115l86-57 86 57h115zm-250.5 47Q256 937 256 967t19.5 49.5T325 1036t49.5-19.5T394 967t-19.5-49-49.5-19-49.5 19z"/><glyph glyph-name="uni1E67" unicode="ṧ" horiz-adv-x="531" d="M122 8.5Q58 25 20 50l52 112q36-23 87-37.5T259 110q99 0 99 49 0 23-27 33t-83 17q-66 10-109 23t-74.5 46T33 372q0 51 29.5 90.5t86 61.5T282 546q57 0 113.5-12.5T489 499l-52-111q-71 40-155 40-50 0-75-14t-25-36q0-25 27-35t86-19q66-11 108-23.5t73-45.5 31-92q0-50-30-89t-87.5-60.5T253-8Q186-8 122 8.5zM462 721 329 607H193L60 721h115l86-57 86 57h115zm-250.5 47Q192 787 192 817t19.5 49.5T261 886t49.5-19.5T330 817t-19.5-49-49.5-19-49.5 19z"/><glyph glyph-name="uni1E68" unicode="Ṩ" horiz-adv-x="638" d="M152.5 10.5Q75 33 28 69l55 122q45-33 107-53t124-20q69 0 102 20.5t33 54.5q0 25-19.5 41.5t-50 26.5-82.5 22q-80 19-131 38t-87.5 61T42 494q0 61 33 110.5t99.5 78.5T337 712q67 0 131-16t112-46l-50-123q-97 55-194 55-68 0-100.5-22T203 502t37.5-53.5T355 414q80-19 131-38t87.5-60T610 205q0-60-33.5-109.5T476 17 313-12q-83 0-160.5 22.5zm123-202Q256-173 256-143t19.5 50T325-73q29 0 49-20t20-50-19.5-48.5T325-210t-49.5 18.5zm-11 977.5Q241 810 241 847q0 36 23.5 60t60.5 24 60.5-24 23.5-60q0-37-23.5-61T325 762t-60.5 24z"/><glyph glyph-name="uni1E69" unicode="ṩ" horiz-adv-x="531" d="M122 8.5Q58 25 20 50l52 112q36-23 87-37.5T259 110q99 0 99 49 0 23-27 33t-83 17q-66 10-109 23t-74.5 46T33 372q0 51 29.5 90.5t86 61.5T282 546q57 0 113.5-12.5T489 499l-52-111q-71 40-155 40-50 0-75-14t-25-36q0-25 27-35t86-19q66-11 108-23.5t73-45.5 31-92q0-50-30-89t-87.5-60.5T253-8Q186-8 122 8.5zm89.5-200Q192-173 192-143t19.5 50T261-73q29 0 49-20t20-50-19.5-48.5T261-210t-49.5 18.5zm-11 827.5Q177 660 177 697q0 36 23.5 60t60.5 24 60.5-24 23.5-60q0-37-23.5-61T261 612t-60.5 24z"/><glyph glyph-name="uni1E6C" unicode="Ṭ" horiz-adv-x="618" d="M228 568H4v132h610V568H390V0H228v568zm31.5-759.5Q240-173 240-143t19.5 50T309-73q29 0 49-20t20-50-19.5-48.5T309-210t-49.5 18.5z"/><glyph glyph-name="uni1E6D" unicode="ṭ" horiz-adv-x="435" d="M419 26Q396 9 362.5.5T292-8q-96 0-148.5 49T91 185v221H8v120h83v131h156V526h134V406H247V187q0-34 17.5-52.5T314 116q37 0 63 20zM213.5-191.5Q194-173 194-143t19.5 50T263-73q29 0 49-20t20-50-19.5-48.5T263-210t-49.5 18.5z"/><glyph glyph-name="uni1E6E" unicode="Ṯ" horiz-adv-x="618" d="M228 568H4v132h610V568H390V0H228v568zM124-95h370v-87H124v87z"/><glyph glyph-name="uni1E6F" unicode="ṯ" horiz-adv-x="435" d="M419 26Q396 9 362.5.5T292-8q-96 0-148.5 49T91 185v221H8v120h83v131h156V526h134V406H247V187q0-34 17.5-52.5T314 116q37 0 63 20zM78-95h370v-87H78v87z"/><glyph glyph-name="uni1E78" unicode="Ṹ" horiz-adv-x="788" d="M160.5 71Q77 154 77 308v392h162V314q0-188 156-188 76 0 116 45.5T551 314v386h160V308q0-154-83.5-237T394-12 160.5 71zM421 763.5q-21 8.5-46 24.5-12 7-23.5 13t-20.5 6q-20 0-31-12t-13-34h-80q1 60 31.5 92.5T323 886q26 0 44.5-8t46.5-24q16-10 26.5-15t20.5-5q20 0 31 12.5t13 32.5h78q-1-58-31-91t-83-33q-27 0-48 8.5zm-1 275.5h159L422 918H309z"/><glyph glyph-name="uni1E79" unicode="ṹ" horiz-adv-x="687" d="M614 538V0H466v64q-31-35-74-53.5T299-8Q193-8 131 53T69 234v304h156V257q0-130 109-130 56 0 90 36.5T458 272v266h156zm-247 75.5q-21 8.5-46 24.5-12 7-23.5 13t-20.5 6q-20 0-31-12t-13-34h-80q1 60 31.5 92.5T269 736q26 0 44.5-8t46.5-24q16-10 26.5-15t20.5-5q20 0 31 12.5t13 32.5h78q-1-58-31-91t-83-33q-27 0-48 8.5zM366 889h159L368 768H255z"/><glyph glyph-name="uni1E7A" unicode="Ṻ" horiz-adv-x="788" d="M160.5 71Q77 154 77 308v392h162V314q0-188 156-188 76 0 116 45.5T551 314v386h160V308q0-154-83.5-237T394-12 160.5 71zM210 857h370v-83H210v83zm40 85.5Q231 961 231 990q0 28 19 47t47 19q29 0 48-19t19-47q0-29-19-47.5T297 924q-28 0-47 18.5zm196 0Q427 961 427 990q0 28 19.5 47t46.5 19q28 0 47-19t19-47q0-29-19-47.5T493 924t-47 18.5z"/><glyph glyph-name="uni1E7B" unicode="ṻ" horiz-adv-x="687" d="M614 538V0H466v64q-31-35-74-53.5T299-8Q193-8 131 53T69 234v304h156V257q0-130 109-130 56 0 90 36.5T458 272v266h156zM156 706h370v-83H156v83zm40 85.5Q177 810 177 839q0 28 19 47t47 19q29 0 48-19t19-47q0-29-19-47.5T243 773q-28 0-47 18.5zm196 0Q373 810 373 839q0 28 19.5 47t46.5 19q28 0 47-19t19-47q0-29-19-47.5T439 773t-47 18.5z"/><glyph glyph-name="Wgrave" unicode="Ẁ" horiz-adv-x="1163" d="M1141 700 912 0H738L584 474 425 0H252L22 700h168l158-492 165 492h150l160-496 163 496h155zM370 901h168l135-144H551z"/><glyph glyph-name="wgrave" unicode="ẁ" horiz-adv-x="937" d="M936 538 741 0H591L470 334 345 0H195L1 538h147l127-364 132 364h132l128-364 131 364h138zM255 750h168l135-144H436z"/><glyph glyph-name="Wacute" unicode="Ẃ" horiz-adv-x="1163" d="M1141 700 912 0H738L584 474 425 0H252L22 700h168l158-492 165 492h150l160-496 163 496h155zM626 901h168L613 757H491z"/><glyph glyph-name="wacute" unicode="ẃ" horiz-adv-x="937" d="M936 538 741 0H591L470 334 345 0H195L1 538h147l127-364 132 364h132l128-364 131 364h138zM511 750h168L498 606H376z"/><glyph glyph-name="Wdieresis" unicode="Ẅ" horiz-adv-x="1163" d="M1141 700 912 0H738L584 474 425 0H252L22 700h168l158-492 165 492h150l160-496 163 496h155zm-710 81.5Q411 801 411 831t20 49.5 50 19.5 49.5-19.5T550 831t-19.5-49.5T481 762t-50 19.5zm202.5 0Q614 801 614 831t19.5 49.5T683 900t50-19.5 20-49.5-20-49.5-50-19.5-49.5 19.5z"/><glyph glyph-name="wdieresis" unicode="ẅ" horiz-adv-x="937" d="M936 538 741 0H591L470 334 345 0H195L1 538h147l127-364 132 364h132l128-364 131 364h138zm-620 92.5Q296 650 296 680t20 49.5 50 19.5 49.5-19.5T435 680t-19.5-49.5T366 611t-50 19.5zm202.5 0Q499 650 499 680t19.5 49.5T568 749t50-19.5 20-49.5-20-49.5-50-19.5-49.5 19.5z"/><glyph glyph-name="uni1E8E" unicode="Ẏ" horiz-adv-x="676" d="M419 248V0H257v250L-14 700h172l187-311 187 311h159zM277.5 786Q254 810 254 847q0 36 23.5 60t60.5 24 60.5-24 23.5-60q0-37-23.5-61T338 762t-60.5 24z"/><glyph glyph-name="uni1E8F" unicode="ẏ" horiz-adv-x="598" d="M606 538 363-33q-37-93-91.5-131T140-202q-42 0-83 13t-67 36L47-42q18-16 41.5-25t46.5-9q32 0 52 15.5T223-9l2 5L-8 538h161l151-365 152 365h150zm-378.5 98Q204 660 204 697q0 36 23.5 60t60.5 24 60.5-24 23.5-60q0-37-23.5-61T288 612t-60.5 24z"/><glyph glyph-name="uni1E92" unicode="Ẓ" horiz-adv-x="671" d="M650 132V0H38v105l384 463H46v132h589V595L252 132h398zM297.5-191.5Q278-173 278-143t19.5 50T347-73q29 0 49-20t20-50-19.5-48.5T347-210t-49.5 18.5z"/><glyph glyph-name="uni1E93" unicode="ẓ" horiz-adv-x="543" d="M515 120V0H35v94l274 324H42v120h464v-94L232 120h283zM228.5-191.5Q209-173 209-143t19.5 50T278-73q29 0 49-20t20-50-19.5-48.5T278-210t-49.5 18.5z"/><glyph glyph-name="uni1E97" unicode="ẗ" horiz-adv-x="435" d="M419 26Q396 9 362.5.5T292-8q-96 0-148.5 49T91 185v221H8v120h83v131h156V526h134V406H247V187q0-34 17.5-52.5T314 116q37 0 63 20zM18 750.5Q-2 770-2 800t20 49.5T68 869t49.5-19.5T137 800t-19.5-49.5T68 731t-50 19.5zm202.5 0Q201 770 201 800t19.5 49.5T270 869t50-19.5 20-49.5-20-49.5-50-19.5-49.5 19.5z"/><glyph glyph-name="uni1E9E" unicode="ẞ" horiz-adv-x="779" d="M689.5 345.5Q740 290 740 206q0-68-34-117t-92.5-75T482-12q-89 0-151 24l24 128q44-22 102-22t88.5 24 30.5 71q0 46-31 70.5T458 308q-43 0-74-11l-28 70 172 199q-49 17-106 17-89 0-136-50.5T239 388V0H77v392q0 99 40 171t117.5 111T420 713q68 0 136-17.5T670 646v-98L557 418q82-17 132.5-72.5z"/><glyph glyph-name="uni1EA0" unicode="Ạ" horiz-adv-x="766" d="M544 150H219L157 0H-9l312 700h160L776 0H606zm-51 123L382 541 271 273h222zM333.5-191.5Q314-173 314-143t19.5 50T383-73q29 0 49-20t20-50-19.5-48.5T383-210t-49.5 18.5z"/><glyph glyph-name="uni1EA1" unicode="ạ" horiz-adv-x="617" d="M481 486.5Q548 427 548 307V0H402v67Q358-8 238-8q-62 0-107.5 21T61 71t-24 84q0 75 56.5 118T268 316h124q0 51-31 78.5T268 422q-43 0-84.5-13.5T113 372L57 481q44 31 105.5 48T289 546q125 0 192-59.5zm-133-371q31 18.5 44 54.5v55H285q-96 0-96-63 0-30 23.5-47.5T277 97q40 0 71 18.5zm-104.5-307Q224-173 224-143t19.5 50T293-73q29 0 49-20t20-50-19.5-48.5T293-210t-49.5 18.5z"/><glyph glyph-name="uni1EA2" unicode="Ả" horiz-adv-x="766" d="M544 150H219L157 0H-9l312 700h160L776 0H606zm-51 123L382 541 271 273h222zM364 799q28 13 39.5 28t11.5 33q0 19-13 30.5T368 902q-30 0-59-19l-32 63q43 34 108 34 53 0 86.5-29.5T505 873q0-84-92-126z"/><glyph glyph-name="uni1EA3" unicode="ả" horiz-adv-x="617" d="M481 486.5Q548 427 548 307V0H402v67Q358-8 238-8q-62 0-107.5 21T61 71t-24 84q0 75 56.5 118T268 316h124q0 51-31 78.5T268 422q-43 0-84.5-13.5T113 372L57 481q44 31 105.5 48T289 546q125 0 192-59.5zm-133-371q31 18.5 44 54.5v55H285q-96 0-96-63 0-30 23.5-47.5T277 97q40 0 71 18.5zM286 649q28 13 39.5 28t11.5 33q0 19-13 30.5T290 752q-30 0-59-19l-32 63q43 34 108 34 53 0 86.5-29.5T427 723q0-84-92-126z"/><glyph glyph-name="uni1EA4" unicode="Ấ" horiz-adv-x="766" d="M544 150H219L157 0H-9l312 700h160L776 0H606zm-51 123L382 541 271 273h222zm-24 484-86 57-86-57H182l133 114h136l133-114H469zm145 217h159L616 853H503z"/><glyph glyph-name="uni1EA5" unicode="ấ" horiz-adv-x="617" d="M481 486.5Q548 427 548 307V0H402v67Q358-8 238-8q-62 0-107.5 21T61 71t-24 84q0 75 56.5 118T268 316h124q0 51-31 78.5T268 422q-43 0-84.5-13.5T113 372L57 481q44 31 105.5 48T289 546q125 0 192-59.5zm-133-371q31 18.5 44 54.5v55H285q-96 0-96-63 0-30 23.5-47.5T277 97q40 0 71 18.5zM391 607l-86 57-86-57H104l133 114h136l133-114H391zm145 217h159L538 703H425z"/><glyph glyph-name="uni1EA6" unicode="Ầ" horiz-adv-x="766" d="M544 150H219L157 0H-9l312 700h160L776 0H606zm-51 123L382 541 271 273h222zm-24 484-86 57-86-57H182l133 114h136l133-114H469zm-63 217h159l110-121H563z"/><glyph glyph-name="uni1EA7" unicode="ầ" horiz-adv-x="617" d="M481 486.5Q548 427 548 307V0H402v67Q358-8 238-8q-62 0-107.5 21T61 71t-24 84q0 75 56.5 118T268 316h124q0 51-31 78.5T268 422q-43 0-84.5-13.5T113 372L57 481q44 31 105.5 48T289 546q125 0 192-59.5zm-133-371q31 18.5 44 54.5v55H285q-96 0-96-63 0-30 23.5-47.5T277 97q40 0 71 18.5zM391 607l-86 57-86-57H104l133 114h136l133-114H391zm-63 217h159l110-121H485z"/><glyph glyph-name="uni1EA8" unicode="Ẩ" horiz-adv-x="766" d="M544 150H219L157 0H-9l312 700h160L776 0H606zm-51 123L382 541 271 273h222zm-24 484-86 57-86-57H182l133 114h136l133-114H469zm54 114q37 18 37 42 0 13-9.5 21t-24.5 8q-21 0-44-12l-26 48q34 22 83 22 42 0 67-21.5t25-57.5q0-29-19.5-52T561 834z"/><glyph glyph-name="uni1EA9" unicode="ẩ" horiz-adv-x="617" d="M481 486.5Q548 427 548 307V0H402v67Q358-8 238-8q-62 0-107.5 21T61 71t-24 84q0 75 56.5 118T268 316h124q0 51-31 78.5T268 422q-43 0-84.5-13.5T113 372L57 481q44 31 105.5 48T289 546q125 0 192-59.5zm-133-371q31 18.5 44 54.5v55H285q-96 0-96-63 0-30 23.5-47.5T277 97q40 0 71 18.5zM391 607l-86 57-86-57H104l133 114h136l133-114H391zm54 114q37 18 37 42 0 13-9.5 21t-24.5 8q-21 0-44-12l-26 48q34 22 83 22 42 0 67-21.5t25-57.5q0-29-19.5-52T483 684z"/><glyph glyph-name="uni1EAA" unicode="Ẫ" horiz-adv-x="766" d="M544 150H219L157 0H-9l312 700h160L776 0H606zm-51 123L382 541 271 273h222zm-24 484-86 57-86-57H182l133 114h136l133-114H469zm-60 157.5q-21 8.5-46 24.5-12 7-23.5 13t-20.5 6q-20 0-31-12t-13-34h-80q1 60 31.5 92.5T311 1037q26 0 44.5-8t46.5-24q16-10 26.5-15t20.5-5q20 0 31 12.5t13 32.5h78q-1-58-31-91t-83-33q-27 0-48 8.5z"/><glyph glyph-name="uni1EAB" unicode="ẫ" horiz-adv-x="617" d="M481 486.5Q548 427 548 307V0H402v67Q358-8 238-8q-62 0-107.5 21T61 71t-24 84q0 75 56.5 118T268 316h124q0 51-31 78.5T268 422q-43 0-84.5-13.5T113 372L57 481q44 31 105.5 48T289 546q125 0 192-59.5zm-133-371q31 18.5 44 54.5v55H285q-96 0-96-63 0-30 23.5-47.5T277 97q40 0 71 18.5zM391 607l-86 57-86-57H104l133 114h136l133-114H391zm-60 157.5q-21 8.5-46 24.5-12 7-23.5 13t-20.5 6q-20 0-31-12t-13-34h-80q1 60 31.5 92.5T233 887q26 0 44.5-8t46.5-24q16-10 26.5-15t20.5-5q20 0 31 12.5t13 32.5h78q-1-58-31-91t-83-33q-27 0-48 8.5z"/><glyph glyph-name="uni1EAC" unicode="Ậ" horiz-adv-x="766" d="M544 150H219L157 0H-9l312 700h160L776 0H606zm-51 123L382 541 271 273h222zM333.5-191.5Q314-173 314-143t19.5 50T383-73q29 0 49-20t20-50-19.5-48.5T383-210t-49.5 18.5zM470 757l-87 76-87-76H182l132 144h138l132-144H470z"/><glyph glyph-name="uni1EAD" unicode="ậ" horiz-adv-x="617" d="M481 486.5Q548 427 548 307V0H402v67Q358-8 238-8q-62 0-107.5 21T61 71t-24 84q0 75 56.5 118T268 316h124q0 51-31 78.5T268 422q-43 0-84.5-13.5T113 372L57 481q44 31 105.5 48T289 546q125 0 192-59.5zm-133-371q31 18.5 44 54.5v55H285q-96 0-96-63 0-30 23.5-47.5T277 97q40 0 71 18.5zm-104.5-307Q224-173 224-143t19.5 50T293-73q29 0 49-20t20-50-19.5-48.5T293-210t-49.5 18.5zM392 607l-87 76-87-76H104l132 144h138l132-144H392z"/><glyph glyph-name="uni1EAE" unicode="Ắ" horiz-adv-x="766" d="M544 150H219L157 0H-9l312 700h160L776 0H606zm-51 123L382 541 271 273h222zM254.5 782Q204 815 199 871h94q3-21 28-34t62-13 62 13 28 34h94q-5-56-55.5-89T383 749t-128.5 33zM408 1022h159L410 901H297z"/><glyph glyph-name="uni1EAF" unicode="ắ" horiz-adv-x="617" d="M481 486.5Q548 427 548 307V0H402v67Q358-8 238-8q-62 0-107.5 21T61 71t-24 84q0 75 56.5 118T268 316h124q0 51-31 78.5T268 422q-43 0-84.5-13.5T113 372L57 481q44 31 105.5 48T289 546q125 0 192-59.5zm-133-371q31 18.5 44 54.5v55H285q-96 0-96-63 0-30 23.5-47.5T277 97q40 0 71 18.5zM176.5 632Q126 665 121 721h94q3-21 28-34t62-13 62 13 28 34h94q-5-56-55.5-89T305 599t-128.5 33zM330 872h159L332 751H219z"/><glyph glyph-name="uni1EB0" unicode="Ằ" horiz-adv-x="766" d="M544 150H219L157 0H-9l312 700h160L776 0H606zm-51 123L382 541 271 273h222zM254.5 782Q204 815 199 871h94q3-21 28-34t62-13 62 13 28 34h94q-5-56-55.5-89T383 749t-128.5 33zM200 1022h159l110-121H357z"/><glyph glyph-name="uni1EB1" unicode="ằ" horiz-adv-x="617" d="M481 486.5Q548 427 548 307V0H402v67Q358-8 238-8q-62 0-107.5 21T61 71t-24 84q0 75 56.5 118T268 316h124q0 51-31 78.5T268 422q-43 0-84.5-13.5T113 372L57 481q44 31 105.5 48T289 546q125 0 192-59.5zm-133-371q31 18.5 44 54.5v55H285q-96 0-96-63 0-30 23.5-47.5T277 97q40 0 71 18.5zM176.5 632Q126 665 121 721h94q3-21 28-34t62-13 62 13 28 34h94q-5-56-55.5-89T305 599t-128.5 33zM122 872h159l110-121H279z"/><glyph glyph-name="uni1EB2" unicode="Ẳ" horiz-adv-x="766" d="M544 150H219L157 0H-9l312 700h160L776 0H606zm-51 123L382 541 271 273h222zM254.5 782Q204 815 199 871h94q3-21 28-34t62-13 62 13 28 34h94q-5-56-55.5-89T383 749t-128.5 33zM370 910q37 18 37 42 0 13-9.5 21t-24.5 8q-21 0-44-12l-26 48q34 22 83 22 42 0 67-21.5t25-57.5q0-29-19.5-52T408 873z"/><glyph glyph-name="uni1EB3" unicode="ẳ" horiz-adv-x="617" d="M481 486.5Q548 427 548 307V0H402v67Q358-8 238-8q-62 0-107.5 21T61 71t-24 84q0 75 56.5 118T268 316h124q0 51-31 78.5T268 422q-43 0-84.5-13.5T113 372L57 481q44 31 105.5 48T289 546q125 0 192-59.5zm-133-371q31 18.5 44 54.5v55H285q-96 0-96-63 0-30 23.5-47.5T277 97q40 0 71 18.5zM176.5 632Q126 665 121 721h94q3-21 28-34t62-13 62 13 28 34h94q-5-56-55.5-89T305 599t-128.5 33zM292 760q37 18 37 42 0 13-9.5 21t-24.5 8q-21 0-44-12l-26 48q34 22 83 22 42 0 67-21.5t25-57.5q0-29-19.5-52T330 723z"/><glyph glyph-name="uni1EB4" unicode="Ẵ" horiz-adv-x="766" d="M544 150H219L157 0H-9l312 700h160L776 0H606zm-51 123L382 541 271 273h222zM254.5 782Q204 815 199 871h94q3-21 28-34t62-13 62 13 28 34h94q-5-56-55.5-89T383 749t-128.5 33zM409 907.5q-21 8.5-46 24.5-12 7-23.5 13t-20.5 6q-20 0-31-12t-13-34h-80q1 60 31.5 92.5T311 1030q26 0 44.5-8t46.5-24q16-10 26.5-15t20.5-5q20 0 31 12.5t13 32.5h78q-1-58-31-91t-83-33q-27 0-48 8.5z"/><glyph glyph-name="uni1EB5" unicode="ẵ" horiz-adv-x="617" d="M481 486.5Q548 427 548 307V0H402v67Q358-8 238-8q-62 0-107.5 21T61 71t-24 84q0 75 56.5 118T268 316h124q0 51-31 78.5T268 422q-43 0-84.5-13.5T113 372L57 481q44 31 105.5 48T289 546q125 0 192-59.5zm-133-371q31 18.5 44 54.5v55H285q-96 0-96-63 0-30 23.5-47.5T277 97q40 0 71 18.5zM176.5 632Q126 665 121 721h94q3-21 28-34t62-13 62 13 28 34h94q-5-56-55.5-89T305 599t-128.5 33zM331 757.5q-21 8.5-46 24.5-12 7-23.5 13t-20.5 6q-20 0-31-12t-13-34h-80q1 60 31.5 92.5T233 880q26 0 44.5-8t46.5-24q16-10 26.5-15t20.5-5q20 0 31 12.5t13 32.5h78q-1-58-31-91t-83-33q-27 0-48 8.5z"/><glyph glyph-name="uni1EB6" unicode="Ặ" horiz-adv-x="766" d="M544 150H219L157 0H-9l312 700h160L776 0H606zm-51 123L382 541 271 273h222zM333.5-191.5Q314-173 314-143t19.5 50T383-73q29 0 49-20t20-50-19.5-48.5T383-210t-49.5 18.5zM253 790q-51 41-54 111h98q1-32 25.5-51.5T383 830t60.5 19.5T469 901h98q-3-70-54-111t-130-41-130 41z"/><glyph glyph-name="uni1EB7" unicode="ặ" horiz-adv-x="617" d="M481 486.5Q548 427 548 307V0H402v67Q358-8 238-8q-62 0-107.5 21T61 71t-24 84q0 75 56.5 118T268 316h124q0 51-31 78.5T268 422q-43 0-84.5-13.5T113 372L57 481q44 31 105.5 48T289 546q125 0 192-59.5zm-133-371q31 18.5 44 54.5v55H285q-96 0-96-63 0-30 23.5-47.5T277 97q40 0 71 18.5zm-104.5-307Q224-173 224-143t19.5 50T293-73q29 0 49-20t20-50-19.5-48.5T293-210t-49.5 18.5zM175 640q-51 41-54 111h98q1-32 25.5-51.5T305 680t60.5 19.5T391 751h98q-3-70-54-111t-130-41-130 41z"/><glyph glyph-name="uni1EB8" unicode="Ẹ" horiz-adv-x="671" d="M625 130V0H83v700h529V570H244V418h325V292H244V130h381zM303.5-191.5Q284-173 284-143t19.5 50T353-73q29 0 49-20t20-50-19.5-48.5T353-210t-49.5 18.5z"/><glyph glyph-name="uni1EB9" unicode="ẹ" horiz-adv-x="631" d="M596 225H189q11-50 52-79t102-29q42 0 74.5 12.5T478 169l83-90Q485-8 339-8q-91 0-161 35.5T70 126 32 269q0 79 37.5 142.5t103 99T319 546q79 0 143-34t100.5-97.5T599 267q0-3-3-42zM231 398q-36-30-44-82h265q-8 51-44 81.5T320 428q-53 0-89-30zm35.5-589.5Q247-173 247-143t19.5 50T316-73q29 0 49-20t20-50-19.5-48.5T316-210t-49.5 18.5z"/><glyph glyph-name="uni1EBA" unicode="Ẻ" horiz-adv-x="671" d="M625 130V0H83v700h529V570H244V418h325V292H244V130h381zM329 799q28 13 39.5 28t11.5 33q0 19-13 30.5T333 902q-30 0-59-19l-32 63q43 34 108 34 53 0 86.5-29.5T470 873q0-84-92-126z"/><glyph glyph-name="uni1EBB" unicode="ẻ" horiz-adv-x="631" d="M596 225H189q11-50 52-79t102-29q42 0 74.5 12.5T478 169l83-90Q485-8 339-8q-91 0-161 35.5T70 126 32 269q0 79 37.5 142.5t103 99T319 546q79 0 143-34t100.5-97.5T599 267q0-3-3-42zM231 398q-36-30-44-82h265q-8 51-44 81.5T320 428q-53 0-89-30zm66 251q28 13 39.5 28t11.5 33q0 19-13 30.5T301 752q-30 0-59-19l-32 63q43 34 108 34 53 0 86.5-29.5T438 723q0-84-92-126z"/><glyph glyph-name="uni1EBC" unicode="Ẽ" horiz-adv-x="671" d="M625 130V0H83v700h529V570H244V418h325V292H244V130h381zM375.5 764.5Q355 775 330 793q-16 12-26.5 18t-20.5 6q-21 0-34-14.5T235 761h-79q2 67 33.5 106.5T273 907q26 0 46.5-10.5T366 867q16-12 26.5-18t20.5-6q20 0 33.5 14.5T461 897h79q-2-65-33.5-104T423 754q-27 0-47.5 10.5z"/><glyph glyph-name="uni1EBD" unicode="ẽ" horiz-adv-x="631" d="M596 225H189q11-50 52-79t102-29q42 0 74.5 12.5T478 169l83-90Q485-8 339-8q-91 0-161 35.5T70 126 32 269q0 79 37.5 142.5t103 99T319 546q79 0 143-34t100.5-97.5T599 267q0-3-3-42zM231 398q-36-30-44-82h265q-8 51-44 81.5T320 428q-53 0-89-30zm112.5 216.5Q323 625 298 643q-16 12-26.5 18t-20.5 6q-21 0-34-14.5T203 611h-79q2 67 33.5 106.5T241 757q26 0 46.5-10.5T334 717q16-12 26.5-18t20.5-6q20 0 33.5 14.5T429 747h79q-2-65-33.5-104T391 604q-27 0-47.5 10.5z"/></font>
</defs>
</svg>
