<svg width="120" height="121" viewBox="0 0 120 121" fill="none" xmlns="http://www.w3.org/2000/svg"><mask id="a" mask-type="alpha" maskUnits="userSpaceOnUse" x="0" y="0" width="59" height="121"><path d="M0 0h59v121H0V0Z" fill="#C4C4C4"/></mask><g mask="url(#a)"><circle cx="60" cy="61" r="58" stroke="url(#b)" stroke-width="4"/></g><mask id="c" mask-type="alpha" maskUnits="userSpaceOnUse" x="61" y="1" width="59" height="59"><path d="M61 1h59v59H61V1Z" fill="#C4C4C4"/></mask><g mask="url(#c)"><circle cx="60" cy="61" r="58" stroke="url(#d)" stroke-width="4"/></g><mask id="e" mask-type="alpha" maskUnits="userSpaceOnUse" x="61" y="62" width="59" height="59"><path d="M120 62v59H61V62h59Z" fill="#C4C4C4"/></mask><g mask="url(#e)"><circle cx="60" cy="61" r="58" transform="rotate(90 60 61)" stroke="url(#f)" stroke-width="4"/></g><path d="M50.648 55.832V59H37.952v-2.52l6.48-6.12c.688-.656 1.152-1.216 1.392-1.68.24-.48.36-.952.36-1.416 0-.672-.232-1.184-.696-1.536-.448-.368-1.112-.552-1.992-.552-.736 0-1.4.144-1.992.432a3.718 3.718 0 0 0-1.488 1.248l-2.832-1.824c.656-.976 1.56-1.736 2.712-2.28 1.152-.56 2.472-.84 3.96-.84 1.248 0 2.336.208 3.264.624.944.4 1.672.976 2.184 1.728.528.736.792 1.608.792 2.616 0 .912-.192 1.768-.576 2.568-.384.8-1.128 1.712-2.232 2.736l-3.864 3.648h7.224Zm9.645-7.368c1.072 0 2.049.216 2.928.648a5.086 5.086 0 0 1 2.089 1.848c.511.784.767 1.696.767 2.736 0 1.12-.28 2.104-.84 2.952-.56.848-1.327 1.504-2.303 1.968-.96.448-2.032.672-3.216.672-2.353 0-4.193-.72-5.52-2.16-1.328-1.44-1.992-3.496-1.992-6.168 0-1.904.36-3.536 1.08-4.896.72-1.36 1.72-2.392 3-3.096 1.295-.704 2.791-1.056 4.487-1.056.896 0 1.752.104 2.569.312.832.192 1.535.472 2.112.84l-1.44 2.856c-.832-.56-1.88-.84-3.144-.84-1.424 0-2.552.416-3.384 1.248-.832.832-1.28 2.04-1.344 3.624.991-.992 2.375-1.488 4.151-1.488Zm-.791 7.92c.831 0 1.503-.224 2.015-.672.528-.448.792-1.056.792-1.824s-.264-1.376-.791-1.824c-.513-.464-1.2-.696-2.065-.696-.848 0-1.544.24-2.088.72-.544.464-.816 1.064-.816 1.8s.264 1.336.793 1.8c.528.464 1.248.696 2.16.696Zm15.185 2.904c-1.392 0-2.632-.344-3.72-1.032-1.088-.688-1.944-1.68-2.568-2.976-.608-1.312-.912-2.872-.912-4.68 0-1.808.304-3.36.912-4.656.624-1.312 1.48-2.312 2.568-3 1.088-.688 2.328-1.032 3.72-1.032 1.392 0 2.632.344 3.72 1.032 1.088.688 1.936 1.688 2.544 3 .624 1.296.936 2.848.936 4.656 0 1.808-.312 3.368-.936 4.68-.608 1.296-1.456 2.288-2.544 2.976-1.088.688-2.328 1.032-3.72 1.032Zm0-3.288c1.024 0 1.824-.44 2.4-1.32.592-.88.888-2.24.888-4.08 0-1.84-.296-3.2-.888-4.08-.576-.88-1.376-1.32-2.4-1.32-1.008 0-1.808.44-2.4 1.32-.576.88-.864 2.24-.864 4.08 0 1.84.288 3.2.864 4.08.592.88 1.392 1.32 2.4 1.32Zm-39.42 15.184H31.27L31.283 78H29.35v-8.4h5.928l-.012 1.584Zm4.35 6.96c-.872 0-1.66-.188-2.364-.564a4.255 4.255 0 0 1-1.645-1.548c-.391-.664-.587-1.408-.587-2.232 0-.824.196-1.564.587-2.22.4-.664.949-1.184 1.645-1.56.703-.376 1.492-.564 2.364-.564.872 0 1.656.188 2.352.564a4.226 4.226 0 0 1 1.643 1.56c.4.656.6 1.396.6 2.22 0 .824-.2 1.568-.6 2.232a4.255 4.255 0 0 1-1.644 1.548c-.696.376-1.48.564-2.352.564Zm0-1.656c.495 0 .944-.112 1.344-.336.4-.232.712-.552.936-.96.232-.408.348-.872.348-1.392 0-.52-.116-.984-.348-1.392a2.372 2.372 0 0 0-.936-.948 2.63 2.63 0 0 0-1.344-.348 2.63 2.63 0 0 0-1.344.348c-.4.224-.717.54-.949.948a2.844 2.844 0 0 0-.335 1.392c0 .52.111.984.336 1.392.231.408.547.728.947.96.4.224.849.336 1.345.336ZM52.964 69.6V78h-1.92v-6.816h-2.88l-.06 1.752c-.04 1.192-.136 2.16-.288 2.904-.152.736-.408 1.304-.768 1.704-.352.392-.848.588-1.488.588-.264 0-.584-.044-.96-.132l.12-1.644c.104.032.22.048.348.048.464 0 .788-.272.972-.816.184-.552.3-1.412.348-2.58l.12-3.408h6.456Zm6.106 8.544c-.872 0-1.66-.188-2.364-.564a4.255 4.255 0 0 1-1.644-1.548c-.392-.664-.588-1.408-.588-2.232 0-.824.196-1.564.588-2.22.4-.664.948-1.184 1.644-1.56.704-.376 1.492-.564 2.364-.564.872 0 1.656.188 2.352.564a4.226 4.226 0 0 1 1.644 1.56c.4.656.6 1.396.6 2.22 0 .824-.2 1.568-.6 2.232a4.255 4.255 0 0 1-1.644 1.548c-.696.376-1.48.564-2.352.564Zm0-1.656c.496 0 .944-.112 1.344-.336.4-.232.712-.552.936-.96.232-.408.348-.872.348-1.392 0-.52-.116-.984-.348-1.392a2.372 2.372 0 0 0-.936-.948 2.63 2.63 0 0 0-1.344-.348 2.63 2.63 0 0 0-1.344.348c-.4.224-.716.54-.948.948a2.844 2.844 0 0 0-.336 1.392c0 .52.112.984.336 1.392.232.408.548.728.948.96.4.224.848.336 1.344.336Zm10.065 1.656c-.856 0-1.632-.184-2.328-.552a4.277 4.277 0 0 1-1.632-1.548c-.392-.664-.588-1.412-.588-2.244 0-.832.196-1.576.588-2.232.4-.664.944-1.18 1.632-1.548.696-.376 1.476-.564 2.34-.564.728 0 1.384.128 1.968.384a3.943 3.943 0 0 1 1.488 1.104l-1.248 1.152c-.568-.656-1.272-.984-2.112-.984-.52 0-.984.116-1.392.348-.408.224-.728.54-.96.948a2.844 2.844 0 0 0-.336 1.392c0 .52.112.984.336 1.392.232.408.552.728.96.96.408.224.872.336 1.392.336.84 0 1.544-.332 2.112-.996l1.248 1.152c-.4.488-.896.86-1.488 1.116-.592.256-1.252.384-1.98.384Zm8.567 0c-.872 0-1.66-.188-2.364-.564a4.255 4.255 0 0 1-1.644-1.548c-.392-.664-.588-1.408-.588-2.232 0-.824.196-1.564.588-2.22.4-.664.948-1.184 1.644-1.56.704-.376 1.492-.564 2.364-.564.872 0 1.656.188 2.352.564a4.226 4.226 0 0 1 1.644 1.56c.4.656.6 1.396.6 2.22 0 .824-.2 1.568-.6 2.232a4.255 4.255 0 0 1-1.644 1.548c-.696.376-1.48.564-2.352.564Zm0-1.656c.496 0 .944-.112 1.344-.336.4-.232.712-.552.936-.96.232-.408.348-.872.348-1.392 0-.52-.116-.984-.348-1.392a2.372 2.372 0 0 0-.936-.948 2.63 2.63 0 0 0-1.344-.348 2.63 2.63 0 0 0-1.344.348c-.4.224-.716.54-.948.948a2.844 2.844 0 0 0-.336 1.392c0 .52.112.984.336 1.392.232.408.548.728.948.96.4.224.848.336 1.344.336Zm11.914-2.868c.512.152.904.4 1.176.744.272.344.408.768.408 1.272 0 .744-.284 1.324-.852 1.74-.56.416-1.364.624-2.412.624h-4.14v-8.4h3.912c.976 0 1.736.188 2.28.564.544.376.816.912.816 1.608 0 .416-.104.784-.312 1.104-.208.312-.5.56-.876.744Zm-3.888-.54h1.812c.424 0 .744-.084.96-.252.216-.176.324-.432.324-.768 0-.328-.112-.58-.336-.756-.216-.176-.532-.264-.948-.264h-1.812v2.04Zm2.136 3.48c.912 0 1.368-.36 1.368-1.08 0-.696-.456-1.044-1.368-1.044h-2.136v2.124h2.136Z" fill="#BC9CFF"/><defs><linearGradient id="b" x1="60" y1="1" x2="60" y2="121" gradientUnits="userSpaceOnUse"><stop stop-color="#FFE39C"/><stop offset="1" stop-color="#FFBA9C"/></linearGradient><linearGradient id="d" x1="60" y1="1" x2="60" y2="121" gradientUnits="userSpaceOnUse"><stop stop-color="#BC9CFF"/><stop offset="1" stop-color="#8BA4F9"/></linearGradient><linearGradient id="f" x1="60" y1="1" x2="60" y2="121" gradientUnits="userSpaceOnUse"><stop stop-color="#6FCF97"/><stop offset="1" stop-color="#66D2EA"/></linearGradient></defs></svg>